<?xml version="1.0" encoding="utf-8" standalone="no"?>
<!DOCTYPE svg PUBLIC "-//W3C//DTD SVG 1.1//EN"
  "http://www.w3.org/Graphics/SVG/1.1/DTD/svg11.dtd">
<svg xmlns:xlink="http://www.w3.org/1999/xlink" width="326.237pt" height="318.190125pt" viewBox="0 0 326.237 318.190125" xmlns="http://www.w3.org/2000/svg" version="1.1">
 <metadata>
  <rdf:RDF xmlns:dc="http://purl.org/dc/elements/1.1/" xmlns:cc="http://creativecommons.org/ns#" xmlns:rdf="http://www.w3.org/1999/02/22-rdf-syntax-ns#">
   <cc:Work>
    <dc:type rdf:resource="http://purl.org/dc/dcmitype/StillImage"/>
    <dc:date>2022-11-16T18:01:21.783395</dc:date>
    <dc:format>image/svg+xml</dc:format>
    <dc:creator>
     <cc:Agent>
      <dc:title>Matplotlib v3.6.2, https://matplotlib.org/</dc:title>
     </cc:Agent>
    </dc:creator>
   </cc:Work>
  </rdf:RDF>
 </metadata>
 <defs>
  <style type="text/css">*{stroke-linejoin: round; stroke-linecap: butt}</style>
 </defs>
 <g id="figure_1">
  <g id="patch_1">
   <path d="M 0 318.190125 
L 326.237 318.190125 
L 326.237 0 
L 0 0 
z
" style="fill: #ffffff"/>
  </g>
  <g id="axes_1">
   <g id="patch_2">
    <path d="M 299.35575 159.095062 
C 299.35575 141.622309 295.913998 124.319455 289.227465 108.176736 
C 282.540932 92.034016 272.739653 77.365365 260.38455 65.010263 
C 248.029447 52.65516 233.360796 42.853881 217.218077 36.167347 
C 201.075357 29.480814 183.772504 26.039062 166.29975 26.039062 
C 148.826996 26.039062 131.524143 29.480814 115.381423 36.167347 
C 99.238704 42.853881 84.570053 52.65516 72.21495 65.010263 
C 59.859847 77.365365 50.058568 92.034016 43.372035 108.176736 
C 36.685502 124.319455 33.24375 141.622309 33.24375 159.095062 
C 33.24375 176.567816 36.685502 193.87067 43.372035 210.013389 
C 50.058568 226.156109 59.859847 240.82476 72.21495 253.179862 
C 84.570053 265.534965 99.238704 275.336244 115.381423 282.022778 
C 131.524143 288.709311 148.826996 292.151062 166.29975 292.151062 
C 183.772504 292.151062 201.075357 288.709311 217.218077 282.022778 
C 233.360796 275.336244 248.029447 265.534965 260.38455 253.179862 
C 272.739653 240.82476 282.540932 226.156109 289.227465 210.013389 
C 295.913998 193.87067 299.35575 176.567816 299.35575 159.095062 
M 166.29975 159.095062 
C 166.29975 159.095062 166.29975 159.095062 166.29975 159.095062 
C 166.29975 159.095062 166.29975 159.095062 166.29975 159.095062 
C 166.29975 159.095062 166.29975 159.095062 166.29975 159.095062 
C 166.29975 159.095062 166.29975 159.095062 166.29975 159.095062 
C 166.29975 159.095062 166.29975 159.095062 166.29975 159.095062 
C 166.29975 159.095062 166.29975 159.095062 166.29975 159.095062 
C 166.29975 159.095062 166.29975 159.095062 166.29975 159.095062 
C 166.29975 159.095062 166.29975 159.095062 166.29975 159.095062 
C 166.29975 159.095062 166.29975 159.095062 166.29975 159.095062 
C 166.29975 159.095062 166.29975 159.095062 166.29975 159.095062 
C 166.29975 159.095062 166.29975 159.095062 166.29975 159.095062 
C 166.29975 159.095062 166.29975 159.095062 166.29975 159.095062 
C 166.29975 159.095062 166.29975 159.095062 166.29975 159.095062 
C 166.29975 159.095062 166.29975 159.095062 166.29975 159.095062 
C 166.29975 159.095062 166.29975 159.095062 166.29975 159.095062 
C 166.29975 159.095062 166.29975 159.095062 166.29975 159.095062 
M 299.35575 159.095062 
z
" style="fill: #ffffff"/>
   </g>
   <g id="matplotlib.axis_1">
    <g id="xtick_1">
     <g id="line2d_1">
      <path d="M 166.29975 159.095062 
L 299.35575 159.095062 
" clip-path="url(#p10c9d60a8b)" style="fill: none; stroke: #b0b0b0; stroke-width: 0.8; stroke-linecap: square"/>
     </g>
     <g id="text_1">
      <!-- 0° -->
      <g transform="translate(307.6745 161.854437) scale(0.1 -0.1)">
       <defs>
        <path id="DejaVuSerif-30" d="M 2034 219 
Q 2513 219 2750 744 
Q 2988 1269 2988 2328 
Q 2988 3391 2750 3916 
Q 2513 4441 2034 4441 
Q 1556 4441 1318 3916 
Q 1081 3391 1081 2328 
Q 1081 1269 1318 744 
Q 1556 219 2034 219 
z
M 2034 -91 
Q 1275 -91 848 546 
Q 422 1184 422 2328 
Q 422 3475 848 4112 
Q 1275 4750 2034 4750 
Q 2797 4750 3222 4112 
Q 3647 3475 3647 2328 
Q 3647 1184 3222 546 
Q 2797 -91 2034 -91 
z
" transform="scale(0.015625)"/>
        <path id="DejaVuSerif-b0" d="M 1600 4319 
Q 1363 4319 1200 4155 
Q 1038 3991 1038 3750 
Q 1038 3513 1198 3353 
Q 1359 3194 1600 3194 
Q 1838 3194 2000 3355 
Q 2163 3516 2163 3750 
Q 2163 3984 1997 4151 
Q 1831 4319 1600 4319 
z
M 1600 4750 
Q 1800 4750 1984 4673 
Q 2169 4597 2303 4453 
Q 2447 4313 2519 4134 
Q 2591 3956 2591 3750 
Q 2591 3338 2302 3052 
Q 2013 2766 1594 2766 
Q 1172 2766 890 3047 
Q 609 3328 609 3750 
Q 609 4169 896 4459 
Q 1184 4750 1600 4750 
z
" transform="scale(0.015625)"/>
       </defs>
       <use xlink:href="#DejaVuSerif-30"/>
       <use xlink:href="#DejaVuSerif-b0" x="63.623047"/>
      </g>
     </g>
    </g>
    <g id="xtick_2">
     <g id="line2d_2">
      <path d="M 166.29975 159.095062 
L 260.38455 65.010263 
" clip-path="url(#p10c9d60a8b)" style="fill: none; stroke: #b0b0b0; stroke-width: 0.8; stroke-linecap: square"/>
     </g>
     <g id="text_2">
      <!-- 45° -->
      <g transform="translate(261.421545 57.870143) scale(0.1 -0.1)">
       <defs>
        <path id="DejaVuSerif-34" d="M 2234 1581 
L 2234 4063 
L 641 1581 
L 2234 1581 
z
M 3609 0 
L 1484 0 
L 1484 331 
L 2234 331 
L 2234 1247 
L 197 1247 
L 197 1588 
L 2241 4750 
L 2859 4750 
L 2859 1581 
L 3750 1581 
L 3750 1247 
L 2859 1247 
L 2859 331 
L 3609 331 
L 3609 0 
z
" transform="scale(0.015625)"/>
        <path id="DejaVuSerif-35" d="M 3219 4666 
L 3219 4153 
L 1081 4153 
L 1081 2816 
Q 1244 2928 1461 2984 
Q 1678 3041 1947 3041 
Q 2703 3041 3140 2622 
Q 3578 2203 3578 1478 
Q 3578 738 3136 323 
Q 2694 -91 1894 -91 
Q 1572 -91 1234 -12 
Q 897 66 544 225 
L 544 1131 
L 897 1131 
Q 925 688 1179 453 
Q 1434 219 1894 219 
Q 2388 219 2653 544 
Q 2919 869 2919 1478 
Q 2919 2084 2655 2407 
Q 2391 2731 1894 2731 
Q 1613 2731 1398 2631 
Q 1184 2531 1019 2322 
L 750 2322 
L 750 4666 
L 3219 4666 
z
" transform="scale(0.015625)"/>
       </defs>
       <use xlink:href="#DejaVuSerif-34"/>
       <use xlink:href="#DejaVuSerif-35" x="63.623047"/>
       <use xlink:href="#DejaVuSerif-b0" x="127.246094"/>
      </g>
     </g>
    </g>
    <g id="xtick_3">
     <g id="line2d_3">
      <path d="M 166.29975 159.095062 
L 166.29975 26.039062 
" clip-path="url(#p10c9d60a8b)" style="fill: none; stroke: #b0b0b0; stroke-width: 0.8; stroke-linecap: square"/>
     </g>
     <g id="text_3">
      <!-- 90° -->
      <g transform="translate(157.43725 14.798437) scale(0.1 -0.1)">
       <defs>
        <path id="DejaVuSerif-39" d="M 2994 2091 
Q 2784 1856 2512 1740 
Q 2241 1625 1900 1625 
Q 1206 1625 804 2044 
Q 403 2463 403 3188 
Q 403 3897 839 4323 
Q 1275 4750 2003 4750 
Q 2794 4750 3217 4161 
Q 3641 3572 3641 2478 
Q 3641 1253 3137 581 
Q 2634 -91 1722 -91 
Q 1475 -91 1203 -44 
Q 931 3 647 97 
L 647 872 
L 997 872 
Q 1038 556 1241 387 
Q 1444 219 1784 219 
Q 2391 219 2687 676 
Q 2984 1134 2994 2091 
z
M 1978 4441 
Q 1534 4441 1298 4117 
Q 1063 3794 1063 3188 
Q 1063 2581 1298 2256 
Q 1534 1931 1978 1931 
Q 2422 1931 2658 2245 
Q 2894 2559 2894 3150 
Q 2894 3772 2656 4106 
Q 2419 4441 1978 4441 
z
" transform="scale(0.015625)"/>
       </defs>
       <use xlink:href="#DejaVuSerif-39"/>
       <use xlink:href="#DejaVuSerif-30" x="63.623047"/>
       <use xlink:href="#DejaVuSerif-b0" x="127.246094"/>
      </g>
     </g>
    </g>
    <g id="xtick_4">
     <g id="line2d_4">
      <path d="M 166.29975 159.095062 
L 72.21495 65.010263 
" clip-path="url(#p10c9d60a8b)" style="fill: none; stroke: #b0b0b0; stroke-width: 0.8; stroke-linecap: square"/>
     </g>
     <g id="text_4">
      <!-- 135° -->
      <g transform="translate(50.271705 57.870143) scale(0.1 -0.1)">
       <defs>
        <path id="DejaVuSerif-31" d="M 909 0 
L 909 331 
L 1722 331 
L 1722 4213 
L 781 3603 
L 781 4013 
L 1919 4750 
L 2350 4750 
L 2350 331 
L 3163 331 
L 3163 0 
L 909 0 
z
" transform="scale(0.015625)"/>
        <path id="DejaVuSerif-33" d="M 622 4469 
Q 988 4606 1323 4678 
Q 1659 4750 1953 4750 
Q 2638 4750 3022 4454 
Q 3406 4159 3406 3634 
Q 3406 3213 3140 2930 
Q 2875 2647 2388 2547 
Q 2963 2466 3280 2130 
Q 3597 1794 3597 1259 
Q 3597 606 3158 257 
Q 2719 -91 1894 -91 
Q 1528 -91 1179 -12 
Q 831 66 488 225 
L 488 1131 
L 838 1131 
Q 869 681 1141 450 
Q 1413 219 1906 219 
Q 2384 219 2661 495 
Q 2938 772 2938 1253 
Q 2938 1803 2653 2086 
Q 2369 2369 1819 2369 
L 1522 2369 
L 1522 2688 
L 1678 2688 
Q 2225 2688 2498 2914 
Q 2772 3141 2772 3597 
Q 2772 4006 2547 4223 
Q 2322 4441 1900 4441 
Q 1478 4441 1245 4241 
Q 1013 4041 972 3647 
L 622 3647 
L 622 4469 
z
" transform="scale(0.015625)"/>
       </defs>
       <use xlink:href="#DejaVuSerif-31"/>
       <use xlink:href="#DejaVuSerif-33" x="63.623047"/>
       <use xlink:href="#DejaVuSerif-35" x="127.246094"/>
       <use xlink:href="#DejaVuSerif-b0" x="190.869141"/>
      </g>
     </g>
    </g>
    <g id="xtick_5">
     <g id="line2d_5">
      <path d="M 166.29975 159.095062 
L 33.24375 159.095062 
" clip-path="url(#p10c9d60a8b)" style="fill: none; stroke: #b0b0b0; stroke-width: 0.8; stroke-linecap: square"/>
     </g>
     <g id="text_5">
      <!-- 180° -->
      <g transform="translate(7.2 161.854437) scale(0.1 -0.1)">
       <defs>
        <path id="DejaVuSerif-38" d="M 2981 1275 
Q 2981 1775 2732 2051 
Q 2484 2328 2034 2328 
Q 1584 2328 1336 2051 
Q 1088 1775 1088 1275 
Q 1088 772 1336 495 
Q 1584 219 2034 219 
Q 2484 219 2732 495 
Q 2981 772 2981 1275 
z
M 2853 3541 
Q 2853 3966 2637 4203 
Q 2422 4441 2034 4441 
Q 1650 4441 1433 4203 
Q 1216 3966 1216 3541 
Q 1216 3113 1433 2875 
Q 1650 2638 2034 2638 
Q 2422 2638 2637 2875 
Q 2853 3113 2853 3541 
z
M 2516 2484 
Q 3047 2413 3344 2092 
Q 3641 1772 3641 1275 
Q 3641 619 3225 264 
Q 2809 -91 2034 -91 
Q 1263 -91 845 264 
Q 428 619 428 1275 
Q 428 1772 725 2092 
Q 1022 2413 1556 2484 
Q 1084 2569 832 2842 
Q 581 3116 581 3541 
Q 581 4103 968 4426 
Q 1356 4750 2034 4750 
Q 2713 4750 3100 4426 
Q 3488 4103 3488 3541 
Q 3488 3116 3236 2842 
Q 2984 2569 2516 2484 
z
" transform="scale(0.015625)"/>
       </defs>
       <use xlink:href="#DejaVuSerif-31"/>
       <use xlink:href="#DejaVuSerif-38" x="63.623047"/>
       <use xlink:href="#DejaVuSerif-30" x="127.246094"/>
       <use xlink:href="#DejaVuSerif-b0" x="190.869141"/>
      </g>
     </g>
    </g>
    <g id="xtick_6">
     <g id="line2d_6">
      <path d="M 166.29975 159.095062 
L 72.21495 253.179862 
" clip-path="url(#p10c9d60a8b)" style="fill: none; stroke: #b0b0b0; stroke-width: 0.8; stroke-linecap: square"/>
     </g>
     <g id="text_6">
      <!-- 225° -->
      <g transform="translate(50.271705 265.838732) scale(0.1 -0.1)">
       <defs>
        <path id="DejaVuSerif-32" d="M 819 3553 
L 469 3553 
L 469 4384 
Q 803 4563 1142 4656 
Q 1481 4750 1806 4750 
Q 2534 4750 2956 4397 
Q 3378 4044 3378 3438 
Q 3378 2753 2422 1800 
Q 2347 1728 2309 1691 
L 1131 513 
L 3078 513 
L 3078 1088 
L 3444 1088 
L 3444 0 
L 434 0 
L 434 341 
L 1850 1753 
Q 2319 2222 2519 2614 
Q 2719 3006 2719 3438 
Q 2719 3909 2473 4175 
Q 2228 4441 1797 4441 
Q 1350 4441 1106 4219 
Q 863 3997 819 3553 
z
" transform="scale(0.015625)"/>
       </defs>
       <use xlink:href="#DejaVuSerif-32"/>
       <use xlink:href="#DejaVuSerif-32" x="63.623047"/>
       <use xlink:href="#DejaVuSerif-35" x="127.246094"/>
       <use xlink:href="#DejaVuSerif-b0" x="190.869141"/>
      </g>
     </g>
    </g>
    <g id="xtick_7">
     <g id="line2d_7">
      <path d="M 166.29975 159.095062 
L 166.29975 292.151062 
" clip-path="url(#p10c9d60a8b)" style="fill: none; stroke: #b0b0b0; stroke-width: 0.8; stroke-linecap: square"/>
     </g>
     <g id="text_7">
      <!-- 270° -->
      <g transform="translate(154.256 308.910437) scale(0.1 -0.1)">
       <defs>
        <path id="DejaVuSerif-37" d="M 3609 4347 
L 1784 0 
L 1319 0 
L 3059 4153 
L 903 4153 
L 903 3578 
L 538 3578 
L 538 4666 
L 3609 4666 
L 3609 4347 
z
" transform="scale(0.015625)"/>
       </defs>
       <use xlink:href="#DejaVuSerif-32"/>
       <use xlink:href="#DejaVuSerif-37" x="63.623047"/>
       <use xlink:href="#DejaVuSerif-30" x="127.246094"/>
       <use xlink:href="#DejaVuSerif-b0" x="190.869141"/>
      </g>
     </g>
    </g>
    <g id="xtick_8">
     <g id="line2d_8">
      <path d="M 166.29975 159.095062 
L 260.38455 253.179862 
" clip-path="url(#p10c9d60a8b)" style="fill: none; stroke: #b0b0b0; stroke-width: 0.8; stroke-linecap: square"/>
     </g>
     <g id="text_8">
      <!-- 315° -->
      <g transform="translate(258.240295 265.838732) scale(0.1 -0.1)">
       <use xlink:href="#DejaVuSerif-33"/>
       <use xlink:href="#DejaVuSerif-31" x="63.623047"/>
       <use xlink:href="#DejaVuSerif-35" x="127.246094"/>
       <use xlink:href="#DejaVuSerif-b0" x="190.869141"/>
      </g>
     </g>
    </g>
   </g>
   <g id="matplotlib.axis_2">
    <g id="ytick_1">
     <g id="line2d_9">
      <path d="M 166.29975 159.095062 
C 166.29975 159.095062 166.29975 159.095062 166.29975 159.095062 
C 166.29975 159.095062 166.29975 159.095062 166.29975 159.095062 
C 166.29975 159.095062 166.29975 159.095062 166.29975 159.095062 
C 166.29975 159.095062 166.29975 159.095062 166.29975 159.095062 
C 166.29975 159.095062 166.29975 159.095062 166.29975 159.095062 
C 166.29975 159.095062 166.29975 159.095062 166.29975 159.095062 
C 166.29975 159.095062 166.29975 159.095062 166.29975 159.095062 
C 166.29975 159.095062 166.29975 159.095062 166.29975 159.095062 
C 166.29975 159.095062 166.29975 159.095062 166.29975 159.095062 
C 166.29975 159.095062 166.29975 159.095062 166.29975 159.095062 
C 166.29975 159.095062 166.29975 159.095062 166.29975 159.095062 
C 166.29975 159.095062 166.29975 159.095062 166.29975 159.095062 
C 166.29975 159.095062 166.29975 159.095062 166.29975 159.095062 
C 166.29975 159.095062 166.29975 159.095062 166.29975 159.095062 
C 166.29975 159.095062 166.29975 159.095062 166.29975 159.095062 
C 166.29975 159.095062 166.29975 159.095062 166.29975 159.095062 
" clip-path="url(#p10c9d60a8b)" style="fill: none; stroke: #b0b0b0; stroke-width: 0.8; stroke-linecap: square"/>
     </g>
     <g id="text_9">
      <!-- $4mm$ -->
      <g transform="translate(166.29975 157.015375) scale(0.1 -0.1)">
       <defs>
        <path id="DejaVuSans-34" d="M 2419 4116 
L 825 1625 
L 2419 1625 
L 2419 4116 
z
M 2253 4666 
L 3047 4666 
L 3047 1625 
L 3713 1625 
L 3713 1100 
L 3047 1100 
L 3047 0 
L 2419 0 
L 2419 1100 
L 313 1100 
L 313 1709 
L 2253 4666 
z
" transform="scale(0.015625)"/>
        <path id="DejaVuSans-Oblique-6d" d="M 5747 2113 
L 5338 0 
L 4763 0 
L 5166 2094 
Q 5191 2228 5203 2325 
Q 5216 2422 5216 2491 
Q 5216 2772 5059 2928 
Q 4903 3084 4622 3084 
Q 4203 3084 3875 2770 
Q 3547 2456 3450 1953 
L 3066 0 
L 2491 0 
L 2900 2094 
Q 2925 2209 2937 2307 
Q 2950 2406 2950 2484 
Q 2950 2769 2794 2926 
Q 2638 3084 2363 3084 
Q 1938 3084 1609 2770 
Q 1281 2456 1184 1953 
L 800 0 
L 225 0 
L 909 3500 
L 1484 3500 
L 1375 2956 
Q 1609 3263 1923 3423 
Q 2238 3584 2597 3584 
Q 2978 3584 3223 3384 
Q 3469 3184 3519 2828 
Q 3781 3197 4126 3390 
Q 4472 3584 4856 3584 
Q 5306 3584 5551 3325 
Q 5797 3066 5797 2591 
Q 5797 2488 5784 2364 
Q 5772 2241 5747 2113 
z
" transform="scale(0.015625)"/>
       </defs>
       <use xlink:href="#DejaVuSans-34" transform="translate(0 0.09375)"/>
       <use xlink:href="#DejaVuSans-Oblique-6d" transform="translate(63.623047 0.09375)"/>
       <use xlink:href="#DejaVuSans-Oblique-6d" transform="translate(161.035156 0.09375)"/>
      </g>
     </g>
    </g>
    <g id="ytick_2">
     <g id="line2d_10">
      <path d="M 199.56375 159.095062 
C 199.56375 154.726874 198.703312 150.401161 197.031679 146.365481 
C 195.360045 142.329801 192.909726 138.662638 189.82095 135.573863 
C 186.732174 132.485087 183.065012 130.034767 179.029332 128.363134 
C 174.993652 126.6915 170.667938 125.831062 166.29975 125.831062 
C 161.931562 125.831062 157.605848 126.6915 153.570168 128.363134 
C 149.534488 130.034767 145.867326 132.485087 142.77855 135.573863 
C 139.689774 138.662638 137.239455 142.329801 135.567821 146.365481 
C 133.896188 150.401161 133.03575 154.726874 133.03575 159.095062 
C 133.03575 163.463251 133.896188 167.788964 135.567821 171.824644 
C 137.239455 175.860324 139.689774 179.527487 142.77855 182.616262 
C 145.867326 185.705038 149.534488 188.155358 153.570168 189.826991 
C 157.605848 191.498625 161.931562 192.359062 166.29975 192.359062 
C 170.667938 192.359062 174.993652 191.498625 179.029332 189.826991 
C 183.065012 188.155358 186.732174 185.705038 189.82095 182.616262 
C 192.909726 179.527487 195.360045 175.860324 197.031679 171.824644 
C 198.703312 167.788964 199.56375 163.463251 199.56375 159.095062 
" clip-path="url(#p10c9d60a8b)" style="fill: none; stroke: #b0b0b0; stroke-width: 0.8; stroke-linecap: square"/>
     </g>
     <g id="text_10">
      <!-- $5mm$ -->
      <g transform="translate(142.77855 133.494175) scale(0.1 -0.1)">
       <defs>
        <path id="DejaVuSans-35" d="M 691 4666 
L 3169 4666 
L 3169 4134 
L 1269 4134 
L 1269 2991 
Q 1406 3038 1543 3061 
Q 1681 3084 1819 3084 
Q 2600 3084 3056 2656 
Q 3513 2228 3513 1497 
Q 3513 744 3044 326 
Q 2575 -91 1722 -91 
Q 1428 -91 1123 -41 
Q 819 9 494 109 
L 494 744 
Q 775 591 1075 516 
Q 1375 441 1709 441 
Q 2250 441 2565 725 
Q 2881 1009 2881 1497 
Q 2881 1984 2565 2268 
Q 2250 2553 1709 2553 
Q 1456 2553 1204 2497 
Q 953 2441 691 2322 
L 691 4666 
z
" transform="scale(0.015625)"/>
       </defs>
       <use xlink:href="#DejaVuSans-35" transform="translate(0 0.09375)"/>
       <use xlink:href="#DejaVuSans-Oblique-6d" transform="translate(58.123047 0.09375)"/>
       <use xlink:href="#DejaVuSans-Oblique-6d" transform="translate(155.535156 0.09375)"/>
      </g>
     </g>
    </g>
    <g id="ytick_3">
     <g id="line2d_11">
      <path d="M 232.82775 159.095062 
C 232.82775 150.358686 231.106874 141.707259 227.763608 133.635899 
C 224.420341 125.564539 219.519701 118.230214 213.34215 112.052663 
C 207.164599 105.875111 199.830273 100.974472 191.758913 97.631205 
C 183.687554 94.287938 175.036127 92.567062 166.29975 92.567062 
C 157.563373 92.567062 148.911946 94.287938 140.840587 97.631205 
C 132.769227 100.974472 125.434901 105.875111 119.25735 112.052663 
C 113.079799 118.230214 108.179159 125.564539 104.835892 133.635899 
C 101.492626 141.707259 99.77175 150.358686 99.77175 159.095062 
C 99.77175 167.831439 101.492626 176.482866 104.835892 184.554226 
C 108.179159 192.625586 113.079799 199.959911 119.25735 206.137462 
C 125.434901 212.315014 132.769227 217.215653 140.840587 220.55892 
C 148.911946 223.902187 157.563373 225.623062 166.29975 225.623062 
C 175.036127 225.623062 183.687554 223.902187 191.758913 220.55892 
C 199.830273 217.215653 207.164599 212.315014 213.34215 206.137462 
C 219.519701 199.959911 224.420341 192.625586 227.763608 184.554226 
C 231.106874 176.482866 232.82775 167.831439 232.82775 159.095062 
" clip-path="url(#p10c9d60a8b)" style="fill: none; stroke: #b0b0b0; stroke-width: 0.8; stroke-linecap: square"/>
     </g>
     <g id="text_11">
      <!-- $6mm$ -->
      <g transform="translate(119.25735 109.972975) scale(0.1 -0.1)">
       <defs>
        <path id="DejaVuSans-36" d="M 2113 2584 
Q 1688 2584 1439 2293 
Q 1191 2003 1191 1497 
Q 1191 994 1439 701 
Q 1688 409 2113 409 
Q 2538 409 2786 701 
Q 3034 994 3034 1497 
Q 3034 2003 2786 2293 
Q 2538 2584 2113 2584 
z
M 3366 4563 
L 3366 3988 
Q 3128 4100 2886 4159 
Q 2644 4219 2406 4219 
Q 1781 4219 1451 3797 
Q 1122 3375 1075 2522 
Q 1259 2794 1537 2939 
Q 1816 3084 2150 3084 
Q 2853 3084 3261 2657 
Q 3669 2231 3669 1497 
Q 3669 778 3244 343 
Q 2819 -91 2113 -91 
Q 1303 -91 875 529 
Q 447 1150 447 2328 
Q 447 3434 972 4092 
Q 1497 4750 2381 4750 
Q 2619 4750 2861 4703 
Q 3103 4656 3366 4563 
z
" transform="scale(0.015625)"/>
       </defs>
       <use xlink:href="#DejaVuSans-36" transform="translate(0 0.78125)"/>
       <use xlink:href="#DejaVuSans-Oblique-6d" transform="translate(63.623047 0.78125)"/>
       <use xlink:href="#DejaVuSans-Oblique-6d" transform="translate(161.035156 0.78125)"/>
      </g>
     </g>
    </g>
    <g id="ytick_4">
     <g id="line2d_12">
      <path d="M 266.09175 159.095062 
C 266.09175 145.990497 263.510436 133.013357 258.495536 120.906317 
C 253.480636 108.799278 246.129677 97.79779 236.86335 88.531463 
C 227.597023 79.265136 216.595535 71.914176 204.488495 66.899276 
C 192.381455 61.884376 179.404315 59.303062 166.29975 59.303062 
C 153.195185 59.303062 140.218045 61.884376 128.111005 66.899276 
C 116.003965 71.914176 105.002477 79.265136 95.73615 88.531463 
C 86.469823 97.79779 79.118864 108.799278 74.103964 120.906317 
C 69.089064 133.013357 66.50775 145.990497 66.50775 159.095062 
C 66.50775 172.199628 69.089064 185.176768 74.103964 197.283808 
C 79.118864 209.390847 86.469823 220.392335 95.73615 229.658662 
C 105.002477 238.924989 116.003965 246.275949 128.111005 251.290849 
C 140.218045 256.305749 153.195185 258.887062 166.29975 258.887062 
C 179.404315 258.887062 192.381455 256.305749 204.488495 251.290849 
C 216.595535 246.275949 227.597023 238.924989 236.86335 229.658662 
C 246.129677 220.392335 253.480636 209.390847 258.495536 197.283808 
C 263.510436 185.176768 266.09175 172.199628 266.09175 159.095062 
" clip-path="url(#p10c9d60a8b)" style="fill: none; stroke: #b0b0b0; stroke-width: 0.8; stroke-linecap: square"/>
     </g>
     <g id="text_12">
      <!-- $7mm$ -->
      <g transform="translate(95.73615 86.451775) scale(0.1 -0.1)">
       <defs>
        <path id="DejaVuSans-37" d="M 525 4666 
L 3525 4666 
L 3525 4397 
L 1831 0 
L 1172 0 
L 2766 4134 
L 525 4134 
L 525 4666 
z
" transform="scale(0.015625)"/>
       </defs>
       <use xlink:href="#DejaVuSans-37" transform="translate(0 0.09375)"/>
       <use xlink:href="#DejaVuSans-Oblique-6d" transform="translate(54.498047 0.09375)"/>
       <use xlink:href="#DejaVuSans-Oblique-6d" transform="translate(151.910156 0.09375)"/>
      </g>
     </g>
    </g>
   </g>
   <g id="patch_3">
    <path d="M 299.35575 159.095062 
C 299.35575 141.622309 295.913998 124.319455 289.227465 108.176736 
C 282.540932 92.034016 272.739653 77.365365 260.38455 65.010263 
C 248.029447 52.65516 233.360796 42.853881 217.218077 36.167347 
C 201.075357 29.480814 183.772504 26.039062 166.29975 26.039062 
C 148.826996 26.039062 131.524143 29.480814 115.381423 36.167347 
C 99.238704 42.853881 84.570053 52.65516 72.21495 65.010263 
C 59.859847 77.365365 50.058568 92.034016 43.372035 108.176736 
C 36.685502 124.319455 33.24375 141.622309 33.24375 159.095062 
C 33.24375 176.567816 36.685502 193.87067 43.372035 210.013389 
C 50.058568 226.156109 59.859847 240.82476 72.21495 253.179862 
C 84.570053 265.534965 99.238704 275.336244 115.381423 282.022778 
C 131.524143 288.709311 148.826996 292.151062 166.29975 292.151062 
C 183.772504 292.151062 201.075357 288.709311 217.218077 282.022778 
C 233.360796 275.336244 248.029447 265.534965 260.38455 253.179862 
C 272.739653 240.82476 282.540932 226.156109 289.227465 210.013389 
C 295.913998 193.87067 299.35575 176.567816 299.35575 159.095062 
" style="fill: none; stroke: #000000; stroke-width: 0.8; stroke-linejoin: miter; stroke-linecap: square"/>
   </g>
   <g id="line2d_13">
    <path d="M 246.093549 144.017868 
L 254.835118 123.324452 
L 252.168769 102.804366 
L 242.877597 83.859297 
L 230.46731 64.887725 
L 212.308568 50.776047 
L 189.72198 46.650774 
L 167.411839 36.563849 
L 144.041344 41.593688 
L 121.609472 48.332495 
L 99.559556 57.181075 
L 78.536865 69.682389 
L 61.426966 87.590562 
L 51.095939 110.097812 
L 45.936353 133.964089 
L 45.425269 157.941045 
L 50.878421 180.903106 
L 58.749711 202.431325 
L 72.044698 220.757395 
L 88.854408 235.039807 
L 107.943194 244.599291 
L 127.773431 249.563103 
L 147.600981 248.441312 
L 165.452975 243.616031 
L 182.074034 242.79829 
L 197.149648 235.761187 
L 208.1467 223.126803 
L 211.184159 204.909513 
L 206.165616 186.331025 
L 204.248028 175.276678 
L 212.840676 168.858243 
L 229.592914 159.758444 
L 246.093549 144.017868 
" clip-path="url(#p10c9d60a8b)" style="fill: none; stroke: #000000; stroke-linecap: square"/>
   </g>
   <g id="PathCollection_1">
    <defs>
     <path id="m45a343f147" d="M 0 3.872983 
C 1.027127 3.872983 2.012324 3.464901 2.738613 2.738613 
C 3.464901 2.012324 3.872983 1.027127 3.872983 0 
C 3.872983 -1.027127 3.464901 -2.012324 2.738613 -2.738613 
C 2.012324 -3.464901 1.027127 -3.872983 0 -3.872983 
C -1.027127 -3.872983 -2.012324 -3.464901 -2.738613 -2.738613 
C -3.464901 -2.012324 -3.872983 -1.027127 -3.872983 0 
C -3.872983 1.027127 -3.464901 2.012324 -2.738613 2.738613 
C -2.012324 3.464901 -1.027127 3.872983 0 3.872983 
z
" style="stroke: #ffffff"/>
    </defs>
    <g clip-path="url(#p10c9d60a8b)">
     <use xlink:href="#m45a343f147" x="246.093549" y="144.017868" style="fill: #ffffff; stroke: #ffffff"/>
     <use xlink:href="#m45a343f147" x="254.835118" y="123.324452" style="fill: #ffffff; stroke: #ffffff"/>
     <use xlink:href="#m45a343f147" x="252.168769" y="102.804366" style="fill: #ffffff; stroke: #ffffff"/>
     <use xlink:href="#m45a343f147" x="242.877597" y="83.859297" style="fill: #ffffff; stroke: #ffffff"/>
     <use xlink:href="#m45a343f147" x="230.46731" y="64.887725" style="fill: #ffffff; stroke: #ffffff"/>
     <use xlink:href="#m45a343f147" x="212.308568" y="50.776047" style="fill: #ffffff; stroke: #ffffff"/>
     <use xlink:href="#m45a343f147" x="189.72198" y="46.650774" style="fill: #ffffff; stroke: #ffffff"/>
     <use xlink:href="#m45a343f147" x="167.411839" y="36.563849" style="fill: #ffffff; stroke: #ffffff"/>
     <use xlink:href="#m45a343f147" x="144.041344" y="41.593688" style="fill: #ffffff; stroke: #ffffff"/>
     <use xlink:href="#m45a343f147" x="121.609472" y="48.332495" style="fill: #ffffff; stroke: #ffffff"/>
     <use xlink:href="#m45a343f147" x="99.559556" y="57.181075" style="fill: #ffffff; stroke: #ffffff"/>
     <use xlink:href="#m45a343f147" x="78.536865" y="69.682389" style="fill: #ffffff; stroke: #ffffff"/>
     <use xlink:href="#m45a343f147" x="61.426966" y="87.590562" style="fill: #ffffff; stroke: #ffffff"/>
     <use xlink:href="#m45a343f147" x="51.095939" y="110.097812" style="fill: #ffffff; stroke: #ffffff"/>
     <use xlink:href="#m45a343f147" x="45.936353" y="133.964089" style="fill: #ffffff; stroke: #ffffff"/>
     <use xlink:href="#m45a343f147" x="45.425269" y="157.941045" style="fill: #ffffff; stroke: #ffffff"/>
     <use xlink:href="#m45a343f147" x="50.878421" y="180.903106" style="fill: #ffffff; stroke: #ffffff"/>
     <use xlink:href="#m45a343f147" x="58.749711" y="202.431325" style="fill: #ffffff; stroke: #ffffff"/>
     <use xlink:href="#m45a343f147" x="72.044698" y="220.757395" style="fill: #ffffff; stroke: #ffffff"/>
     <use xlink:href="#m45a343f147" x="88.854408" y="235.039807" style="fill: #ffffff; stroke: #ffffff"/>
     <use xlink:href="#m45a343f147" x="107.943194" y="244.599291" style="fill: #ffffff; stroke: #ffffff"/>
     <use xlink:href="#m45a343f147" x="127.773431" y="249.563103" style="fill: #ffffff; stroke: #ffffff"/>
     <use xlink:href="#m45a343f147" x="147.600981" y="248.441312" style="fill: #ffffff; stroke: #ffffff"/>
     <use xlink:href="#m45a343f147" x="165.452975" y="243.616031" style="fill: #ffffff; stroke: #ffffff"/>
     <use xlink:href="#m45a343f147" x="182.074034" y="242.79829" style="fill: #ffffff; stroke: #ffffff"/>
     <use xlink:href="#m45a343f147" x="197.149648" y="235.761187" style="fill: #ffffff; stroke: #ffffff"/>
     <use xlink:href="#m45a343f147" x="208.1467" y="223.126803" style="fill: #ffffff; stroke: #ffffff"/>
     <use xlink:href="#m45a343f147" x="211.184159" y="204.909513" style="fill: #ffffff; stroke: #ffffff"/>
     <use xlink:href="#m45a343f147" x="206.165616" y="186.331025" style="fill: #ffffff; stroke: #ffffff"/>
     <use xlink:href="#m45a343f147" x="204.248028" y="175.276678" style="fill: #ffffff; stroke: #ffffff"/>
     <use xlink:href="#m45a343f147" x="212.840676" y="168.858243" style="fill: #ffffff; stroke: #ffffff"/>
     <use xlink:href="#m45a343f147" x="229.592914" y="159.758444" style="fill: #ffffff; stroke: #ffffff"/>
    </g>
   </g>
   <g id="PolyCollection_1">
    <defs>
     <path id="m7913c0ecd3" d="M 252.376235 -175.359383 
L 239.810863 -172.985132 
L 251.206091 -193.399451 
L 251.024863 -214.635881 
L 241.151921 -232.635396 
L 229.201767 -251.444397 
L 212.139258 -267.015469 
L 188.376051 -265.077882 
L 167.379802 -278.096407 
L 144.702987 -273.103644 
L 122.943982 -266.550117 
L 101.537705 -257.988367 
L 80.964092 -246.034881 
L 64.324114 -228.624226 
L 54.436018 -206.671746 
L 49.290787 -183.525655 
L 48.920581 -160.21571 
L 53.952385 -137.867823 
L 61.74535 -116.965865 
L 74.692942 -99.16523 
L 91.124705 -85.376624 
L 109.605978 -76.027151 
L 129.035306 -71.590173 
L 148.23761 -72.790749 
L 165.46836 -76.109841 
L 181.878142 -76.431297 
L 196.595722 -83.805517 
L 205.93228 -98.451696 
L 207.396131 -117.147132 
L 202.238603 -134.541996 
L 203.767497 -143.118352 
L 208.546408 -150.232717 
L 223.380511 -158.496794 
L 239.810863 -172.985132 
L 252.376235 -175.359383 
L 252.376235 -175.359383 
L 235.805316 -158.366569 
L 217.134943 -148.431046 
L 204.728559 -142.708543 
L 210.092629 -129.176204 
L 214.972187 -109.414093 
L 210.36112 -91.674947 
L 197.703574 -81.052358 
L 182.269925 -74.352374 
L 165.437589 -73.038348 
L 146.964352 -66.706878 
L 126.511556 -65.66387 
L 106.280409 -71.154516 
L 86.584112 -80.924012 
L 69.396455 -95.70023 
L 55.754071 -114.551736 
L 47.804458 -136.706216 
L 41.929957 -160.282451 
L 42.581918 -184.926417 
L 47.755859 -209.51288 
L 58.529818 -232.5749 
L 76.109638 -250.98059 
L 97.581408 -264.029733 
L 120.274963 -273.165143 
L 143.3797 -280.08923 
L 167.443876 -285.156145 
L 191.067909 -278.00082 
L 212.477878 -267.812686 
L 231.732854 -255.160402 
L 244.603273 -236.026261 
L 253.312675 -216.135636 
L 258.464144 -196.331895 
L 252.376235 -175.359383 
z
" style="stroke: #000000; stroke-opacity: 0.4"/>
    </defs>
    <g clip-path="url(#p10c9d60a8b)">
     <use xlink:href="#m7913c0ecd3" x="0" y="318.190125" style="fill-opacity: 0.4; stroke: #000000; stroke-opacity: 0.4"/>
    </g>
   </g>
   <g id="PathCollection_2">
    <defs>
     <path id="m4e75bfa3f4" d="M 0 2.5 
C 0.663008 2.5 1.29895 2.236584 1.767767 1.767767 
C 2.236584 1.29895 2.5 0.663008 2.5 0 
C 2.5 -0.663008 2.236584 -1.29895 1.767767 -1.767767 
C 1.29895 -2.236584 0.663008 -2.5 0 -2.5 
C -0.663008 -2.5 -1.29895 -2.236584 -1.767767 -1.767767 
C -2.236584 -1.29895 -2.5 -0.663008 -2.5 0 
C -2.5 0.663008 -2.236584 1.29895 -1.767767 1.767767 
C -1.29895 2.236584 -0.663008 2.5 0 2.5 
z
" style="stroke: #000000"/>
    </defs>
    <g clip-path="url(#p10c9d60a8b)">
     <use xlink:href="#m4e75bfa3f4" x="246.093549" y="144.017868" style="stroke: #000000"/>
     <use xlink:href="#m4e75bfa3f4" x="254.835118" y="123.324452" style="stroke: #000000"/>
     <use xlink:href="#m4e75bfa3f4" x="252.168769" y="102.804366" style="stroke: #000000"/>
     <use xlink:href="#m4e75bfa3f4" x="242.877597" y="83.859297" style="stroke: #000000"/>
     <use xlink:href="#m4e75bfa3f4" x="230.46731" y="64.887725" style="stroke: #000000"/>
     <use xlink:href="#m4e75bfa3f4" x="212.308568" y="50.776047" style="stroke: #000000"/>
     <use xlink:href="#m4e75bfa3f4" x="189.72198" y="46.650774" style="stroke: #000000"/>
     <use xlink:href="#m4e75bfa3f4" x="167.411839" y="36.563849" style="stroke: #000000"/>
     <use xlink:href="#m4e75bfa3f4" x="144.041344" y="41.593688" style="stroke: #000000"/>
     <use xlink:href="#m4e75bfa3f4" x="121.609472" y="48.332495" style="stroke: #000000"/>
     <use xlink:href="#m4e75bfa3f4" x="99.559556" y="57.181075" style="stroke: #000000"/>
     <use xlink:href="#m4e75bfa3f4" x="78.536865" y="69.682389" style="stroke: #000000"/>
     <use xlink:href="#m4e75bfa3f4" x="61.426966" y="87.590562" style="stroke: #000000"/>
     <use xlink:href="#m4e75bfa3f4" x="51.095939" y="110.097812" style="stroke: #000000"/>
     <use xlink:href="#m4e75bfa3f4" x="45.936353" y="133.964089" style="stroke: #000000"/>
     <use xlink:href="#m4e75bfa3f4" x="45.425269" y="157.941045" style="stroke: #000000"/>
     <use xlink:href="#m4e75bfa3f4" x="50.878421" y="180.903106" style="stroke: #000000"/>
     <use xlink:href="#m4e75bfa3f4" x="58.749711" y="202.431325" style="stroke: #000000"/>
     <use xlink:href="#m4e75bfa3f4" x="72.044698" y="220.757395" style="stroke: #000000"/>
     <use xlink:href="#m4e75bfa3f4" x="88.854408" y="235.039807" style="stroke: #000000"/>
     <use xlink:href="#m4e75bfa3f4" x="107.943194" y="244.599291" style="stroke: #000000"/>
     <use xlink:href="#m4e75bfa3f4" x="127.773431" y="249.563103" style="stroke: #000000"/>
     <use xlink:href="#m4e75bfa3f4" x="147.600981" y="248.441312" style="stroke: #000000"/>
     <use xlink:href="#m4e75bfa3f4" x="165.452975" y="243.616031" style="stroke: #000000"/>
     <use xlink:href="#m4e75bfa3f4" x="182.074034" y="242.79829" style="stroke: #000000"/>
     <use xlink:href="#m4e75bfa3f4" x="197.149648" y="235.761187" style="stroke: #000000"/>
     <use xlink:href="#m4e75bfa3f4" x="208.1467" y="223.126803" style="stroke: #000000"/>
     <use xlink:href="#m4e75bfa3f4" x="211.184159" y="204.909513" style="stroke: #000000"/>
     <use xlink:href="#m4e75bfa3f4" x="206.165616" y="186.331025" style="stroke: #000000"/>
     <use xlink:href="#m4e75bfa3f4" x="204.248028" y="175.276678" style="stroke: #000000"/>
     <use xlink:href="#m4e75bfa3f4" x="212.840676" y="168.858243" style="stroke: #000000"/>
     <use xlink:href="#m4e75bfa3f4" x="229.592914" y="159.758444" style="stroke: #000000"/>
    </g>
   </g>
   <g id="line2d_14">
    <path d="M 245.788352 144.075011 
L 253.289969 123.948129 
L 249.876747 104.305359 
L 240.096846 86.589667 
L 227.894262 68.66481 
L 210.08178 56.018499 
L 188.424629 52.875445 
L 167.346558 43.576367 
L 145.47799 49.192563 
L 124.456921 55.401048 
L 103.756007 63.599957 
L 83.809516 75.063869 
L 67.379396 91.657374 
L 57.592951 112.868963 
L 52.848314 135.414675 
L 52.340618 158.01488 
L 57.489664 179.663007 
L 64.778755 200.011325 
L 77.265007 217.352809 
L 93.196441 230.794008 
L 111.641381 239.195203 
L 130.22461 243.827888 
L 148.781932 242.837999 
L 165.511242 238.594596 
L 181.31063 238.704216 
L 195.886216 232.601282 
L 206.781456 221.025546 
L 210.020287 203.714295 
L 205.496398 185.869182 
L 204.247925 175.273603 
L 213.222683 168.936104 
L 229.909668 159.760117 
L 245.788352 144.075011 
" clip-path="url(#p10c9d60a8b)" style="fill: none; stroke: #008000; stroke-linecap: square"/>
   </g>
   <g id="line2d_15">
    <path d="M 236.703608 145.791651 
L 244.698587 127.419332 
L 242.157083 109.366058 
L 233.658288 92.915529 
L 223.123252 75.669389 
L 207.069494 63.11036 
L 187.018237 59.627412 
L 167.292473 49.544845 
L 146.406623 54.094124 
L 126.005354 59.238343 
L 105.472836 66.221303 
L 85.216712 76.497352 
L 68.218568 92.229469 
L 58.375758 113.201841 
L 54.368764 135.732035 
L 54.703208 158.037275 
L 60.574859 179.079824 
L 68.494726 198.513668 
L 81.333908 214.690421 
L 97.398402 226.672769 
L 115.485465 233.561816 
L 133.19869 236.842406 
L 150.472481 234.756424 
L 165.596572 229.991408 
L 179.68957 230.107036 
L 192.647815 224.555624 
L 202.117801 213.890907 
L 203.789144 197.355068 
L 197.94025 180.707792 
L 195.92594 171.72567 
L 204.453415 167.096945 
L 220.846507 159.66536 
L 236.703608 145.791651 
" clip-path="url(#p10c9d60a8b)" style="fill: none; stroke: #ff0000; stroke-linecap: square"/>
   </g>
   <g id="PathCollection_3">
    <g clip-path="url(#p10c9d60a8b)">
     <use xlink:href="#m45a343f147" x="245.788352" y="144.075011" style="fill: #ffffff; stroke: #ffffff"/>
     <use xlink:href="#m45a343f147" x="253.289969" y="123.948129" style="fill: #ffffff; stroke: #ffffff"/>
     <use xlink:href="#m45a343f147" x="249.876747" y="104.305359" style="fill: #ffffff; stroke: #ffffff"/>
     <use xlink:href="#m45a343f147" x="240.096846" y="86.589667" style="fill: #ffffff; stroke: #ffffff"/>
     <use xlink:href="#m45a343f147" x="227.894262" y="68.66481" style="fill: #ffffff; stroke: #ffffff"/>
     <use xlink:href="#m45a343f147" x="210.08178" y="56.018499" style="fill: #ffffff; stroke: #ffffff"/>
     <use xlink:href="#m45a343f147" x="188.424629" y="52.875445" style="fill: #ffffff; stroke: #ffffff"/>
     <use xlink:href="#m45a343f147" x="167.346558" y="43.576367" style="fill: #ffffff; stroke: #ffffff"/>
     <use xlink:href="#m45a343f147" x="145.47799" y="49.192563" style="fill: #ffffff; stroke: #ffffff"/>
     <use xlink:href="#m45a343f147" x="124.456921" y="55.401048" style="fill: #ffffff; stroke: #ffffff"/>
     <use xlink:href="#m45a343f147" x="103.756007" y="63.599957" style="fill: #ffffff; stroke: #ffffff"/>
     <use xlink:href="#m45a343f147" x="83.809516" y="75.063869" style="fill: #ffffff; stroke: #ffffff"/>
     <use xlink:href="#m45a343f147" x="67.379396" y="91.657374" style="fill: #ffffff; stroke: #ffffff"/>
     <use xlink:href="#m45a343f147" x="57.592951" y="112.868963" style="fill: #ffffff; stroke: #ffffff"/>
     <use xlink:href="#m45a343f147" x="52.848314" y="135.414675" style="fill: #ffffff; stroke: #ffffff"/>
     <use xlink:href="#m45a343f147" x="52.340618" y="158.01488" style="fill: #ffffff; stroke: #ffffff"/>
     <use xlink:href="#m45a343f147" x="57.489664" y="179.663007" style="fill: #ffffff; stroke: #ffffff"/>
     <use xlink:href="#m45a343f147" x="64.778755" y="200.011325" style="fill: #ffffff; stroke: #ffffff"/>
     <use xlink:href="#m45a343f147" x="77.265007" y="217.352809" style="fill: #ffffff; stroke: #ffffff"/>
     <use xlink:href="#m45a343f147" x="93.196441" y="230.794008" style="fill: #ffffff; stroke: #ffffff"/>
     <use xlink:href="#m45a343f147" x="111.641381" y="239.195203" style="fill: #ffffff; stroke: #ffffff"/>
     <use xlink:href="#m45a343f147" x="130.22461" y="243.827888" style="fill: #ffffff; stroke: #ffffff"/>
     <use xlink:href="#m45a343f147" x="148.781932" y="242.837999" style="fill: #ffffff; stroke: #ffffff"/>
     <use xlink:href="#m45a343f147" x="165.511242" y="238.594596" style="fill: #ffffff; stroke: #ffffff"/>
     <use xlink:href="#m45a343f147" x="181.31063" y="238.704216" style="fill: #ffffff; stroke: #ffffff"/>
     <use xlink:href="#m45a343f147" x="195.886216" y="232.601282" style="fill: #ffffff; stroke: #ffffff"/>
     <use xlink:href="#m45a343f147" x="206.781456" y="221.025546" style="fill: #ffffff; stroke: #ffffff"/>
     <use xlink:href="#m45a343f147" x="210.020287" y="203.714295" style="fill: #ffffff; stroke: #ffffff"/>
     <use xlink:href="#m45a343f147" x="205.496398" y="185.869182" style="fill: #ffffff; stroke: #ffffff"/>
     <use xlink:href="#m45a343f147" x="204.247925" y="175.273603" style="fill: #ffffff; stroke: #ffffff"/>
     <use xlink:href="#m45a343f147" x="213.222683" y="168.936104" style="fill: #ffffff; stroke: #ffffff"/>
     <use xlink:href="#m45a343f147" x="229.909668" y="159.760117" style="fill: #ffffff; stroke: #ffffff"/>
    </g>
   </g>
   <g id="PathCollection_4">
    <g clip-path="url(#p10c9d60a8b)">
     <use xlink:href="#m45a343f147" x="236.703608" y="145.791651" style="fill: #ffffff; stroke: #ffffff"/>
     <use xlink:href="#m45a343f147" x="244.698587" y="127.419332" style="fill: #ffffff; stroke: #ffffff"/>
     <use xlink:href="#m45a343f147" x="242.157083" y="109.366058" style="fill: #ffffff; stroke: #ffffff"/>
     <use xlink:href="#m45a343f147" x="233.658288" y="92.915529" style="fill: #ffffff; stroke: #ffffff"/>
     <use xlink:href="#m45a343f147" x="223.123252" y="75.669389" style="fill: #ffffff; stroke: #ffffff"/>
     <use xlink:href="#m45a343f147" x="207.069494" y="63.11036" style="fill: #ffffff; stroke: #ffffff"/>
     <use xlink:href="#m45a343f147" x="187.018237" y="59.627412" style="fill: #ffffff; stroke: #ffffff"/>
     <use xlink:href="#m45a343f147" x="167.292473" y="49.544845" style="fill: #ffffff; stroke: #ffffff"/>
     <use xlink:href="#m45a343f147" x="146.406623" y="54.094124" style="fill: #ffffff; stroke: #ffffff"/>
     <use xlink:href="#m45a343f147" x="126.005354" y="59.238343" style="fill: #ffffff; stroke: #ffffff"/>
     <use xlink:href="#m45a343f147" x="105.472836" y="66.221303" style="fill: #ffffff; stroke: #ffffff"/>
     <use xlink:href="#m45a343f147" x="85.216712" y="76.497352" style="fill: #ffffff; stroke: #ffffff"/>
     <use xlink:href="#m45a343f147" x="68.218568" y="92.229469" style="fill: #ffffff; stroke: #ffffff"/>
     <use xlink:href="#m45a343f147" x="58.375758" y="113.201841" style="fill: #ffffff; stroke: #ffffff"/>
     <use xlink:href="#m45a343f147" x="54.368764" y="135.732035" style="fill: #ffffff; stroke: #ffffff"/>
     <use xlink:href="#m45a343f147" x="54.703208" y="158.037275" style="fill: #ffffff; stroke: #ffffff"/>
     <use xlink:href="#m45a343f147" x="60.574859" y="179.079824" style="fill: #ffffff; stroke: #ffffff"/>
     <use xlink:href="#m45a343f147" x="68.494726" y="198.513668" style="fill: #ffffff; stroke: #ffffff"/>
     <use xlink:href="#m45a343f147" x="81.333908" y="214.690421" style="fill: #ffffff; stroke: #ffffff"/>
     <use xlink:href="#m45a343f147" x="97.398402" y="226.672769" style="fill: #ffffff; stroke: #ffffff"/>
     <use xlink:href="#m45a343f147" x="115.485465" y="233.561816" style="fill: #ffffff; stroke: #ffffff"/>
     <use xlink:href="#m45a343f147" x="133.19869" y="236.842406" style="fill: #ffffff; stroke: #ffffff"/>
     <use xlink:href="#m45a343f147" x="150.472481" y="234.756424" style="fill: #ffffff; stroke: #ffffff"/>
     <use xlink:href="#m45a343f147" x="165.596572" y="229.991408" style="fill: #ffffff; stroke: #ffffff"/>
     <use xlink:href="#m45a343f147" x="179.68957" y="230.107036" style="fill: #ffffff; stroke: #ffffff"/>
     <use xlink:href="#m45a343f147" x="192.647815" y="224.555624" style="fill: #ffffff; stroke: #ffffff"/>
     <use xlink:href="#m45a343f147" x="202.117801" y="213.890907" style="fill: #ffffff; stroke: #ffffff"/>
     <use xlink:href="#m45a343f147" x="203.789144" y="197.355068" style="fill: #ffffff; stroke: #ffffff"/>
     <use xlink:href="#m45a343f147" x="197.94025" y="180.707792" style="fill: #ffffff; stroke: #ffffff"/>
     <use xlink:href="#m45a343f147" x="195.92594" y="171.72567" style="fill: #ffffff; stroke: #ffffff"/>
     <use xlink:href="#m45a343f147" x="204.453415" y="167.096945" style="fill: #ffffff; stroke: #ffffff"/>
     <use xlink:href="#m45a343f147" x="220.846507" y="159.66536" style="fill: #ffffff; stroke: #ffffff"/>
    </g>
   </g>
   <g id="PathCollection_5">
    <defs>
     <path id="m09d7d8afac" d="M 0 2.5 
C 0.663008 2.5 1.29895 2.236584 1.767767 1.767767 
C 2.236584 1.29895 2.5 0.663008 2.5 0 
C 2.5 -0.663008 2.236584 -1.29895 1.767767 -1.767767 
C 1.29895 -2.236584 0.663008 -2.5 0 -2.5 
C -0.663008 -2.5 -1.29895 -2.236584 -1.767767 -1.767767 
C -2.236584 -1.29895 -2.5 -0.663008 -2.5 0 
C -2.5 0.663008 -2.236584 1.29895 -1.767767 1.767767 
C -1.29895 2.236584 -0.663008 2.5 0 2.5 
z
" style="stroke: #008000"/>
    </defs>
    <g clip-path="url(#p10c9d60a8b)">
     <use xlink:href="#m09d7d8afac" x="245.788352" y="144.075011" style="fill: #008000; stroke: #008000"/>
     <use xlink:href="#m09d7d8afac" x="253.289969" y="123.948129" style="fill: #008000; stroke: #008000"/>
     <use xlink:href="#m09d7d8afac" x="249.876747" y="104.305359" style="fill: #008000; stroke: #008000"/>
     <use xlink:href="#m09d7d8afac" x="240.096846" y="86.589667" style="fill: #008000; stroke: #008000"/>
     <use xlink:href="#m09d7d8afac" x="227.894262" y="68.66481" style="fill: #008000; stroke: #008000"/>
     <use xlink:href="#m09d7d8afac" x="210.08178" y="56.018499" style="fill: #008000; stroke: #008000"/>
     <use xlink:href="#m09d7d8afac" x="188.424629" y="52.875445" style="fill: #008000; stroke: #008000"/>
     <use xlink:href="#m09d7d8afac" x="167.346558" y="43.576367" style="fill: #008000; stroke: #008000"/>
     <use xlink:href="#m09d7d8afac" x="145.47799" y="49.192563" style="fill: #008000; stroke: #008000"/>
     <use xlink:href="#m09d7d8afac" x="124.456921" y="55.401048" style="fill: #008000; stroke: #008000"/>
     <use xlink:href="#m09d7d8afac" x="103.756007" y="63.599957" style="fill: #008000; stroke: #008000"/>
     <use xlink:href="#m09d7d8afac" x="83.809516" y="75.063869" style="fill: #008000; stroke: #008000"/>
     <use xlink:href="#m09d7d8afac" x="67.379396" y="91.657374" style="fill: #008000; stroke: #008000"/>
     <use xlink:href="#m09d7d8afac" x="57.592951" y="112.868963" style="fill: #008000; stroke: #008000"/>
     <use xlink:href="#m09d7d8afac" x="52.848314" y="135.414675" style="fill: #008000; stroke: #008000"/>
     <use xlink:href="#m09d7d8afac" x="52.340618" y="158.01488" style="fill: #008000; stroke: #008000"/>
     <use xlink:href="#m09d7d8afac" x="57.489664" y="179.663007" style="fill: #008000; stroke: #008000"/>
     <use xlink:href="#m09d7d8afac" x="64.778755" y="200.011325" style="fill: #008000; stroke: #008000"/>
     <use xlink:href="#m09d7d8afac" x="77.265007" y="217.352809" style="fill: #008000; stroke: #008000"/>
     <use xlink:href="#m09d7d8afac" x="93.196441" y="230.794008" style="fill: #008000; stroke: #008000"/>
     <use xlink:href="#m09d7d8afac" x="111.641381" y="239.195203" style="fill: #008000; stroke: #008000"/>
     <use xlink:href="#m09d7d8afac" x="130.22461" y="243.827888" style="fill: #008000; stroke: #008000"/>
     <use xlink:href="#m09d7d8afac" x="148.781932" y="242.837999" style="fill: #008000; stroke: #008000"/>
     <use xlink:href="#m09d7d8afac" x="165.511242" y="238.594596" style="fill: #008000; stroke: #008000"/>
     <use xlink:href="#m09d7d8afac" x="181.31063" y="238.704216" style="fill: #008000; stroke: #008000"/>
     <use xlink:href="#m09d7d8afac" x="195.886216" y="232.601282" style="fill: #008000; stroke: #008000"/>
     <use xlink:href="#m09d7d8afac" x="206.781456" y="221.025546" style="fill: #008000; stroke: #008000"/>
     <use xlink:href="#m09d7d8afac" x="210.020287" y="203.714295" style="fill: #008000; stroke: #008000"/>
     <use xlink:href="#m09d7d8afac" x="205.496398" y="185.869182" style="fill: #008000; stroke: #008000"/>
     <use xlink:href="#m09d7d8afac" x="204.247925" y="175.273603" style="fill: #008000; stroke: #008000"/>
     <use xlink:href="#m09d7d8afac" x="213.222683" y="168.936104" style="fill: #008000; stroke: #008000"/>
     <use xlink:href="#m09d7d8afac" x="229.909668" y="159.760117" style="fill: #008000; stroke: #008000"/>
    </g>
   </g>
   <g id="PathCollection_6">
    <defs>
     <path id="m442e8d5a57" d="M 0 2.5 
C 0.663008 2.5 1.29895 2.236584 1.767767 1.767767 
C 2.236584 1.29895 2.5 0.663008 2.5 0 
C 2.5 -0.663008 2.236584 -1.29895 1.767767 -1.767767 
C 1.29895 -2.236584 0.663008 -2.5 0 -2.5 
C -0.663008 -2.5 -1.29895 -2.236584 -1.767767 -1.767767 
C -2.236584 -1.29895 -2.5 -0.663008 -2.5 0 
C -2.5 0.663008 -2.236584 1.29895 -1.767767 1.767767 
C -1.29895 2.236584 -0.663008 2.5 0 2.5 
z
" style="stroke: #ff0000"/>
    </defs>
    <g clip-path="url(#p10c9d60a8b)">
     <use xlink:href="#m442e8d5a57" x="236.703608" y="145.791651" style="fill: #ff0000; stroke: #ff0000"/>
     <use xlink:href="#m442e8d5a57" x="244.698587" y="127.419332" style="fill: #ff0000; stroke: #ff0000"/>
     <use xlink:href="#m442e8d5a57" x="242.157083" y="109.366058" style="fill: #ff0000; stroke: #ff0000"/>
     <use xlink:href="#m442e8d5a57" x="233.658288" y="92.915529" style="fill: #ff0000; stroke: #ff0000"/>
     <use xlink:href="#m442e8d5a57" x="223.123252" y="75.669389" style="fill: #ff0000; stroke: #ff0000"/>
     <use xlink:href="#m442e8d5a57" x="207.069494" y="63.11036" style="fill: #ff0000; stroke: #ff0000"/>
     <use xlink:href="#m442e8d5a57" x="187.018237" y="59.627412" style="fill: #ff0000; stroke: #ff0000"/>
     <use xlink:href="#m442e8d5a57" x="167.292473" y="49.544845" style="fill: #ff0000; stroke: #ff0000"/>
     <use xlink:href="#m442e8d5a57" x="146.406623" y="54.094124" style="fill: #ff0000; stroke: #ff0000"/>
     <use xlink:href="#m442e8d5a57" x="126.005354" y="59.238343" style="fill: #ff0000; stroke: #ff0000"/>
     <use xlink:href="#m442e8d5a57" x="105.472836" y="66.221303" style="fill: #ff0000; stroke: #ff0000"/>
     <use xlink:href="#m442e8d5a57" x="85.216712" y="76.497352" style="fill: #ff0000; stroke: #ff0000"/>
     <use xlink:href="#m442e8d5a57" x="68.218568" y="92.229469" style="fill: #ff0000; stroke: #ff0000"/>
     <use xlink:href="#m442e8d5a57" x="58.375758" y="113.201841" style="fill: #ff0000; stroke: #ff0000"/>
     <use xlink:href="#m442e8d5a57" x="54.368764" y="135.732035" style="fill: #ff0000; stroke: #ff0000"/>
     <use xlink:href="#m442e8d5a57" x="54.703208" y="158.037275" style="fill: #ff0000; stroke: #ff0000"/>
     <use xlink:href="#m442e8d5a57" x="60.574859" y="179.079824" style="fill: #ff0000; stroke: #ff0000"/>
     <use xlink:href="#m442e8d5a57" x="68.494726" y="198.513668" style="fill: #ff0000; stroke: #ff0000"/>
     <use xlink:href="#m442e8d5a57" x="81.333908" y="214.690421" style="fill: #ff0000; stroke: #ff0000"/>
     <use xlink:href="#m442e8d5a57" x="97.398402" y="226.672769" style="fill: #ff0000; stroke: #ff0000"/>
     <use xlink:href="#m442e8d5a57" x="115.485465" y="233.561816" style="fill: #ff0000; stroke: #ff0000"/>
     <use xlink:href="#m442e8d5a57" x="133.19869" y="236.842406" style="fill: #ff0000; stroke: #ff0000"/>
     <use xlink:href="#m442e8d5a57" x="150.472481" y="234.756424" style="fill: #ff0000; stroke: #ff0000"/>
     <use xlink:href="#m442e8d5a57" x="165.596572" y="229.991408" style="fill: #ff0000; stroke: #ff0000"/>
     <use xlink:href="#m442e8d5a57" x="179.68957" y="230.107036" style="fill: #ff0000; stroke: #ff0000"/>
     <use xlink:href="#m442e8d5a57" x="192.647815" y="224.555624" style="fill: #ff0000; stroke: #ff0000"/>
     <use xlink:href="#m442e8d5a57" x="202.117801" y="213.890907" style="fill: #ff0000; stroke: #ff0000"/>
     <use xlink:href="#m442e8d5a57" x="203.789144" y="197.355068" style="fill: #ff0000; stroke: #ff0000"/>
     <use xlink:href="#m442e8d5a57" x="197.94025" y="180.707792" style="fill: #ff0000; stroke: #ff0000"/>
     <use xlink:href="#m442e8d5a57" x="195.92594" y="171.72567" style="fill: #ff0000; stroke: #ff0000"/>
     <use xlink:href="#m442e8d5a57" x="204.453415" y="167.096945" style="fill: #ff0000; stroke: #ff0000"/>
     <use xlink:href="#m442e8d5a57" x="220.846507" y="159.66536" style="fill: #ff0000; stroke: #ff0000"/>
    </g>
   </g>
   <g id="text_13">
    <!-- $l(\beta)$ -->
    <g transform="translate(128.689249 145.723408) scale(0.1 -0.1)">
     <defs>
      <path id="DejaVuSans-Oblique-6c" d="M 1172 4863 
L 1747 4863 
L 800 0 
L 225 0 
L 1172 4863 
z
" transform="scale(0.015625)"/>
      <path id="DejaVuSans-28" d="M 1984 4856 
Q 1566 4138 1362 3434 
Q 1159 2731 1159 2009 
Q 1159 1288 1364 580 
Q 1569 -128 1984 -844 
L 1484 -844 
Q 1016 -109 783 600 
Q 550 1309 550 2009 
Q 550 2706 781 3412 
Q 1013 4119 1484 4856 
L 1984 4856 
z
" transform="scale(0.015625)"/>
      <path id="DejaVuSans-Oblique-3b2" d="M 872 216 
L 572 -1331 
L -6 -1331 
L 928 3478 
Q 1206 4903 2538 4903 
Q 3888 4903 3659 3700 
Q 3503 2844 2894 2531 
Q 3713 2250 3553 1416 
Q 3272 -69 1759 -66 
Q 1097 -63 872 216 
z
M 1019 966 
Q 1259 422 1875 425 
Q 2775 425 2966 1406 
Q 3138 2288 1675 2219 
L 1778 2750 
Q 2909 2731 3106 3750 
Q 3241 4438 2509 4434 
Q 1691 4434 1503 3459 
L 1019 966 
z
" transform="scale(0.015625)"/>
      <path id="DejaVuSans-29" d="M 513 4856 
L 1013 4856 
Q 1481 4119 1714 3412 
Q 1947 2706 1947 2009 
Q 1947 1309 1714 600 
Q 1481 -109 1013 -844 
L 513 -844 
Q 928 -128 1133 580 
Q 1338 1288 1338 2009 
Q 1338 2731 1133 3434 
Q 928 4138 513 4856 
z
" transform="scale(0.015625)"/>
     </defs>
     <use xlink:href="#DejaVuSans-Oblique-6c" transform="translate(0 0.390625)"/>
     <use xlink:href="#DejaVuSans-28" transform="translate(27.783203 0.390625)"/>
     <use xlink:href="#DejaVuSans-Oblique-3b2" transform="translate(66.796875 0.390625)"/>
     <use xlink:href="#DejaVuSans-29" transform="translate(130.615234 0.390625)"/>
    </g>
   </g>
   <g id="text_14">
    <!-- $e(\alpha)$ -->
    <g style="fill: #008000" transform="translate(104.807761 133.70392) scale(0.1 -0.1)">
     <defs>
      <path id="DejaVuSans-Oblique-65" d="M 3078 2063 
Q 3088 2113 3092 2166 
Q 3097 2219 3097 2272 
Q 3097 2653 2873 2875 
Q 2650 3097 2266 3097 
Q 1838 3097 1509 2826 
Q 1181 2556 1013 2059 
L 3078 2063 
z
M 3578 1613 
L 903 1613 
Q 884 1494 878 1425 
Q 872 1356 872 1306 
Q 872 872 1139 634 
Q 1406 397 1894 397 
Q 2269 397 2603 481 
Q 2938 566 3225 728 
L 3116 159 
Q 2806 34 2476 -28 
Q 2147 -91 1806 -91 
Q 1078 -91 686 257 
Q 294 606 294 1247 
Q 294 1794 489 2264 
Q 684 2734 1063 3103 
Q 1306 3334 1642 3459 
Q 1978 3584 2356 3584 
Q 2950 3584 3301 3228 
Q 3653 2872 3653 2272 
Q 3653 2128 3634 1964 
Q 3616 1800 3578 1613 
z
" transform="scale(0.015625)"/>
      <path id="DejaVuSans-Oblique-3b1" d="M 2619 1628 
L 2622 2350 
Q 2625 3088 2069 3091 
Q 1653 3094 1394 2747 
Q 1069 2319 959 1747 
Q 825 1059 994 731 
Q 1169 397 1547 397 
Q 1966 397 2319 1063 
L 2619 1628 
z
M 2166 3578 
Q 3141 3594 3128 2584 
Q 3128 2584 3616 3500 
L 4128 3500 
L 3119 1603 
L 3109 919 
Q 3109 766 3194 638 
Q 3291 488 3391 488 
L 3669 488 
L 3575 0 
L 3228 0 
Q 2934 0 2722 263 
Q 2622 394 2619 669 
Q 2416 334 2066 50 
Q 1900 -81 1453 -78 
Q 722 -72 456 397 
Q 184 884 353 1747 
Q 534 2675 1009 3097 
Q 1544 3569 2166 3578 
z
" transform="scale(0.015625)"/>
     </defs>
     <use xlink:href="#DejaVuSans-Oblique-65" transform="translate(0 0.125)"/>
     <use xlink:href="#DejaVuSans-28" transform="translate(61.523438 0.125)"/>
     <use xlink:href="#DejaVuSans-Oblique-3b1" transform="translate(100.537109 0.125)"/>
     <use xlink:href="#DejaVuSans-29" transform="translate(166.455078 0.125)"/>
    </g>
   </g>
   <g id="text_15">
    <!-- $e_c(\alpha)$ -->
    <g style="fill: #ff0000" transform="translate(82.095194 119.289242) scale(0.1 -0.1)">
     <defs>
      <path id="DejaVuSans-Oblique-63" d="M 3431 3366 
L 3316 2797 
Q 3109 2947 2876 3022 
Q 2644 3097 2394 3097 
Q 2119 3097 1870 3000 
Q 1622 2903 1453 2725 
Q 1184 2453 1037 2087 
Q 891 1722 891 1331 
Q 891 859 1127 628 
Q 1363 397 1844 397 
Q 2081 397 2348 469 
Q 2616 541 2906 684 
L 2797 116 
Q 2547 13 2283 -39 
Q 2019 -91 1741 -91 
Q 1044 -91 669 257 
Q 294 606 294 1253 
Q 294 1797 489 2255 
Q 684 2713 1069 3078 
Q 1331 3328 1684 3456 
Q 2038 3584 2456 3584 
Q 2700 3584 2940 3529 
Q 3181 3475 3431 3366 
z
" transform="scale(0.015625)"/>
     </defs>
     <use xlink:href="#DejaVuSans-Oblique-65" transform="translate(0 0.125)"/>
     <use xlink:href="#DejaVuSans-Oblique-63" transform="translate(61.523438 -16.28125) scale(0.7)"/>
     <use xlink:href="#DejaVuSans-28" transform="translate(102.744141 0.125)"/>
     <use xlink:href="#DejaVuSans-Oblique-3b1" transform="translate(141.757812 0.125)"/>
     <use xlink:href="#DejaVuSans-29" transform="translate(207.675781 0.125)"/>
    </g>
   </g>
   <g id="text_16">
    <!-- $\beta$ -->
    <g transform="translate(306.084295 180.22143) scale(0.1 -0.1)">
     <use xlink:href="#DejaVuSans-Oblique-3b2" transform="translate(0 0.390625)"/>
    </g>
   </g>
   <g id="text_17">
    <!-- $\alpha$ -->
    <g style="fill: #008000" transform="translate(303.276837 194.071055) scale(0.1 -0.1)">
     <use xlink:href="#DejaVuSans-Oblique-3b1" transform="translate(0 0.84375)"/>
    </g>
   </g>
   <g id="text_18">
    <!-- $\alpha$ -->
    <g style="fill: #ff0000" transform="translate(299.100749 207.571211) scale(0.1 -0.1)">
     <use xlink:href="#DejaVuSans-Oblique-3b1" transform="translate(0 0.84375)"/>
    </g>
   </g>
  </g>
 </g>
 <defs>
  <clipPath id="p10c9d60a8b">
   <path d="M 299.35575 159.095062 
C 299.35575 141.622309 295.913998 124.319455 289.227465 108.176736 
C 282.540932 92.034016 272.739653 77.365365 260.38455 65.010263 
C 248.029447 52.65516 233.360796 42.853881 217.218077 36.167347 
C 201.075357 29.480814 183.772504 26.039062 166.29975 26.039062 
C 148.826996 26.039062 131.524143 29.480814 115.381423 36.167347 
C 99.238704 42.853881 84.570053 52.65516 72.21495 65.010263 
C 59.859847 77.365365 50.058568 92.034016 43.372035 108.176736 
C 36.685502 124.319455 33.24375 141.622309 33.24375 159.095062 
C 33.24375 176.567816 36.685502 193.87067 43.372035 210.013389 
C 50.058568 226.156109 59.859847 240.82476 72.21495 253.179862 
C 84.570053 265.534965 99.238704 275.336244 115.381423 282.022778 
C 131.524143 288.709311 148.826996 292.151062 166.29975 292.151062 
C 183.772504 292.151062 201.075357 288.709311 217.218077 282.022778 
C 233.360796 275.336244 248.029447 265.534965 260.38455 253.179862 
C 272.739653 240.82476 282.540932 226.156109 289.227465 210.013389 
C 295.913998 193.87067 299.35575 176.567816 299.35575 159.095062 
M 166.29975 159.095062 
C 166.29975 159.095062 166.29975 159.095062 166.29975 159.095062 
C 166.29975 159.095062 166.29975 159.095062 166.29975 159.095062 
C 166.29975 159.095062 166.29975 159.095062 166.29975 159.095062 
C 166.29975 159.095062 166.29975 159.095062 166.29975 159.095062 
C 166.29975 159.095062 166.29975 159.095062 166.29975 159.095062 
C 166.29975 159.095062 166.29975 159.095062 166.29975 159.095062 
C 166.29975 159.095062 166.29975 159.095062 166.29975 159.095062 
C 166.29975 159.095062 166.29975 159.095062 166.29975 159.095062 
C 166.29975 159.095062 166.29975 159.095062 166.29975 159.095062 
C 166.29975 159.095062 166.29975 159.095062 166.29975 159.095062 
C 166.29975 159.095062 166.29975 159.095062 166.29975 159.095062 
C 166.29975 159.095062 166.29975 159.095062 166.29975 159.095062 
C 166.29975 159.095062 166.29975 159.095062 166.29975 159.095062 
C 166.29975 159.095062 166.29975 159.095062 166.29975 159.095062 
C 166.29975 159.095062 166.29975 159.095062 166.29975 159.095062 
C 166.29975 159.095062 166.29975 159.095062 166.29975 159.095062 
M 299.35575 159.095062 
z
"/>
  </clipPath>
 </defs>
</svg>
