<?xml version="1.0" encoding="utf-8" standalone="no"?>
<!DOCTYPE svg PUBLIC "-//W3C//DTD SVG 1.1//EN"
  "http://www.w3.org/Graphics/SVG/1.1/DTD/svg11.dtd">
<svg xmlns:xlink="http://www.w3.org/1999/xlink" width="315.434192pt" height="280.512pt" viewBox="0 0 315.434192 280.512" xmlns="http://www.w3.org/2000/svg" version="1.1">
 <metadata>
  <rdf:RDF xmlns:dc="http://purl.org/dc/elements/1.1/" xmlns:cc="http://creativecommons.org/ns#" xmlns:rdf="http://www.w3.org/1999/02/22-rdf-syntax-ns#">
   <cc:Work>
    <dc:type rdf:resource="http://purl.org/dc/dcmitype/StillImage"/>
    <dc:date>2022-11-15T17:54:40.752460</dc:date>
    <dc:format>image/svg+xml</dc:format>
    <dc:creator>
     <cc:Agent>
      <dc:title>Matplotlib v3.6.2, https://matplotlib.org/</dc:title>
     </cc:Agent>
    </dc:creator>
   </cc:Work>
  </rdf:RDF>
 </metadata>
 <defs>
  <style type="text/css">*{stroke-linejoin: round; stroke-linecap: butt}</style>
 </defs>
 <g id="figure_1">
  <g id="patch_1">
   <path d="M 0 280.512 
L 315.434192 280.512 
L 315.434192 0 
L 0 0 
z
" style="fill: #ffffff"/>
  </g>
  <g id="patch_2">
   <path d="M 25.879309 273.312 
L 291.991309 273.312 
L 291.991309 7.2 
L 25.879309 7.2 
z
" style="fill: #ffffff"/>
  </g>
  <g id="pane3d_1">
   <g id="patch_3">
    <path d="M 172.210487 175.449781 
L 43.684944 197.161771 
L 41.841341 71.552372 
L 172.350106 58.334045 
" style="fill: #f2f2f2; opacity: 0.5; stroke: #f2f2f2; stroke-linejoin: miter"/>
   </g>
  </g>
  <g id="pane3d_2">
   <g id="patch_4">
    <path d="M 283.094378 201.698838 
L 172.210487 175.449781 
L 172.350106 58.334045 
L 284.992045 74.318134 
" style="fill: #e6e6e6; opacity: 0.5; stroke: #e6e6e6; stroke-linejoin: miter"/>
   </g>
  </g>
  <g id="pane3d_3">
   <g id="patch_5">
    <path d="M 283.094378 201.698838 
L 172.210487 175.449781 
L 43.684944 197.161771 
L 151.124343 227.656639 
" style="fill: #ececec; opacity: 0.5; stroke: #ececec; stroke-linejoin: miter"/>
   </g>
  </g>
  <g id="axis3d_1">
   <g id="line2d_1">
    <path d="M 43.684944 197.161771 
L 151.124343 227.656639 
" style="fill: none; stroke: #000000; stroke-width: 0.8; stroke-linecap: square"/>
   </g>
   <g id="text_1">
    <!-- sensor position -->
    <g transform="translate(31.686103 232.062783) rotate(-344.154298) scale(0.1 -0.1)">
     <defs>
      <path id="DejaVuSerif-73" d="M 359 184 
L 359 959 
L 691 959 
Q 703 588 923 403 
Q 1144 219 1575 219 
Q 1963 219 2166 364 
Q 2369 509 2369 788 
Q 2369 1006 2220 1140 
Q 2072 1275 1594 1428 
L 1178 1569 
Q 750 1706 558 1912 
Q 366 2119 366 2438 
Q 366 2894 700 3153 
Q 1034 3413 1625 3413 
Q 1888 3413 2178 3344 
Q 2469 3275 2778 3144 
L 2778 2419 
L 2447 2419 
Q 2434 2741 2221 2922 
Q 2009 3103 1644 3103 
Q 1281 3103 1095 2975 
Q 909 2847 909 2591 
Q 909 2381 1050 2254 
Q 1191 2128 1613 1997 
L 2069 1856 
Q 2541 1709 2748 1489 
Q 2956 1269 2956 922 
Q 2956 450 2595 179 
Q 2234 -91 1600 -91 
Q 1278 -91 972 -22 
Q 666 47 359 184 
z
" transform="scale(0.015625)"/>
      <path id="DejaVuSerif-65" d="M 3469 1600 
L 991 1600 
L 991 1575 
Q 991 903 1244 561 
Q 1497 219 1991 219 
Q 2369 219 2611 417 
Q 2853 616 2950 1006 
L 3413 1006 
Q 3275 459 2904 184 
Q 2534 -91 1931 -91 
Q 1203 -91 761 389 
Q 319 869 319 1663 
Q 319 2450 753 2931 
Q 1188 3413 1894 3413 
Q 2647 3413 3050 2948 
Q 3453 2484 3469 1600 
z
M 2791 1931 
Q 2772 2513 2545 2808 
Q 2319 3103 1894 3103 
Q 1497 3103 1269 2806 
Q 1041 2509 991 1931 
L 2791 1931 
z
" transform="scale(0.015625)"/>
      <path id="DejaVuSerif-6e" d="M 263 0 
L 263 331 
L 781 331 
L 781 2988 
L 231 2988 
L 231 3322 
L 1356 3322 
L 1356 2731 
Q 1516 3069 1770 3241 
Q 2025 3413 2363 3413 
Q 2913 3413 3172 3097 
Q 3431 2781 3431 2113 
L 3431 331 
L 3944 331 
L 3944 0 
L 2356 0 
L 2356 331 
L 2853 331 
L 2853 1931 
Q 2853 2541 2703 2767 
Q 2553 2994 2175 2994 
Q 1775 2994 1565 2701 
Q 1356 2409 1356 1850 
L 1356 331 
L 1856 331 
L 1856 0 
L 263 0 
z
" transform="scale(0.015625)"/>
      <path id="DejaVuSerif-6f" d="M 1925 219 
Q 2388 219 2623 584 
Q 2859 950 2859 1663 
Q 2859 2375 2623 2739 
Q 2388 3103 1925 3103 
Q 1463 3103 1227 2739 
Q 991 2375 991 1663 
Q 991 950 1228 584 
Q 1466 219 1925 219 
z
M 1925 -91 
Q 1200 -91 759 389 
Q 319 869 319 1663 
Q 319 2456 758 2934 
Q 1197 3413 1925 3413 
Q 2653 3413 3092 2934 
Q 3531 2456 3531 1663 
Q 3531 869 3092 389 
Q 2653 -91 1925 -91 
z
" transform="scale(0.015625)"/>
      <path id="DejaVuSerif-72" d="M 3059 3328 
L 3059 2497 
L 2728 2497 
Q 2713 2744 2591 2866 
Q 2469 2988 2234 2988 
Q 1809 2988 1582 2694 
Q 1356 2400 1356 1850 
L 1356 331 
L 2022 331 
L 2022 0 
L 263 0 
L 263 331 
L 781 331 
L 781 2994 
L 231 2994 
L 231 3322 
L 1356 3322 
L 1356 2731 
Q 1525 3078 1790 3245 
Q 2056 3413 2438 3413 
Q 2578 3413 2733 3391 
Q 2888 3369 3059 3328 
z
" transform="scale(0.015625)"/>
      <path id="DejaVuSerif-20" transform="scale(0.015625)"/>
      <path id="DejaVuSerif-70" d="M 1313 1825 
L 1313 1497 
Q 1313 897 1542 583 
Q 1772 269 2209 269 
Q 2650 269 2876 622 
Q 3103 975 3103 1663 
Q 3103 2353 2876 2703 
Q 2650 3053 2209 3053 
Q 1772 3053 1542 2737 
Q 1313 2422 1313 1825 
z
M 738 2988 
L 184 2988 
L 184 3322 
L 1313 3322 
L 1313 2803 
Q 1481 3116 1742 3264 
Q 2003 3413 2388 3413 
Q 3000 3413 3387 2928 
Q 3775 2444 3775 1663 
Q 3775 881 3387 395 
Q 3000 -91 2388 -91 
Q 2003 -91 1742 57 
Q 1481 206 1313 519 
L 1313 -997 
L 1856 -997 
L 1856 -1331 
L 184 -1331 
L 184 -997 
L 738 -997 
L 738 2988 
z
" transform="scale(0.015625)"/>
      <path id="DejaVuSerif-69" d="M 622 4353 
Q 622 4497 726 4603 
Q 831 4709 978 4709 
Q 1122 4709 1226 4603 
Q 1331 4497 1331 4353 
Q 1331 4206 1228 4103 
Q 1125 4000 978 4000 
Q 831 4000 726 4103 
Q 622 4206 622 4353 
z
M 1356 331 
L 1900 331 
L 1900 0 
L 231 0 
L 231 331 
L 781 331 
L 781 2988 
L 231 2988 
L 231 3322 
L 1356 3322 
L 1356 331 
z
" transform="scale(0.015625)"/>
      <path id="DejaVuSerif-74" d="M 691 2988 
L 184 2988 
L 184 3322 
L 691 3322 
L 691 4353 
L 1269 4353 
L 1269 3322 
L 2350 3322 
L 2350 2988 
L 1269 2988 
L 1269 878 
Q 1269 456 1350 337 
Q 1431 219 1650 219 
Q 1875 219 1978 351 
Q 2081 484 2088 781 
L 2522 781 
Q 2497 328 2275 118 
Q 2053 -91 1600 -91 
Q 1103 -91 897 129 
Q 691 350 691 878 
L 691 2988 
z
" transform="scale(0.015625)"/>
     </defs>
     <use xlink:href="#DejaVuSerif-73"/>
     <use xlink:href="#DejaVuSerif-65" x="51.318359"/>
     <use xlink:href="#DejaVuSerif-6e" x="110.498047"/>
     <use xlink:href="#DejaVuSerif-73" x="174.902344"/>
     <use xlink:href="#DejaVuSerif-6f" x="226.220703"/>
     <use xlink:href="#DejaVuSerif-72" x="286.425781"/>
     <use xlink:href="#DejaVuSerif-20" x="334.228516"/>
     <use xlink:href="#DejaVuSerif-70" x="366.015625"/>
     <use xlink:href="#DejaVuSerif-6f" x="430.029297"/>
     <use xlink:href="#DejaVuSerif-73" x="490.234375"/>
     <use xlink:href="#DejaVuSerif-69" x="541.552734"/>
     <use xlink:href="#DejaVuSerif-74" x="573.535156"/>
     <use xlink:href="#DejaVuSerif-69" x="613.720703"/>
     <use xlink:href="#DejaVuSerif-6f" x="645.703125"/>
     <use xlink:href="#DejaVuSerif-6e" x="705.908203"/>
    </g>
   </g>
   <g id="Line3DCollection_1">
    <path d="M 143.669637 225.540746 
L 275.448416 199.888843 
L 277.215482 73.214626 
" style="fill: none; stroke: #b0b0b0; stroke-width: 0.8"/>
    <path d="M 94.917931 211.703393 
L 225.270997 188.010563 
L 226.215465 65.977634 
" style="fill: none; stroke: #b0b0b0; stroke-width: 0.8"/>
    <path d="M 49.95231 198.940658 
L 178.719636 176.990663 
L 178.954396 59.271205 
" style="fill: none; stroke: #b0b0b0; stroke-width: 0.8"/>
   </g>
   <g id="xtick_1">
    <g id="line2d_2">
     <path d="M 144.808475 225.319061 
L 141.387529 225.984978 
" style="fill: none; stroke: #000000; stroke-width: 0.8; stroke-linecap: square"/>
    </g>
    <g id="text_2">
     <!-- upstream -->
     <g transform="translate(107.745287 246.662903) scale(0.1 -0.1)">
      <defs>
       <path id="DejaVuSerif-75" d="M 2266 3322 
L 3341 3322 
L 3341 331 
L 3884 331 
L 3884 0 
L 2766 0 
L 2766 588 
Q 2606 256 2353 82 
Q 2100 -91 1766 -91 
Q 1213 -91 952 223 
Q 691 538 691 1209 
L 691 2988 
L 172 2988 
L 172 3322 
L 1269 3322 
L 1269 1388 
Q 1269 781 1417 556 
Q 1566 331 1947 331 
Q 2347 331 2556 625 
Q 2766 919 2766 1478 
L 2766 2988 
L 2266 2988 
L 2266 3322 
z
" transform="scale(0.015625)"/>
       <path id="DejaVuSerif-61" d="M 2547 1044 
L 2547 1747 
L 1806 1747 
Q 1378 1747 1168 1562 
Q 959 1378 959 997 
Q 959 650 1171 447 
Q 1384 244 1747 244 
Q 2106 244 2326 466 
Q 2547 688 2547 1044 
z
M 3122 2075 
L 3122 331 
L 3634 331 
L 3634 0 
L 2547 0 
L 2547 359 
Q 2356 128 2106 18 
Q 1856 -91 1522 -91 
Q 969 -91 644 203 
Q 319 497 319 997 
Q 319 1513 691 1797 
Q 1063 2081 1741 2081 
L 2547 2081 
L 2547 2309 
Q 2547 2688 2317 2895 
Q 2088 3103 1672 3103 
Q 1328 3103 1125 2947 
Q 922 2791 872 2484 
L 575 2484 
L 575 3156 
Q 875 3284 1158 3348 
Q 1441 3413 1709 3413 
Q 2400 3413 2761 3070 
Q 3122 2728 3122 2075 
z
" transform="scale(0.015625)"/>
       <path id="DejaVuSerif-6d" d="M 3316 2675 
Q 3481 3041 3739 3227 
Q 3997 3413 4341 3413 
Q 4863 3413 5119 3089 
Q 5375 2766 5375 2113 
L 5375 331 
L 5894 331 
L 5894 0 
L 4300 0 
L 4300 331 
L 4800 331 
L 4800 2047 
Q 4800 2556 4650 2772 
Q 4500 2988 4153 2988 
Q 3769 2988 3567 2697 
Q 3366 2406 3366 1850 
L 3366 331 
L 3866 331 
L 3866 0 
L 2291 0 
L 2291 331 
L 2791 331 
L 2791 2069 
Q 2791 2566 2641 2777 
Q 2491 2988 2144 2988 
Q 1759 2988 1557 2697 
Q 1356 2406 1356 1850 
L 1356 331 
L 1856 331 
L 1856 0 
L 263 0 
L 263 331 
L 781 331 
L 781 2994 
L 231 2994 
L 231 3322 
L 1356 3322 
L 1356 2731 
Q 1516 3063 1762 3238 
Q 2009 3413 2322 3413 
Q 2709 3413 2968 3220 
Q 3228 3028 3316 2675 
z
" transform="scale(0.015625)"/>
      </defs>
      <use xlink:href="#DejaVuSerif-75"/>
      <use xlink:href="#DejaVuSerif-70" x="64.404297"/>
      <use xlink:href="#DejaVuSerif-73" x="128.417969"/>
      <use xlink:href="#DejaVuSerif-74" x="179.736328"/>
      <use xlink:href="#DejaVuSerif-72" x="219.921875"/>
      <use xlink:href="#DejaVuSerif-65" x="267.724609"/>
      <use xlink:href="#DejaVuSerif-61" x="326.904297"/>
      <use xlink:href="#DejaVuSerif-6d" x="386.523438"/>
     </g>
    </g>
   </g>
   <g id="xtick_2">
    <g id="line2d_3">
     <path d="M 96.041069 211.499253 
L 92.667461 212.112436 
" style="fill: none; stroke: #000000; stroke-width: 0.8; stroke-linecap: square"/>
    </g>
    <g id="text_3">
     <!-- median -->
     <g transform="translate(64.589783 232.205188) scale(0.1 -0.1)">
      <defs>
       <path id="DejaVuSerif-64" d="M 3359 331 
L 3909 331 
L 3909 0 
L 2784 0 
L 2784 519 
Q 2616 206 2355 57 
Q 2094 -91 1709 -91 
Q 1097 -91 708 395 
Q 319 881 319 1663 
Q 319 2444 706 2928 
Q 1094 3413 1709 3413 
Q 2094 3413 2355 3264 
Q 2616 3116 2784 2803 
L 2784 4531 
L 2241 4531 
L 2241 4863 
L 3359 4863 
L 3359 331 
z
M 2784 1497 
L 2784 1825 
Q 2784 2422 2554 2737 
Q 2325 3053 1888 3053 
Q 1444 3053 1217 2703 
Q 991 2353 991 1663 
Q 991 975 1217 622 
Q 1444 269 1888 269 
Q 2325 269 2554 583 
Q 2784 897 2784 1497 
z
" transform="scale(0.015625)"/>
      </defs>
      <use xlink:href="#DejaVuSerif-6d"/>
      <use xlink:href="#DejaVuSerif-65" x="94.824219"/>
      <use xlink:href="#DejaVuSerif-64" x="154.003906"/>
      <use xlink:href="#DejaVuSerif-69" x="218.017578"/>
      <use xlink:href="#DejaVuSerif-61" x="250"/>
      <use xlink:href="#DejaVuSerif-6e" x="309.619141"/>
     </g>
    </g>
   </g>
   <g id="xtick_3">
    <g id="line2d_4">
     <path d="M 51.058707 198.752059 
L 47.735548 199.318533 
" style="fill: none; stroke: #000000; stroke-width: 0.8; stroke-linecap: square"/>
    </g>
    <g id="text_4">
     <!-- downstream -->
     <g transform="translate(7.2 218.875821) scale(0.1 -0.1)">
      <defs>
       <path id="DejaVuSerif-77" d="M 3072 3322 
L 3922 728 
L 4672 2988 
L 4191 2988 
L 4191 3322 
L 5394 3322 
L 5394 2988 
L 5025 2988 
L 4038 0 
L 3559 0 
L 2741 2484 
L 1919 0 
L 1459 0 
L 475 2988 
L 103 2988 
L 103 3322 
L 1606 3322 
L 1606 2988 
L 1069 2988 
L 1813 728 
L 2669 3322 
L 3072 3322 
z
" transform="scale(0.015625)"/>
      </defs>
      <use xlink:href="#DejaVuSerif-64"/>
      <use xlink:href="#DejaVuSerif-6f" x="64.013672"/>
      <use xlink:href="#DejaVuSerif-77" x="124.21875"/>
      <use xlink:href="#DejaVuSerif-6e" x="209.814453"/>
      <use xlink:href="#DejaVuSerif-73" x="274.21875"/>
      <use xlink:href="#DejaVuSerif-74" x="325.537109"/>
      <use xlink:href="#DejaVuSerif-72" x="365.722656"/>
      <use xlink:href="#DejaVuSerif-65" x="413.525391"/>
      <use xlink:href="#DejaVuSerif-61" x="472.705078"/>
      <use xlink:href="#DejaVuSerif-6d" x="532.324219"/>
     </g>
    </g>
   </g>
  </g>
  <g id="axis3d_2">
   <g id="line2d_5">
    <path d="M 283.094378 201.698838 
L 151.124343 227.656639 
" style="fill: none; stroke: #000000; stroke-width: 0.8; stroke-linecap: square"/>
   </g>
   <g id="text_5">
    <!-- $\alpha$ (°) -->
    <g transform="translate(230.855166 248.508825) rotate(-11.127719) scale(0.1 -0.1)">
     <defs>
      <path id="DejaVuSans-Oblique-3b1" d="M 2619 1628 
L 2622 2350 
Q 2625 3088 2069 3091 
Q 1653 3094 1394 2747 
Q 1069 2319 959 1747 
Q 825 1059 994 731 
Q 1169 397 1547 397 
Q 1966 397 2319 1063 
L 2619 1628 
z
M 2166 3578 
Q 3141 3594 3128 2584 
Q 3128 2584 3616 3500 
L 4128 3500 
L 3119 1603 
L 3109 919 
Q 3109 766 3194 638 
Q 3291 488 3391 488 
L 3669 488 
L 3575 0 
L 3228 0 
Q 2934 0 2722 263 
Q 2622 394 2619 669 
Q 2416 334 2066 50 
Q 1900 -81 1453 -78 
Q 722 -72 456 397 
Q 184 884 353 1747 
Q 534 2675 1009 3097 
Q 1544 3569 2166 3578 
z
" transform="scale(0.015625)"/>
      <path id="DejaVuSerif-28" d="M 2041 -997 
Q 1281 -656 893 83 
Q 506 822 506 1931 
Q 506 3044 893 3783 
Q 1281 4522 2041 4863 
L 2041 4556 
Q 1559 4225 1350 3623 
Q 1141 3022 1141 1931 
Q 1141 844 1350 242 
Q 1559 -359 2041 -691 
L 2041 -997 
z
" transform="scale(0.015625)"/>
      <path id="DejaVuSerif-b0" d="M 1600 4319 
Q 1363 4319 1200 4155 
Q 1038 3991 1038 3750 
Q 1038 3513 1198 3353 
Q 1359 3194 1600 3194 
Q 1838 3194 2000 3355 
Q 2163 3516 2163 3750 
Q 2163 3984 1997 4151 
Q 1831 4319 1600 4319 
z
M 1600 4750 
Q 1800 4750 1984 4673 
Q 2169 4597 2303 4453 
Q 2447 4313 2519 4134 
Q 2591 3956 2591 3750 
Q 2591 3338 2302 3052 
Q 2013 2766 1594 2766 
Q 1172 2766 890 3047 
Q 609 3328 609 3750 
Q 609 4169 896 4459 
Q 1184 4750 1600 4750 
z
" transform="scale(0.015625)"/>
      <path id="DejaVuSerif-29" d="M 453 -997 
L 453 -691 
Q 934 -359 1145 242 
Q 1356 844 1356 1931 
Q 1356 3022 1145 3623 
Q 934 4225 453 4556 
L 453 4863 
Q 1216 4522 1603 3783 
Q 1991 3044 1991 1931 
Q 1991 822 1603 83 
Q 1216 -656 453 -997 
z
" transform="scale(0.015625)"/>
     </defs>
     <use xlink:href="#DejaVuSans-Oblique-3b1" transform="translate(0 0.015625)"/>
     <use xlink:href="#DejaVuSerif-20" transform="translate(65.917969 0.015625)"/>
     <use xlink:href="#DejaVuSerif-28" transform="translate(97.705078 0.015625)"/>
     <use xlink:href="#DejaVuSerif-b0" transform="translate(136.71875 0.015625)"/>
     <use xlink:href="#DejaVuSerif-29" transform="translate(186.71875 0.015625)"/>
    </g>
   </g>
   <g id="Line3DCollection_2">
    <path d="M 167.865793 58.78823 
L 167.789746 176.196582 
L 278.584379 202.585931 
" style="fill: none; stroke: #b0b0b0; stroke-width: 0.8"/>
    <path d="M 139.945677 61.616064 
L 140.272766 180.845062 
L 250.465246 208.116814 
" style="fill: none; stroke: #b0b0b0; stroke-width: 0.8"/>
    <path d="M 111.112471 64.53638 
L 111.869122 185.643327 
L 221.355615 213.842523 
" style="fill: none; stroke: #b0b0b0; stroke-width: 0.8"/>
    <path d="M 81.320639 67.553788 
L 82.535258 190.598736 
L 191.202214 219.773536 
" style="fill: none; stroke: #b0b0b0; stroke-width: 0.8"/>
    <path d="M 50.521563 70.673212 
L 52.224714 195.719136 
L 159.947878 225.921097 
" style="fill: none; stroke: #b0b0b0; stroke-width: 0.8"/>
   </g>
   <g id="xtick_4">
    <g id="line2d_6">
     <path d="M 277.618934 202.355979 
L 280.519447 203.04683 
" style="fill: none; stroke: #000000; stroke-width: 0.8; stroke-linecap: square"/>
    </g>
    <g id="text_6">
     <!-- 0° -->
     <g transform="translate(282.83527 223.083909) scale(0.1 -0.1)">
      <defs>
       <path id="DejaVuSerif-30" d="M 2034 219 
Q 2513 219 2750 744 
Q 2988 1269 2988 2328 
Q 2988 3391 2750 3916 
Q 2513 4441 2034 4441 
Q 1556 4441 1318 3916 
Q 1081 3391 1081 2328 
Q 1081 1269 1318 744 
Q 1556 219 2034 219 
z
M 2034 -91 
Q 1275 -91 848 546 
Q 422 1184 422 2328 
Q 422 3475 848 4112 
Q 1275 4750 2034 4750 
Q 2797 4750 3222 4112 
Q 3647 3475 3647 2328 
Q 3647 1184 3222 546 
Q 2797 -91 2034 -91 
z
" transform="scale(0.015625)"/>
      </defs>
      <use xlink:href="#DejaVuSerif-30"/>
      <use xlink:href="#DejaVuSerif-b0" x="63.623047"/>
     </g>
    </g>
   </g>
   <g id="xtick_5">
    <g id="line2d_7">
     <path d="M 249.503687 207.878836 
L 252.392596 208.593818 
" style="fill: none; stroke: #000000; stroke-width: 0.8; stroke-linecap: square"/>
    </g>
    <g id="text_7">
     <!-- 90° -->
     <g transform="translate(251.529995 228.874454) scale(0.1 -0.1)">
      <defs>
       <path id="DejaVuSerif-39" d="M 2994 2091 
Q 2784 1856 2512 1740 
Q 2241 1625 1900 1625 
Q 1206 1625 804 2044 
Q 403 2463 403 3188 
Q 403 3897 839 4323 
Q 1275 4750 2003 4750 
Q 2794 4750 3217 4161 
Q 3641 3572 3641 2478 
Q 3641 1253 3137 581 
Q 2634 -91 1722 -91 
Q 1475 -91 1203 -44 
Q 931 3 647 97 
L 647 872 
L 997 872 
Q 1038 556 1241 387 
Q 1444 219 1784 219 
Q 2391 219 2687 676 
Q 2984 1134 2994 2091 
z
M 1978 4441 
Q 1534 4441 1298 4117 
Q 1063 3794 1063 3188 
Q 1063 2581 1298 2256 
Q 1534 1931 1978 1931 
Q 2422 1931 2658 2245 
Q 2894 2559 2894 3150 
Q 2894 3772 2656 4106 
Q 2419 4441 1978 4441 
z
" transform="scale(0.015625)"/>
      </defs>
      <use xlink:href="#DejaVuSerif-39"/>
      <use xlink:href="#DejaVuSerif-30" x="63.623047"/>
      <use xlink:href="#DejaVuSerif-b0" x="127.246094"/>
     </g>
    </g>
   </g>
   <g id="xtick_6">
    <g id="line2d_8">
     <path d="M 220.398818 213.596091 
L 223.273496 214.33649 
" style="fill: none; stroke: #000000; stroke-width: 0.8; stroke-linecap: square"/>
    </g>
    <g id="text_8">
     <!-- 180° -->
     <g transform="translate(219.227672 234.870284) scale(0.1 -0.1)">
      <defs>
       <path id="DejaVuSerif-31" d="M 909 0 
L 909 331 
L 1722 331 
L 1722 4213 
L 781 3603 
L 781 4013 
L 1919 4750 
L 2350 4750 
L 2350 331 
L 3163 331 
L 3163 0 
L 909 0 
z
" transform="scale(0.015625)"/>
       <path id="DejaVuSerif-38" d="M 2981 1275 
Q 2981 1775 2732 2051 
Q 2484 2328 2034 2328 
Q 1584 2328 1336 2051 
Q 1088 1775 1088 1275 
Q 1088 772 1336 495 
Q 1584 219 2034 219 
Q 2484 219 2732 495 
Q 2981 772 2981 1275 
z
M 2853 3541 
Q 2853 3966 2637 4203 
Q 2422 4441 2034 4441 
Q 1650 4441 1433 4203 
Q 1216 3966 1216 3541 
Q 1216 3113 1433 2875 
Q 1650 2638 2034 2638 
Q 2422 2638 2637 2875 
Q 2853 3113 2853 3541 
z
M 2516 2484 
Q 3047 2413 3344 2092 
Q 3641 1772 3641 1275 
Q 3641 619 3225 264 
Q 2809 -91 2034 -91 
Q 1263 -91 845 264 
Q 428 619 428 1275 
Q 428 1772 725 2092 
Q 1022 2413 1556 2484 
Q 1084 2569 832 2842 
Q 581 3116 581 3541 
Q 581 4103 968 4426 
Q 1356 4750 2034 4750 
Q 2713 4750 3100 4426 
Q 3488 4103 3488 3541 
Q 3488 3116 3236 2842 
Q 2984 2569 2516 2484 
z
" transform="scale(0.015625)"/>
      </defs>
      <use xlink:href="#DejaVuSerif-31"/>
      <use xlink:href="#DejaVuSerif-38" x="63.623047"/>
      <use xlink:href="#DejaVuSerif-30" x="127.246094"/>
      <use xlink:href="#DejaVuSerif-b0" x="190.869141"/>
     </g>
    </g>
   </g>
   <g id="xtick_7">
    <g id="line2d_9">
     <path d="M 190.25114 219.518192 
L 193.108699 220.285387 
" style="fill: none; stroke: #000000; stroke-width: 0.8; stroke-linecap: square"/>
    </g>
    <g id="text_9">
     <!-- 270° -->
     <g transform="translate(189.055575 241.082514) scale(0.1 -0.1)">
      <defs>
       <path id="DejaVuSerif-32" d="M 819 3553 
L 469 3553 
L 469 4384 
Q 803 4563 1142 4656 
Q 1481 4750 1806 4750 
Q 2534 4750 2956 4397 
Q 3378 4044 3378 3438 
Q 3378 2753 2422 1800 
Q 2347 1728 2309 1691 
L 1131 513 
L 3078 513 
L 3078 1088 
L 3444 1088 
L 3444 0 
L 434 0 
L 434 341 
L 1850 1753 
Q 2319 2222 2519 2614 
Q 2719 3006 2719 3438 
Q 2719 3909 2473 4175 
Q 2228 4441 1797 4441 
Q 1350 4441 1106 4219 
Q 863 3997 819 3553 
z
" transform="scale(0.015625)"/>
       <path id="DejaVuSerif-37" d="M 3609 4347 
L 1784 0 
L 1319 0 
L 3059 4153 
L 903 4153 
L 903 3578 
L 538 3578 
L 538 4666 
L 3609 4666 
L 3609 4347 
z
" transform="scale(0.015625)"/>
      </defs>
      <use xlink:href="#DejaVuSerif-32"/>
      <use xlink:href="#DejaVuSerif-37" x="63.623047"/>
      <use xlink:href="#DejaVuSerif-30" x="127.246094"/>
      <use xlink:href="#DejaVuSerif-b0" x="190.869141"/>
     </g>
    </g>
   </g>
   <g id="xtick_8">
    <g id="line2d_10">
     <path d="M 159.003586 225.656349 
L 161.840846 226.451821 
" style="fill: none; stroke: #000000; stroke-width: 0.8; stroke-linecap: square"/>
    </g>
    <g id="text_10">
     <!-- 360° -->
     <g transform="translate(157.774508 247.523072) scale(0.1 -0.1)">
      <defs>
       <path id="DejaVuSerif-33" d="M 622 4469 
Q 988 4606 1323 4678 
Q 1659 4750 1953 4750 
Q 2638 4750 3022 4454 
Q 3406 4159 3406 3634 
Q 3406 3213 3140 2930 
Q 2875 2647 2388 2547 
Q 2963 2466 3280 2130 
Q 3597 1794 3597 1259 
Q 3597 606 3158 257 
Q 2719 -91 1894 -91 
Q 1528 -91 1179 -12 
Q 831 66 488 225 
L 488 1131 
L 838 1131 
Q 869 681 1141 450 
Q 1413 219 1906 219 
Q 2384 219 2661 495 
Q 2938 772 2938 1253 
Q 2938 1803 2653 2086 
Q 2369 2369 1819 2369 
L 1522 2369 
L 1522 2688 
L 1678 2688 
Q 2225 2688 2498 2914 
Q 2772 3141 2772 3597 
Q 2772 4006 2547 4223 
Q 2322 4441 1900 4441 
Q 1478 4441 1245 4241 
Q 1013 4041 972 3647 
L 622 3647 
L 622 4469 
z
" transform="scale(0.015625)"/>
       <path id="DejaVuSerif-36" d="M 2094 219 
Q 2534 219 2771 542 
Q 3009 866 3009 1472 
Q 3009 2078 2771 2401 
Q 2534 2725 2094 2725 
Q 1647 2725 1412 2412 
Q 1178 2100 1178 1509 
Q 1178 888 1415 553 
Q 1653 219 2094 219 
z
M 1075 2569 
Q 1288 2803 1556 2918 
Q 1825 3034 2163 3034 
Q 2859 3034 3264 2615 
Q 3669 2197 3669 1472 
Q 3669 763 3233 336 
Q 2797 -91 2069 -91 
Q 1278 -91 853 498 
Q 428 1088 428 2181 
Q 428 3406 931 4078 
Q 1434 4750 2350 4750 
Q 2597 4750 2869 4703 
Q 3141 4656 3425 4563 
L 3425 3794 
L 3072 3794 
Q 3034 4109 2831 4275 
Q 2628 4441 2284 4441 
Q 1678 4441 1381 3981 
Q 1084 3522 1075 2569 
z
" transform="scale(0.015625)"/>
      </defs>
      <use xlink:href="#DejaVuSerif-33"/>
      <use xlink:href="#DejaVuSerif-36" x="63.623047"/>
      <use xlink:href="#DejaVuSerif-30" x="127.246094"/>
      <use xlink:href="#DejaVuSerif-b0" x="190.869141"/>
     </g>
    </g>
   </g>
  </g>
  <g id="axis3d_3">
   <g id="line2d_11">
    <path d="M 283.094378 201.698838 
L 284.992045 74.318134 
" style="fill: none; stroke: #000000; stroke-width: 0.8; stroke-linecap: square"/>
   </g>
   <g id="Line3DCollection_3">
    <path d="M 283.457642 177.314767 
L 172.237242 153.007202 
L 43.331965 173.112418 
" style="fill: none; stroke: #b0b0b0; stroke-width: 0.8"/>
    <path d="M 283.842622 151.473066 
L 172.265582 129.235205 
L 42.957919 147.627697 
" style="fill: none; stroke: #b0b0b0; stroke-width: 0.8"/>
    <path d="M 284.23006 125.466302 
L 172.294087 105.32398 
L 42.581518 121.98253 
" style="fill: none; stroke: #b0b0b0; stroke-width: 0.8"/>
    <path d="M 284.619981 99.292886 
L 172.322761 81.272299 
L 42.20274 96.175399 
" style="fill: none; stroke: #b0b0b0; stroke-width: 0.8"/>
   </g>
   <g id="xtick_9">
    <g id="line2d_12">
     <path d="M 282.488469 177.102951 
L 285.400184 177.739316 
" style="fill: none; stroke: #000000; stroke-width: 0.8; stroke-linecap: square"/>
    </g>
    <g id="text_11">
     <!-- 5 -->
     <g transform="translate(300.513189 185.267361) scale(0.1 -0.1)">
      <defs>
       <path id="DejaVuSerif-35" d="M 3219 4666 
L 3219 4153 
L 1081 4153 
L 1081 2816 
Q 1244 2928 1461 2984 
Q 1678 3041 1947 3041 
Q 2703 3041 3140 2622 
Q 3578 2203 3578 1478 
Q 3578 738 3136 323 
Q 2694 -91 1894 -91 
Q 1572 -91 1234 -12 
Q 897 66 544 225 
L 544 1131 
L 897 1131 
Q 925 688 1179 453 
Q 1434 219 1894 219 
Q 2388 219 2653 544 
Q 2919 869 2919 1478 
Q 2919 2084 2655 2407 
Q 2391 2731 1894 2731 
Q 1613 2731 1398 2631 
Q 1184 2531 1019 2322 
L 750 2322 
L 750 4666 
L 3219 4666 
z
" transform="scale(0.015625)"/>
      </defs>
      <use xlink:href="#DejaVuSerif-35"/>
     </g>
    </g>
   </g>
   <g id="xtick_10">
    <g id="line2d_13">
     <path d="M 282.870087 151.279235 
L 285.791914 151.86157 
" style="fill: none; stroke: #000000; stroke-width: 0.8; stroke-linecap: square"/>
    </g>
    <g id="text_12">
     <!-- 6 -->
     <g transform="translate(300.963137 159.395592) scale(0.1 -0.1)">
      <use xlink:href="#DejaVuSerif-36"/>
     </g>
    </g>
   </g>
   <g id="xtick_11">
    <g id="line2d_14">
     <path d="M 283.254141 125.29069 
L 286.186149 125.81829 
" style="fill: none; stroke: #000000; stroke-width: 0.8; stroke-linecap: square"/>
    </g>
    <g id="text_13">
     <!-- 7 -->
     <g transform="translate(301.415962 133.358366) scale(0.1 -0.1)">
      <use xlink:href="#DejaVuSerif-37"/>
     </g>
    </g>
   </g>
   <g id="xtick_12">
    <g id="line2d_15">
     <path d="M 283.640654 99.135731 
L 286.582915 99.607882 
" style="fill: none; stroke: #000000; stroke-width: 0.8; stroke-linecap: square"/>
    </g>
    <g id="text_14">
     <!-- 8 -->
     <g transform="translate(301.871692 107.154091) scale(0.1 -0.1)">
      <use xlink:href="#DejaVuSerif-38"/>
     </g>
    </g>
   </g>
  </g>
  <g id="axes_1">
   <g id="Path3DCollection_1">
    <defs>
     <path id="m6f3a16d6dd" d="M 0 2.236068 
C 0.593012 2.236068 1.161816 2.000462 1.581139 1.581139 
C 2.000462 1.161816 2.236068 0.593012 2.236068 0 
C 2.236068 -0.593012 2.000462 -1.161816 1.581139 -1.581139 
C 1.161816 -2.000462 0.593012 -2.236068 0 -2.236068 
C -0.593012 -2.236068 -1.161816 -2.000462 -1.581139 -1.581139 
C -2.000462 -1.161816 -2.236068 -0.593012 -2.236068 0 
C -2.236068 0.593012 -2.000462 1.161816 -1.581139 1.581139 
C -1.161816 2.000462 -0.593012 2.236068 0 2.236068 
z
" style="stroke: #ff0000"/>
    </defs>
    <g clip-path="url(#p8d31ea90b3)">
     <use xlink:href="#m6f3a16d6dd" x="164.514402" y="213.019498" style="fill: #ff0000; stroke: #ff0000"/>
    </g>
   </g>
   <g id="text_15">
    <!-- $e(\alpha)$ (mm) -->
    <g transform="translate(251.936848 56.43405) scale(0.1 -0.1)">
     <defs>
      <path id="DejaVuSans-Oblique-65" d="M 3078 2063 
Q 3088 2113 3092 2166 
Q 3097 2219 3097 2272 
Q 3097 2653 2873 2875 
Q 2650 3097 2266 3097 
Q 1838 3097 1509 2826 
Q 1181 2556 1013 2059 
L 3078 2063 
z
M 3578 1613 
L 903 1613 
Q 884 1494 878 1425 
Q 872 1356 872 1306 
Q 872 872 1139 634 
Q 1406 397 1894 397 
Q 2269 397 2603 481 
Q 2938 566 3225 728 
L 3116 159 
Q 2806 34 2476 -28 
Q 2147 -91 1806 -91 
Q 1078 -91 686 257 
Q 294 606 294 1247 
Q 294 1794 489 2264 
Q 684 2734 1063 3103 
Q 1306 3334 1642 3459 
Q 1978 3584 2356 3584 
Q 2950 3584 3301 3228 
Q 3653 2872 3653 2272 
Q 3653 2128 3634 1964 
Q 3616 1800 3578 1613 
z
" transform="scale(0.015625)"/>
      <path id="DejaVuSans-28" d="M 1984 4856 
Q 1566 4138 1362 3434 
Q 1159 2731 1159 2009 
Q 1159 1288 1364 580 
Q 1569 -128 1984 -844 
L 1484 -844 
Q 1016 -109 783 600 
Q 550 1309 550 2009 
Q 550 2706 781 3412 
Q 1013 4119 1484 4856 
L 1984 4856 
z
" transform="scale(0.015625)"/>
      <path id="DejaVuSans-29" d="M 513 4856 
L 1013 4856 
Q 1481 4119 1714 3412 
Q 1947 2706 1947 2009 
Q 1947 1309 1714 600 
Q 1481 -109 1013 -844 
L 513 -844 
Q 928 -128 1133 580 
Q 1338 1288 1338 2009 
Q 1338 2731 1133 3434 
Q 928 4138 513 4856 
z
" transform="scale(0.015625)"/>
     </defs>
     <use xlink:href="#DejaVuSans-Oblique-65" transform="translate(0 0.015625)"/>
     <use xlink:href="#DejaVuSans-28" transform="translate(61.523438 0.015625)"/>
     <use xlink:href="#DejaVuSans-Oblique-3b1" transform="translate(100.537109 0.015625)"/>
     <use xlink:href="#DejaVuSans-29" transform="translate(166.455078 0.015625)"/>
     <use xlink:href="#DejaVuSerif-20" transform="translate(205.46875 0.015625)"/>
     <use xlink:href="#DejaVuSerif-28" transform="translate(237.255859 0.015625)"/>
     <use xlink:href="#DejaVuSerif-6d" transform="translate(276.269531 0.015625)"/>
     <use xlink:href="#DejaVuSerif-6d" transform="translate(371.09375 0.015625)"/>
     <use xlink:href="#DejaVuSerif-29" transform="translate(465.917969 0.015625)"/>
    </g>
   </g>
   <g id="Line3DCollection_4">
    <path d="M 268.429763 141.6348 
L 217.939672 130.273575 
L 171.173938 70.667177 
" clip-path="url(#p8d31ea90b3)" style="fill: none; stroke: #000000"/>
    <path d="M 264.971534 137.87189 
L 214.517711 121.031644 
L 167.703607 70.087679 
" clip-path="url(#p8d31ea90b3)" style="fill: none; stroke: #000000"/>
    <path d="M 261.493442 135.562402 
L 211.059183 116.893538 
L 164.235037 69.024813 
" clip-path="url(#p8d31ea90b3)" style="fill: none; stroke: #000000"/>
    <path d="M 257.995893 133.416486 
L 207.571545 114.703768 
L 160.751527 68.803195 
" clip-path="url(#p8d31ea90b3)" style="fill: none; stroke: #000000"/>
    <path d="M 254.456901 133.420904 
L 204.076863 110.645372 
L 157.255779 71.644965 
" clip-path="url(#p8d31ea90b3)" style="fill: none; stroke: #000000"/>
    <path d="M 250.808075 142.103491 
L 200.55162 109.151827 
L 153.749666 76.084936 
" clip-path="url(#p8d31ea90b3)" style="fill: none; stroke: #000000"/>
    <path d="M 247.180573 147.907879 
L 196.990104 112.294472 
L 150.229723 78.621828 
" clip-path="url(#p8d31ea90b3)" style="fill: none; stroke: #000000"/>
    <path d="M 243.538817 154.068405 
L 193.446632 107.384776 
L 146.696372 80.548602 
" clip-path="url(#p8d31ea90b3)" style="fill: none; stroke: #000000"/>
    <path d="M 239.917998 156.905709 
L 189.856104 110.673651 
L 143.146163 80.854867 
" clip-path="url(#p8d31ea90b3)" style="fill: none; stroke: #000000"/>
    <path d="M 236.340694 153.435102 
L 186.261043 111.18172 
L 139.574811 78.786639 
" clip-path="url(#p8d31ea90b3)" style="fill: none; stroke: #000000"/>
    <path d="M 232.754888 148.70543 
L 182.655382 109.858395 
L 135.990628 77.897998 
" clip-path="url(#p8d31ea90b3)" style="fill: none; stroke: #000000"/>
    <path d="M 229.120332 147.418405 
L 179.034888 107.550035 
L 132.396109 78.473871 
" clip-path="url(#p8d31ea90b3)" style="fill: none; stroke: #000000"/>
    <path d="M 225.445087 149.151622 
L 175.394909 106.497631 
L 128.785758 78.659354 
" clip-path="url(#p8d31ea90b3)" style="fill: none; stroke: #000000"/>
    <path d="M 221.740297 152.868475 
L 171.734952 108.210149 
L 125.174497 81.948022 
" clip-path="url(#p8d31ea90b3)" style="fill: none; stroke: #000000"/>
    <path d="M 218.020043 156.881919 
L 168.060139 110.425538 
L 121.550305 85.127337 
" clip-path="url(#p8d31ea90b3)" style="fill: none; stroke: #000000"/>
    <path d="M 214.305611 157.924211 
L 164.371395 112.416554 
L 117.900506 85.87535 
" clip-path="url(#p8d31ea90b3)" style="fill: none; stroke: #000000"/>
    <path d="M 210.580121 158.116137 
L 160.668422 115.427244 
L 114.233034 86.13838 
" clip-path="url(#p8d31ea90b3)" style="fill: none; stroke: #000000"/>
    <path d="M 206.84229 157.49248 
L 156.950978 116.925702 
L 110.542827 85.205577 
" clip-path="url(#p8d31ea90b3)" style="fill: none; stroke: #000000"/>
    <path d="M 203.078398 158.554721 
L 153.220208 119.821352 
L 106.838534 84.60589 
" clip-path="url(#p8d31ea90b3)" style="fill: none; stroke: #000000"/>
    <path d="M 199.292638 160.86399 
L 149.476895 123.473513 
L 103.104237 82.09342 
" clip-path="url(#p8d31ea90b3)" style="fill: none; stroke: #000000"/>
    <path d="M 195.482528 165.386073 
L 145.72256 128.25284 
L 99.340676 78.142455 
" clip-path="url(#p8d31ea90b3)" style="fill: none; stroke: #000000"/>
    <path d="M 191.655244 171.024663 
L 141.955038 132.619673 
L 95.58094 77.040923 
" clip-path="url(#p8d31ea90b3)" style="fill: none; stroke: #000000"/>
    <path d="M 187.817637 176.006481 
L 138.178693 138.306526 
L 91.872236 83.851211 
" clip-path="url(#p8d31ea90b3)" style="fill: none; stroke: #000000"/>
    <path d="M 183.967511 180.807813 
L 134.389546 143.628523 
L 88.204773 96.291726 
" clip-path="url(#p8d31ea90b3)" style="fill: none; stroke: #000000"/>
    <path d="M 180.11007 182.918899 
L 130.565218 142.999939 
L 84.583342 114.040208 
" clip-path="url(#p8d31ea90b3)" style="fill: none; stroke: #000000"/>
    <path d="M 176.232657 187.347449 
L 126.734511 144.967187 
L 80.946947 130.280707 
" clip-path="url(#p8d31ea90b3)" style="fill: none; stroke: #000000"/>
    <path d="M 172.341158 192.13408 
L 122.902083 149.695423 
L 77.221024 138.05829 
" clip-path="url(#p8d31ea90b3)" style="fill: none; stroke: #000000"/>
    <path d="M 168.432243 202.326557 
L 119.08357 159.407139 
L 73.394479 137.452774 
" clip-path="url(#p8d31ea90b3)" style="fill: none; stroke: #000000"/>
    <path d="M 164.514402 213.019498 
L 115.272723 171.895559 
L 69.435187 126.728624 
" clip-path="url(#p8d31ea90b3)" style="fill: none; stroke: #000000"/>
    <path d="M 160.585458 209.101574 
L 111.413105 177.449563 
L 65.37703 109.892492 
" clip-path="url(#p8d31ea90b3)" style="fill: none; stroke: #000000"/>
    <path d="M 156.625104 192.524872 
L 107.472079 172.777514 
L 61.311815 95.121036 
" clip-path="url(#p8d31ea90b3)" style="fill: none; stroke: #000000"/>
    <path d="M 152.625862 172.851363 
L 103.456404 160.912741 
L 57.289002 86.085201 
" clip-path="url(#p8d31ea90b3)" style="fill: none; stroke: #000000"/>
    <path d="M 268.429763 141.6348 
L 264.971534 137.87189 
L 261.493442 135.562402 
L 257.995893 133.416486 
L 254.456901 133.420904 
L 250.808075 142.103491 
L 247.180573 147.907879 
L 243.538817 154.068405 
L 239.917998 156.905709 
L 236.340694 153.435102 
L 232.754888 148.70543 
L 229.120332 147.418405 
L 225.445087 149.151622 
L 221.740297 152.868475 
L 218.020043 156.881919 
L 214.305611 157.924211 
L 210.580121 158.116137 
L 206.84229 157.49248 
L 203.078398 158.554721 
L 199.292638 160.86399 
L 195.482528 165.386073 
L 191.655244 171.024663 
L 187.817637 176.006481 
L 183.967511 180.807813 
L 180.11007 182.918899 
L 176.232657 187.347449 
L 172.341158 192.13408 
L 168.432243 202.326557 
L 164.514402 213.019498 
L 160.585458 209.101574 
L 156.625104 192.524872 
L 152.625862 172.851363 
" clip-path="url(#p8d31ea90b3)" style="fill: none; stroke: #000000"/>
    <path d="M 217.939672 130.273575 
L 214.517711 121.031644 
L 211.059183 116.893538 
L 207.571545 114.703768 
L 204.076863 110.645372 
L 200.55162 109.151827 
L 196.990104 112.294472 
L 193.446632 107.384776 
L 189.856104 110.673651 
L 186.261043 111.18172 
L 182.655382 109.858395 
L 179.034888 107.550035 
L 175.394909 106.497631 
L 171.734952 108.210149 
L 168.060139 110.425538 
L 164.371395 112.416554 
L 160.668422 115.427244 
L 156.950978 116.925702 
L 153.220208 119.821352 
L 149.476895 123.473513 
L 145.72256 128.25284 
L 141.955038 132.619673 
L 138.178693 138.306526 
L 134.389546 143.628523 
L 130.565218 142.999939 
L 126.734511 144.967187 
L 122.902083 149.695423 
L 119.08357 159.407139 
L 115.272723 171.895559 
L 111.413105 177.449563 
L 107.472079 172.777514 
L 103.456404 160.912741 
" clip-path="url(#p8d31ea90b3)" style="fill: none; stroke: #000000"/>
    <path d="M 171.173938 70.667177 
L 167.703607 70.087679 
L 164.235037 69.024813 
L 160.751527 68.803195 
L 157.255779 71.644965 
L 153.749666 76.084936 
L 150.229723 78.621828 
L 146.696372 80.548602 
L 143.146163 80.854867 
L 139.574811 78.786639 
L 135.990628 77.897998 
L 132.396109 78.473871 
L 128.785758 78.659354 
L 125.174497 81.948022 
L 121.550305 85.127337 
L 117.900506 85.87535 
L 114.233034 86.13838 
L 110.542827 85.205577 
L 106.838534 84.60589 
L 103.104237 82.09342 
L 99.340676 78.142455 
L 95.58094 77.040923 
L 91.872236 83.851211 
L 88.204773 96.291726 
L 84.583342 114.040208 
L 80.946947 130.280707 
L 77.221024 138.05829 
L 73.394479 137.452774 
L 69.435187 126.728624 
L 65.37703 109.892492 
L 61.311815 95.121036 
L 57.289002 86.085201 
" clip-path="url(#p8d31ea90b3)" style="fill: none; stroke: #000000"/>
   </g>
   <g id="Poly3DCollection_1">
    <path d="M 217.939672 130.273575 
L 171.173938 70.667177 
L 167.703607 70.087679 
L 214.517711 121.031644 
z
" clip-path="url(#p8d31ea90b3)" style="fill: #0000ff; fill-opacity: 0.5"/>
    <path d="M 214.517711 121.031644 
L 167.703607 70.087679 
L 164.235037 69.024813 
L 211.059183 116.893538 
z
" clip-path="url(#p8d31ea90b3)" style="fill: #0000d1; fill-opacity: 0.5"/>
    <path d="M 211.059183 116.893538 
L 164.235037 69.024813 
L 160.751527 68.803195 
L 207.571545 114.703768 
z
" clip-path="url(#p8d31ea90b3)" style="fill: #0000ad; fill-opacity: 0.5"/>
    <path d="M 207.571545 114.703768 
L 160.751527 68.803195 
L 157.255779 71.644965 
L 204.076863 110.645372 
z
" clip-path="url(#p8d31ea90b3)" style="fill: #00009b; fill-opacity: 0.5"/>
    <path d="M 204.076863 110.645372 
L 157.255779 71.644965 
L 153.749666 76.084936 
L 200.55162 109.151827 
z
" clip-path="url(#p8d31ea90b3)" style="fill: #00009b; fill-opacity: 0.5"/>
    <path d="M 200.55162 109.151827 
L 153.749666 76.084936 
L 150.229723 78.621828 
L 196.990104 112.294472 
z
" clip-path="url(#p8d31ea90b3)" style="fill: #0000b6; fill-opacity: 0.5"/>
    <path d="M 196.990104 112.294472 
L 150.229723 78.621828 
L 146.696372 80.548602 
L 193.446632 107.384776 
z
" clip-path="url(#p8d31ea90b3)" style="fill: #0000bb; fill-opacity: 0.5"/>
    <path d="M 193.446632 107.384776 
L 146.696372 80.548602 
L 143.146163 80.854867 
L 189.856104 110.673651 
z
" clip-path="url(#p8d31ea90b3)" style="fill: #0000b6; fill-opacity: 0.5"/>
    <path d="M 189.856104 110.673651 
L 143.146163 80.854867 
L 139.574811 78.786639 
L 186.261043 111.18172 
z
" clip-path="url(#p8d31ea90b3)" style="fill: #0000b6; fill-opacity: 0.5"/>
    <path d="M 186.261043 111.18172 
L 139.574811 78.786639 
L 135.990628 77.897998 
L 182.655382 109.858395 
z
" clip-path="url(#p8d31ea90b3)" style="fill: #0000a4; fill-opacity: 0.5"/>
    <path d="M 182.655382 109.858395 
L 135.990628 77.897998 
L 132.396109 78.473871 
L 179.034888 107.550035 
z
" clip-path="url(#p8d31ea90b3)" style="fill: #00008d; fill-opacity: 0.5"/>
    <path d="M 179.034888 107.550035 
L 132.396109 78.473871 
L 128.785758 78.659354 
L 175.394909 106.497631 
z
" clip-path="url(#p8d31ea90b3)" style="fill: #000080; fill-opacity: 0.5"/>
    <path d="M 175.394909 106.497631 
L 128.785758 78.659354 
L 125.174497 81.948022 
L 171.734952 108.210149 
z
" clip-path="url(#p8d31ea90b3)" style="fill: #000084; fill-opacity: 0.5"/>
    <path d="M 171.734952 108.210149 
L 125.174497 81.948022 
L 121.550305 85.127337 
L 168.060139 110.425538 
z
" clip-path="url(#p8d31ea90b3)" style="fill: #0000a8; fill-opacity: 0.5"/>
    <path d="M 168.060139 110.425538 
L 121.550305 85.127337 
L 117.900506 85.87535 
L 164.371395 112.416554 
z
" clip-path="url(#p8d31ea90b3)" style="fill: #0000bf; fill-opacity: 0.5"/>
    <path d="M 164.371395 112.416554 
L 117.900506 85.87535 
L 114.233034 86.13838 
L 160.668422 115.427244 
z
" clip-path="url(#p8d31ea90b3)" style="fill: #0000cd; fill-opacity: 0.5"/>
    <path d="M 160.668422 115.427244 
L 114.233034 86.13838 
L 110.542827 85.205577 
L 156.950978 116.925702 
z
" clip-path="url(#p8d31ea90b3)" style="fill: #0000d6; fill-opacity: 0.5"/>
    <path d="M 268.429763 141.6348 
L 217.939672 130.273575 
L 214.517711 121.031644 
L 264.971534 137.87189 
z
" clip-path="url(#p8d31ea90b3)" style="fill: #60ff97; fill-opacity: 0.5"/>
    <path d="M 156.950978 116.925702 
L 110.542827 85.205577 
L 106.838534 84.60589 
L 153.220208 119.821352 
z
" clip-path="url(#p8d31ea90b3)" style="fill: #0000d6; fill-opacity: 0.5"/>
    <path d="M 153.220208 119.821352 
L 106.838534 84.60589 
L 103.104237 82.09342 
L 149.476895 123.473513 
z
" clip-path="url(#p8d31ea90b3)" style="fill: #0000df; fill-opacity: 0.5"/>
    <path d="M 264.971534 137.87189 
L 214.517711 121.031644 
L 211.059183 116.893538 
L 261.493442 135.562402 
z
" clip-path="url(#p8d31ea90b3)" style="fill: #26ffd1; fill-opacity: 0.5"/>
    <path d="M 149.476895 123.473513 
L 103.104237 82.09342 
L 99.340676 78.142455 
L 145.72256 128.25284 
z
" clip-path="url(#p8d31ea90b3)" style="fill: #0000df; fill-opacity: 0.5"/>
    <path d="M 261.493442 135.562402 
L 211.059183 116.893538 
L 207.571545 114.703768 
L 257.995893 133.416486 
z
" clip-path="url(#p8d31ea90b3)" style="fill: #02e8f4; fill-opacity: 0.5"/>
    <path d="M 145.72256 128.25284 
L 99.340676 78.142455 
L 95.58094 77.040923 
L 141.955038 132.619673 
z
" clip-path="url(#p8d31ea90b3)" style="fill: #0000e4; fill-opacity: 0.5"/>
    <path d="M 257.995893 133.416486 
L 207.571545 114.703768 
L 204.076863 110.645372 
L 254.456901 133.420904 
z
" clip-path="url(#p8d31ea90b3)" style="fill: #00c8ff; fill-opacity: 0.5"/>
    <path d="M 141.955038 132.619673 
L 95.58094 77.040923 
L 91.872236 83.851211 
L 138.178693 138.306526 
z
" clip-path="url(#p8d31ea90b3)" style="fill: #0005ff; fill-opacity: 0.5"/>
    <path d="M 138.178693 138.306526 
L 91.872236 83.851211 
L 88.204773 96.291726 
L 134.389546 143.628523 
z
" clip-path="url(#p8d31ea90b3)" style="fill: #0060ff; fill-opacity: 0.5"/>
    <path d="M 254.456901 133.420904 
L 204.076863 110.645372 
L 200.55162 109.151827 
L 250.808075 142.103491 
z
" clip-path="url(#p8d31ea90b3)" style="fill: #00ccff; fill-opacity: 0.5"/>
    <path d="M 134.389546 143.628523 
L 88.204773 96.291726 
L 84.583342 114.040208 
L 130.565218 142.999939 
z
" clip-path="url(#p8d31ea90b3)" style="fill: #00ccff; fill-opacity: 0.5"/>
    <path d="M 250.808075 142.103491 
L 200.55162 109.151827 
L 196.990104 112.294472 
L 247.180573 147.907879 
z
" clip-path="url(#p8d31ea90b3)" style="fill: #0ff8e7; fill-opacity: 0.5"/>
    <path d="M 130.565218 142.999939 
L 84.583342 114.040208 
L 80.946947 130.280707 
L 126.734511 144.967187 
z
" clip-path="url(#p8d31ea90b3)" style="fill: #43ffb4; fill-opacity: 0.5"/>
    <path d="M 126.734511 144.967187 
L 80.946947 130.280707 
L 77.221024 138.05829 
L 122.902083 149.695423 
z
" clip-path="url(#p8d31ea90b3)" style="fill: #8dff6a; fill-opacity: 0.5"/>
    <path d="M 247.180573 147.907879 
L 196.990104 112.294472 
L 193.446632 107.384776 
L 243.538817 154.068405 
z
" clip-path="url(#p8d31ea90b3)" style="fill: #23ffd4; fill-opacity: 0.5"/>
    <path d="M 122.902083 149.695423 
L 77.221024 138.05829 
L 73.394479 137.452774 
L 119.08357 159.407139 
z
" clip-path="url(#p8d31ea90b3)" style="fill: #c1ff36; fill-opacity: 0.5"/>
    <path d="M 243.538817 154.068405 
L 193.446632 107.384776 
L 189.856104 110.673651 
L 239.917998 156.905709 
z
" clip-path="url(#p8d31ea90b3)" style="fill: #30ffc7; fill-opacity: 0.5"/>
    <path d="M 119.08357 159.407139 
L 73.394479 137.452774 
L 69.435187 126.728624 
L 115.272723 171.895559 
z
" clip-path="url(#p8d31ea90b3)" style="fill: #d4ff23; fill-opacity: 0.5"/>
    <path d="M 239.917998 156.905709 
L 189.856104 110.673651 
L 186.261043 111.18172 
L 236.340694 153.435102 
z
" clip-path="url(#p8d31ea90b3)" style="fill: #33ffc4; fill-opacity: 0.5"/>
    <path d="M 115.272723 171.895559 
L 69.435187 126.728624 
L 65.37703 109.892492 
L 111.413105 177.449563 
z
" clip-path="url(#p8d31ea90b3)" style="fill: #b4ff43; fill-opacity: 0.5"/>
    <path d="M 236.340694 153.435102 
L 186.261043 111.18172 
L 182.655382 109.858395 
L 232.754888 148.70543 
z
" clip-path="url(#p8d31ea90b3)" style="fill: #16ffe1; fill-opacity: 0.5"/>
    <path d="M 111.413105 177.449563 
L 65.37703 109.892492 
L 61.311815 95.121036 
L 107.472079 172.777514 
z
" clip-path="url(#p8d31ea90b3)" style="fill: #60ff97; fill-opacity: 0.5"/>
    <path d="M 232.754888 148.70543 
L 182.655382 109.858395 
L 179.034888 107.550035 
L 229.120332 147.418405 
z
" clip-path="url(#p8d31ea90b3)" style="fill: #00dcfe; fill-opacity: 0.5"/>
    <path d="M 229.120332 147.418405 
L 179.034888 107.550035 
L 175.394909 106.497631 
L 225.445087 149.151622 
z
" clip-path="url(#p8d31ea90b3)" style="fill: #00ccff; fill-opacity: 0.5"/>
    <path d="M 107.472079 172.777514 
L 61.311815 95.121036 
L 57.289002 86.085201 
L 103.456404 160.912741 
z
" clip-path="url(#p8d31ea90b3)" style="fill: #00d4ff; fill-opacity: 0.5"/>
    <path d="M 225.445087 149.151622 
L 175.394909 106.497631 
L 171.734952 108.210149 
L 221.740297 152.868475 
z
" clip-path="url(#p8d31ea90b3)" style="fill: #00d8ff; fill-opacity: 0.5"/>
    <path d="M 221.740297 152.868475 
L 171.734952 108.210149 
L 168.060139 110.425538 
L 218.020043 156.881919 
z
" clip-path="url(#p8d31ea90b3)" style="fill: #0ff8e7; fill-opacity: 0.5"/>
    <path d="M 218.020043 156.881919 
L 168.060139 110.425538 
L 164.371395 112.416554 
L 214.305611 157.924211 
z
" clip-path="url(#p8d31ea90b3)" style="fill: #1fffd7; fill-opacity: 0.5"/>
    <path d="M 214.305611 157.924211 
L 164.371395 112.416554 
L 160.668422 115.427244 
L 210.580121 158.116137 
z
" clip-path="url(#p8d31ea90b3)" style="fill: #29ffce; fill-opacity: 0.5"/>
    <path d="M 210.580121 158.116137 
L 160.668422 115.427244 
L 156.950978 116.925702 
L 206.84229 157.49248 
z
" clip-path="url(#p8d31ea90b3)" style="fill: #30ffc7; fill-opacity: 0.5"/>
    <path d="M 206.84229 157.49248 
L 156.950978 116.925702 
L 153.220208 119.821352 
L 203.078398 158.554721 
z
" clip-path="url(#p8d31ea90b3)" style="fill: #36ffc1; fill-opacity: 0.5"/>
    <path d="M 203.078398 158.554721 
L 153.220208 119.821352 
L 149.476895 123.473513 
L 199.292638 160.86399 
z
" clip-path="url(#p8d31ea90b3)" style="fill: #49ffad; fill-opacity: 0.5"/>
    <path d="M 199.292638 160.86399 
L 149.476895 123.473513 
L 145.72256 128.25284 
L 195.482528 165.386073 
z
" clip-path="url(#p8d31ea90b3)" style="fill: #6aff8d; fill-opacity: 0.5"/>
    <path d="M 195.482528 165.386073 
L 145.72256 128.25284 
L 141.955038 132.619673 
L 191.655244 171.024663 
z
" clip-path="url(#p8d31ea90b3)" style="fill: #97ff60; fill-opacity: 0.5"/>
    <path d="M 191.655244 171.024663 
L 141.955038 132.619673 
L 138.178693 138.306526 
L 187.817637 176.006481 
z
" clip-path="url(#p8d31ea90b3)" style="fill: #c4ff33; fill-opacity: 0.5"/>
    <path d="M 187.817637 176.006481 
L 138.178693 138.306526 
L 134.389546 143.628523 
L 183.967511 180.807813 
z
" clip-path="url(#p8d31ea90b3)" style="fill: #f1fc06; fill-opacity: 0.5"/>
    <path d="M 183.967511 180.807813 
L 134.389546 143.628523 
L 130.565218 142.999939 
L 180.11007 182.918899 
z
" clip-path="url(#p8d31ea90b3)" style="fill: #ffe200; fill-opacity: 0.5"/>
    <path d="M 180.11007 182.918899 
L 130.565218 142.999939 
L 126.734511 144.967187 
L 176.232657 187.347449 
z
" clip-path="url(#p8d31ea90b3)" style="fill: #ffd000; fill-opacity: 0.5"/>
    <path d="M 176.232657 187.347449 
L 126.734511 144.967187 
L 122.902083 149.695423 
L 172.341158 192.13408 
z
" clip-path="url(#p8d31ea90b3)" style="fill: #ffab00; fill-opacity: 0.5"/>
    <path d="M 172.341158 192.13408 
L 122.902083 149.695423 
L 119.08357 159.407139 
L 168.432243 202.326557 
z
" clip-path="url(#p8d31ea90b3)" style="fill: #ff5d00; fill-opacity: 0.5"/>
    <path d="M 168.432243 202.326557 
L 119.08357 159.407139 
L 115.272723 171.895559 
L 164.514402 213.019498 
z
" clip-path="url(#p8d31ea90b3)" style="fill: #cd0000; fill-opacity: 0.5"/>
    <path d="M 164.514402 213.019498 
L 115.272723 171.895559 
L 111.413105 177.449563 
L 160.585458 209.101574 
z
" clip-path="url(#p8d31ea90b3)" style="fill: #800000; fill-opacity: 0.5"/>
    <path d="M 160.585458 209.101574 
L 111.413105 177.449563 
L 107.472079 172.777514 
L 156.625104 192.524872 
z
" clip-path="url(#p8d31ea90b3)" style="fill: #c80000; fill-opacity: 0.5"/>
    <path d="M 156.625104 192.524872 
L 107.472079 172.777514 
L 103.456404 160.912741 
L 152.625862 172.851363 
z
" clip-path="url(#p8d31ea90b3)" style="fill: #ff8600; fill-opacity: 0.5"/>
   </g>
   <g id="text_16">
    <!-- min air gap -->
    <g style="fill: #ff0000" transform="translate(172.474549 203.382658) scale(0.1 -0.1)">
     <defs>
      <path id="DejaVuSerif-67" d="M 3359 2988 
L 3359 72 
Q 3359 -644 2965 -1033 
Q 2572 -1422 1844 -1422 
Q 1516 -1422 1216 -1362 
Q 916 -1303 641 -1184 
L 641 -488 
L 941 -488 
Q 997 -813 1206 -963 
Q 1416 -1113 1806 -1113 
Q 2313 -1113 2548 -827 
Q 2784 -541 2784 72 
L 2784 519 
Q 2616 206 2355 57 
Q 2094 -91 1709 -91 
Q 1097 -91 708 395 
Q 319 881 319 1663 
Q 319 2444 706 2928 
Q 1094 3413 1709 3413 
Q 2094 3413 2355 3264 
Q 2616 3116 2784 2803 
L 2784 3322 
L 3909 3322 
L 3909 2988 
L 3359 2988 
z
M 2784 1825 
Q 2784 2422 2554 2737 
Q 2325 3053 1888 3053 
Q 1444 3053 1217 2703 
Q 991 2353 991 1663 
Q 991 975 1217 622 
Q 1444 269 1888 269 
Q 2325 269 2554 583 
Q 2784 897 2784 1497 
L 2784 1825 
z
" transform="scale(0.015625)"/>
     </defs>
     <use xlink:href="#DejaVuSerif-6d"/>
     <use xlink:href="#DejaVuSerif-69" x="94.824219"/>
     <use xlink:href="#DejaVuSerif-6e" x="126.806641"/>
     <use xlink:href="#DejaVuSerif-20" x="191.210938"/>
     <use xlink:href="#DejaVuSerif-61" x="222.998047"/>
     <use xlink:href="#DejaVuSerif-69" x="282.617188"/>
     <use xlink:href="#DejaVuSerif-72" x="314.599609"/>
     <use xlink:href="#DejaVuSerif-20" x="362.402344"/>
     <use xlink:href="#DejaVuSerif-67" x="394.189453"/>
     <use xlink:href="#DejaVuSerif-61" x="458.203125"/>
     <use xlink:href="#DejaVuSerif-70" x="517.822266"/>
    </g>
   </g>
   <g id="text_17">
    <!-- e=4.36 -->
    <g style="fill: #ff0000" transform="translate(172.461236 214.216324) scale(0.1 -0.1)">
     <defs>
      <path id="DejaVuSerif-3d" d="M 678 2894 
L 4684 2894 
L 4684 2394 
L 678 2394 
L 678 2894 
z
M 678 1619 
L 4684 1619 
L 4684 1119 
L 678 1119 
L 678 1619 
z
" transform="scale(0.015625)"/>
      <path id="DejaVuSerif-34" d="M 2234 1581 
L 2234 4063 
L 641 1581 
L 2234 1581 
z
M 3609 0 
L 1484 0 
L 1484 331 
L 2234 331 
L 2234 1247 
L 197 1247 
L 197 1588 
L 2241 4750 
L 2859 4750 
L 2859 1581 
L 3750 1581 
L 3750 1247 
L 2859 1247 
L 2859 331 
L 3609 331 
L 3609 0 
z
" transform="scale(0.015625)"/>
      <path id="DejaVuSerif-2e" d="M 603 325 
Q 603 500 722 622 
Q 841 744 1019 744 
Q 1191 744 1312 622 
Q 1434 500 1434 325 
Q 1434 153 1312 31 
Q 1191 -91 1019 -91 
Q 841 -91 722 29 
Q 603 150 603 325 
z
" transform="scale(0.015625)"/>
     </defs>
     <use xlink:href="#DejaVuSerif-65"/>
     <use xlink:href="#DejaVuSerif-3d" x="59.179688"/>
     <use xlink:href="#DejaVuSerif-34" x="142.96875"/>
     <use xlink:href="#DejaVuSerif-2e" x="206.591797"/>
     <use xlink:href="#DejaVuSerif-33" x="238.378906"/>
     <use xlink:href="#DejaVuSerif-36" x="302.001953"/>
    </g>
   </g>
  </g>
 </g>
 <defs>
  <clipPath id="p8d31ea90b3">
   <rect x="25.879309" y="7.2" width="266.112" height="266.112"/>
  </clipPath>
 </defs>
</svg>
