<?xml version="1.0" encoding="utf-8" standalone="no"?>
<!DOCTYPE svg PUBLIC "-//W3C//DTD SVG 1.1//EN"
  "http://www.w3.org/Graphics/SVG/1.1/DTD/svg11.dtd">
<svg xmlns:xlink="http://www.w3.org/1999/xlink" width="334.516839pt" height="318.190125pt" viewBox="0 0 334.516839 318.190125" xmlns="http://www.w3.org/2000/svg" version="1.1">
 <metadata>
  <rdf:RDF xmlns:dc="http://purl.org/dc/elements/1.1/" xmlns:cc="http://creativecommons.org/ns#" xmlns:rdf="http://www.w3.org/1999/02/22-rdf-syntax-ns#">
   <cc:Work>
    <dc:type rdf:resource="http://purl.org/dc/dcmitype/StillImage"/>
    <dc:date>2022-11-16T18:01:20.875975</dc:date>
    <dc:format>image/svg+xml</dc:format>
    <dc:creator>
     <cc:Agent>
      <dc:title>Matplotlib v3.6.2, https://matplotlib.org/</dc:title>
     </cc:Agent>
    </dc:creator>
   </cc:Work>
  </rdf:RDF>
 </metadata>
 <defs>
  <style type="text/css">*{stroke-linejoin: round; stroke-linecap: butt}</style>
 </defs>
 <g id="figure_1">
  <g id="patch_1">
   <path d="M 0 318.190125 
L 334.516839 318.190125 
L 334.516839 0 
L 0 0 
z
" style="fill: #ffffff"/>
  </g>
  <g id="axes_1">
   <g id="patch_2">
    <path d="M 299.35575 159.095062 
C 299.35575 141.622309 295.913998 124.319455 289.227465 108.176736 
C 282.540932 92.034016 272.739653 77.365365 260.38455 65.010263 
C 248.029447 52.65516 233.360796 42.853881 217.218077 36.167347 
C 201.075357 29.480814 183.772504 26.039062 166.29975 26.039062 
C 148.826996 26.039062 131.524143 29.480814 115.381423 36.167347 
C 99.238704 42.853881 84.570053 52.65516 72.21495 65.010263 
C 59.859847 77.365365 50.058568 92.034016 43.372035 108.176736 
C 36.685502 124.319455 33.24375 141.622309 33.24375 159.095062 
C 33.24375 176.567816 36.685502 193.87067 43.372035 210.013389 
C 50.058568 226.156109 59.859847 240.82476 72.21495 253.179862 
C 84.570053 265.534965 99.238704 275.336244 115.381423 282.022778 
C 131.524143 288.709311 148.826996 292.151062 166.29975 292.151062 
C 183.772504 292.151062 201.075357 288.709311 217.218077 282.022778 
C 233.360796 275.336244 248.029447 265.534965 260.38455 253.179862 
C 272.739653 240.82476 282.540932 226.156109 289.227465 210.013389 
C 295.913998 193.87067 299.35575 176.567816 299.35575 159.095062 
M 166.29975 159.095062 
C 166.29975 159.095062 166.29975 159.095062 166.29975 159.095062 
C 166.29975 159.095062 166.29975 159.095062 166.29975 159.095062 
C 166.29975 159.095062 166.29975 159.095062 166.29975 159.095062 
C 166.29975 159.095062 166.29975 159.095062 166.29975 159.095062 
C 166.29975 159.095062 166.29975 159.095062 166.29975 159.095062 
C 166.29975 159.095062 166.29975 159.095062 166.29975 159.095062 
C 166.29975 159.095062 166.29975 159.095062 166.29975 159.095062 
C 166.29975 159.095062 166.29975 159.095062 166.29975 159.095062 
C 166.29975 159.095062 166.29975 159.095062 166.29975 159.095062 
C 166.29975 159.095062 166.29975 159.095062 166.29975 159.095062 
C 166.29975 159.095062 166.29975 159.095062 166.29975 159.095062 
C 166.29975 159.095062 166.29975 159.095062 166.29975 159.095062 
C 166.29975 159.095062 166.29975 159.095062 166.29975 159.095062 
C 166.29975 159.095062 166.29975 159.095062 166.29975 159.095062 
C 166.29975 159.095062 166.29975 159.095062 166.29975 159.095062 
C 166.29975 159.095062 166.29975 159.095062 166.29975 159.095062 
M 299.35575 159.095062 
z
" style="fill: #ffffff"/>
   </g>
   <g id="matplotlib.axis_1">
    <g id="xtick_1">
     <g id="line2d_1">
      <path d="M 166.29975 159.095062 
L 299.35575 159.095062 
" clip-path="url(#p0f76229f3e)" style="fill: none; stroke: #b0b0b0; stroke-width: 0.8; stroke-linecap: square"/>
     </g>
     <g id="text_1">
      <!-- 0° -->
      <g transform="translate(307.6745 161.854437) scale(0.1 -0.1)">
       <defs>
        <path id="DejaVuSerif-30" d="M 2034 219 
Q 2513 219 2750 744 
Q 2988 1269 2988 2328 
Q 2988 3391 2750 3916 
Q 2513 4441 2034 4441 
Q 1556 4441 1318 3916 
Q 1081 3391 1081 2328 
Q 1081 1269 1318 744 
Q 1556 219 2034 219 
z
M 2034 -91 
Q 1275 -91 848 546 
Q 422 1184 422 2328 
Q 422 3475 848 4112 
Q 1275 4750 2034 4750 
Q 2797 4750 3222 4112 
Q 3647 3475 3647 2328 
Q 3647 1184 3222 546 
Q 2797 -91 2034 -91 
z
" transform="scale(0.015625)"/>
        <path id="DejaVuSerif-b0" d="M 1600 4319 
Q 1363 4319 1200 4155 
Q 1038 3991 1038 3750 
Q 1038 3513 1198 3353 
Q 1359 3194 1600 3194 
Q 1838 3194 2000 3355 
Q 2163 3516 2163 3750 
Q 2163 3984 1997 4151 
Q 1831 4319 1600 4319 
z
M 1600 4750 
Q 1800 4750 1984 4673 
Q 2169 4597 2303 4453 
Q 2447 4313 2519 4134 
Q 2591 3956 2591 3750 
Q 2591 3338 2302 3052 
Q 2013 2766 1594 2766 
Q 1172 2766 890 3047 
Q 609 3328 609 3750 
Q 609 4169 896 4459 
Q 1184 4750 1600 4750 
z
" transform="scale(0.015625)"/>
       </defs>
       <use xlink:href="#DejaVuSerif-30"/>
       <use xlink:href="#DejaVuSerif-b0" x="63.623047"/>
      </g>
     </g>
    </g>
    <g id="xtick_2">
     <g id="line2d_2">
      <path d="M 166.29975 159.095062 
L 260.38455 65.010263 
" clip-path="url(#p0f76229f3e)" style="fill: none; stroke: #b0b0b0; stroke-width: 0.8; stroke-linecap: square"/>
     </g>
     <g id="text_2">
      <!-- 45° -->
      <g transform="translate(261.421545 57.870143) scale(0.1 -0.1)">
       <defs>
        <path id="DejaVuSerif-34" d="M 2234 1581 
L 2234 4063 
L 641 1581 
L 2234 1581 
z
M 3609 0 
L 1484 0 
L 1484 331 
L 2234 331 
L 2234 1247 
L 197 1247 
L 197 1588 
L 2241 4750 
L 2859 4750 
L 2859 1581 
L 3750 1581 
L 3750 1247 
L 2859 1247 
L 2859 331 
L 3609 331 
L 3609 0 
z
" transform="scale(0.015625)"/>
        <path id="DejaVuSerif-35" d="M 3219 4666 
L 3219 4153 
L 1081 4153 
L 1081 2816 
Q 1244 2928 1461 2984 
Q 1678 3041 1947 3041 
Q 2703 3041 3140 2622 
Q 3578 2203 3578 1478 
Q 3578 738 3136 323 
Q 2694 -91 1894 -91 
Q 1572 -91 1234 -12 
Q 897 66 544 225 
L 544 1131 
L 897 1131 
Q 925 688 1179 453 
Q 1434 219 1894 219 
Q 2388 219 2653 544 
Q 2919 869 2919 1478 
Q 2919 2084 2655 2407 
Q 2391 2731 1894 2731 
Q 1613 2731 1398 2631 
Q 1184 2531 1019 2322 
L 750 2322 
L 750 4666 
L 3219 4666 
z
" transform="scale(0.015625)"/>
       </defs>
       <use xlink:href="#DejaVuSerif-34"/>
       <use xlink:href="#DejaVuSerif-35" x="63.623047"/>
       <use xlink:href="#DejaVuSerif-b0" x="127.246094"/>
      </g>
     </g>
    </g>
    <g id="xtick_3">
     <g id="line2d_3">
      <path d="M 166.29975 159.095062 
L 166.29975 26.039062 
" clip-path="url(#p0f76229f3e)" style="fill: none; stroke: #b0b0b0; stroke-width: 0.8; stroke-linecap: square"/>
     </g>
     <g id="text_3">
      <!-- 90° -->
      <g transform="translate(157.43725 14.798437) scale(0.1 -0.1)">
       <defs>
        <path id="DejaVuSerif-39" d="M 2994 2091 
Q 2784 1856 2512 1740 
Q 2241 1625 1900 1625 
Q 1206 1625 804 2044 
Q 403 2463 403 3188 
Q 403 3897 839 4323 
Q 1275 4750 2003 4750 
Q 2794 4750 3217 4161 
Q 3641 3572 3641 2478 
Q 3641 1253 3137 581 
Q 2634 -91 1722 -91 
Q 1475 -91 1203 -44 
Q 931 3 647 97 
L 647 872 
L 997 872 
Q 1038 556 1241 387 
Q 1444 219 1784 219 
Q 2391 219 2687 676 
Q 2984 1134 2994 2091 
z
M 1978 4441 
Q 1534 4441 1298 4117 
Q 1063 3794 1063 3188 
Q 1063 2581 1298 2256 
Q 1534 1931 1978 1931 
Q 2422 1931 2658 2245 
Q 2894 2559 2894 3150 
Q 2894 3772 2656 4106 
Q 2419 4441 1978 4441 
z
" transform="scale(0.015625)"/>
       </defs>
       <use xlink:href="#DejaVuSerif-39"/>
       <use xlink:href="#DejaVuSerif-30" x="63.623047"/>
       <use xlink:href="#DejaVuSerif-b0" x="127.246094"/>
      </g>
     </g>
    </g>
    <g id="xtick_4">
     <g id="line2d_4">
      <path d="M 166.29975 159.095062 
L 72.21495 65.010263 
" clip-path="url(#p0f76229f3e)" style="fill: none; stroke: #b0b0b0; stroke-width: 0.8; stroke-linecap: square"/>
     </g>
     <g id="text_4">
      <!-- 135° -->
      <g transform="translate(50.271705 57.870143) scale(0.1 -0.1)">
       <defs>
        <path id="DejaVuSerif-31" d="M 909 0 
L 909 331 
L 1722 331 
L 1722 4213 
L 781 3603 
L 781 4013 
L 1919 4750 
L 2350 4750 
L 2350 331 
L 3163 331 
L 3163 0 
L 909 0 
z
" transform="scale(0.015625)"/>
        <path id="DejaVuSerif-33" d="M 622 4469 
Q 988 4606 1323 4678 
Q 1659 4750 1953 4750 
Q 2638 4750 3022 4454 
Q 3406 4159 3406 3634 
Q 3406 3213 3140 2930 
Q 2875 2647 2388 2547 
Q 2963 2466 3280 2130 
Q 3597 1794 3597 1259 
Q 3597 606 3158 257 
Q 2719 -91 1894 -91 
Q 1528 -91 1179 -12 
Q 831 66 488 225 
L 488 1131 
L 838 1131 
Q 869 681 1141 450 
Q 1413 219 1906 219 
Q 2384 219 2661 495 
Q 2938 772 2938 1253 
Q 2938 1803 2653 2086 
Q 2369 2369 1819 2369 
L 1522 2369 
L 1522 2688 
L 1678 2688 
Q 2225 2688 2498 2914 
Q 2772 3141 2772 3597 
Q 2772 4006 2547 4223 
Q 2322 4441 1900 4441 
Q 1478 4441 1245 4241 
Q 1013 4041 972 3647 
L 622 3647 
L 622 4469 
z
" transform="scale(0.015625)"/>
       </defs>
       <use xlink:href="#DejaVuSerif-31"/>
       <use xlink:href="#DejaVuSerif-33" x="63.623047"/>
       <use xlink:href="#DejaVuSerif-35" x="127.246094"/>
       <use xlink:href="#DejaVuSerif-b0" x="190.869141"/>
      </g>
     </g>
    </g>
    <g id="xtick_5">
     <g id="line2d_5">
      <path d="M 166.29975 159.095062 
L 33.24375 159.095062 
" clip-path="url(#p0f76229f3e)" style="fill: none; stroke: #b0b0b0; stroke-width: 0.8; stroke-linecap: square"/>
     </g>
     <g id="text_5">
      <!-- 180° -->
      <g transform="translate(7.2 161.854437) scale(0.1 -0.1)">
       <defs>
        <path id="DejaVuSerif-38" d="M 2981 1275 
Q 2981 1775 2732 2051 
Q 2484 2328 2034 2328 
Q 1584 2328 1336 2051 
Q 1088 1775 1088 1275 
Q 1088 772 1336 495 
Q 1584 219 2034 219 
Q 2484 219 2732 495 
Q 2981 772 2981 1275 
z
M 2853 3541 
Q 2853 3966 2637 4203 
Q 2422 4441 2034 4441 
Q 1650 4441 1433 4203 
Q 1216 3966 1216 3541 
Q 1216 3113 1433 2875 
Q 1650 2638 2034 2638 
Q 2422 2638 2637 2875 
Q 2853 3113 2853 3541 
z
M 2516 2484 
Q 3047 2413 3344 2092 
Q 3641 1772 3641 1275 
Q 3641 619 3225 264 
Q 2809 -91 2034 -91 
Q 1263 -91 845 264 
Q 428 619 428 1275 
Q 428 1772 725 2092 
Q 1022 2413 1556 2484 
Q 1084 2569 832 2842 
Q 581 3116 581 3541 
Q 581 4103 968 4426 
Q 1356 4750 2034 4750 
Q 2713 4750 3100 4426 
Q 3488 4103 3488 3541 
Q 3488 3116 3236 2842 
Q 2984 2569 2516 2484 
z
" transform="scale(0.015625)"/>
       </defs>
       <use xlink:href="#DejaVuSerif-31"/>
       <use xlink:href="#DejaVuSerif-38" x="63.623047"/>
       <use xlink:href="#DejaVuSerif-30" x="127.246094"/>
       <use xlink:href="#DejaVuSerif-b0" x="190.869141"/>
      </g>
     </g>
    </g>
    <g id="xtick_6">
     <g id="line2d_6">
      <path d="M 166.29975 159.095062 
L 72.21495 253.179862 
" clip-path="url(#p0f76229f3e)" style="fill: none; stroke: #b0b0b0; stroke-width: 0.8; stroke-linecap: square"/>
     </g>
     <g id="text_6">
      <!-- 225° -->
      <g transform="translate(50.271705 265.838732) scale(0.1 -0.1)">
       <defs>
        <path id="DejaVuSerif-32" d="M 819 3553 
L 469 3553 
L 469 4384 
Q 803 4563 1142 4656 
Q 1481 4750 1806 4750 
Q 2534 4750 2956 4397 
Q 3378 4044 3378 3438 
Q 3378 2753 2422 1800 
Q 2347 1728 2309 1691 
L 1131 513 
L 3078 513 
L 3078 1088 
L 3444 1088 
L 3444 0 
L 434 0 
L 434 341 
L 1850 1753 
Q 2319 2222 2519 2614 
Q 2719 3006 2719 3438 
Q 2719 3909 2473 4175 
Q 2228 4441 1797 4441 
Q 1350 4441 1106 4219 
Q 863 3997 819 3553 
z
" transform="scale(0.015625)"/>
       </defs>
       <use xlink:href="#DejaVuSerif-32"/>
       <use xlink:href="#DejaVuSerif-32" x="63.623047"/>
       <use xlink:href="#DejaVuSerif-35" x="127.246094"/>
       <use xlink:href="#DejaVuSerif-b0" x="190.869141"/>
      </g>
     </g>
    </g>
    <g id="xtick_7">
     <g id="line2d_7">
      <path d="M 166.29975 159.095062 
L 166.29975 292.151062 
" clip-path="url(#p0f76229f3e)" style="fill: none; stroke: #b0b0b0; stroke-width: 0.8; stroke-linecap: square"/>
     </g>
     <g id="text_7">
      <!-- 270° -->
      <g transform="translate(154.256 308.910437) scale(0.1 -0.1)">
       <defs>
        <path id="DejaVuSerif-37" d="M 3609 4347 
L 1784 0 
L 1319 0 
L 3059 4153 
L 903 4153 
L 903 3578 
L 538 3578 
L 538 4666 
L 3609 4666 
L 3609 4347 
z
" transform="scale(0.015625)"/>
       </defs>
       <use xlink:href="#DejaVuSerif-32"/>
       <use xlink:href="#DejaVuSerif-37" x="63.623047"/>
       <use xlink:href="#DejaVuSerif-30" x="127.246094"/>
       <use xlink:href="#DejaVuSerif-b0" x="190.869141"/>
      </g>
     </g>
    </g>
    <g id="xtick_8">
     <g id="line2d_8">
      <path d="M 166.29975 159.095062 
L 260.38455 253.179862 
" clip-path="url(#p0f76229f3e)" style="fill: none; stroke: #b0b0b0; stroke-width: 0.8; stroke-linecap: square"/>
     </g>
     <g id="text_8">
      <!-- 315° -->
      <g transform="translate(258.240295 265.838732) scale(0.1 -0.1)">
       <use xlink:href="#DejaVuSerif-33"/>
       <use xlink:href="#DejaVuSerif-31" x="63.623047"/>
       <use xlink:href="#DejaVuSerif-35" x="127.246094"/>
       <use xlink:href="#DejaVuSerif-b0" x="190.869141"/>
      </g>
     </g>
    </g>
   </g>
   <g id="matplotlib.axis_2">
    <g id="ytick_1">
     <g id="line2d_9">
      <path d="M 188.692224 159.095062 
C 188.692224 156.15451 188.112999 153.24255 186.987699 150.525834 
C 185.862398 147.809117 184.212905 145.340477 182.13362 143.261192 
C 180.054335 141.181907 177.585695 139.532415 174.868979 138.407114 
C 172.152262 137.281813 169.240303 136.702588 166.29975 136.702588 
C 163.359197 136.702588 160.447238 137.281813 157.730521 138.407114 
C 155.013805 139.532415 152.545165 141.181907 150.46588 143.261192 
C 148.386595 145.340477 146.737102 147.809117 145.611801 150.525834 
C 144.486501 153.24255 143.907276 156.15451 143.907276 159.095062 
C 143.907276 162.035615 144.486501 164.947575 145.611801 167.664291 
C 146.737102 170.381008 148.386595 172.849648 150.46588 174.928933 
C 152.545165 177.008218 155.013805 178.65771 157.730521 179.783011 
C 160.447238 180.908312 163.359197 181.487537 166.29975 181.487537 
C 169.240303 181.487537 172.152262 180.908312 174.868979 179.783011 
C 177.585695 178.65771 180.054335 177.008218 182.13362 174.928933 
C 184.212905 172.849648 185.862398 170.381008 186.987699 167.664291 
C 188.112999 164.947575 188.692224 162.035615 188.692224 159.095062 
" clip-path="url(#p0f76229f3e)" style="fill: none; stroke: #b0b0b0; stroke-width: 0.8; stroke-linecap: square"/>
     </g>
     <g id="text_9">
      <!-- 50 -->
      <g transform="translate(150.46588 141.181505) scale(0.1 -0.1)">
       <use xlink:href="#DejaVuSerif-35"/>
       <use xlink:href="#DejaVuSerif-30" x="63.623047"/>
      </g>
     </g>
    </g>
    <g id="ytick_2">
     <g id="line2d_10">
      <path d="M 211.084698 159.095062 
C 211.084698 153.213957 209.926249 147.390038 207.675647 141.956605 
C 205.425045 136.523172 202.12606 131.585892 197.967491 127.427322 
C 193.808921 123.268752 188.871641 119.969767 183.438208 117.719165 
C 178.004775 115.468564 172.180856 114.310114 166.29975 114.310114 
C 160.418644 114.310114 154.594725 115.468564 149.161292 117.719165 
C 143.727859 119.969767 138.790579 123.268752 134.632009 127.427322 
C 130.47344 131.585892 127.174455 136.523172 124.923853 141.956605 
C 122.673251 147.390038 121.514802 153.213957 121.514802 159.095062 
C 121.514802 164.976168 122.673251 170.800087 124.923853 176.23352 
C 127.174455 181.666953 130.47344 186.604233 134.632009 190.762803 
C 138.790579 194.921373 143.727859 198.220358 149.161292 200.47096 
C 154.594725 202.721561 160.418644 203.880011 166.29975 203.880011 
C 172.180856 203.880011 178.004775 202.721561 183.438208 200.47096 
C 188.871641 198.220358 193.808921 194.921373 197.967491 190.762803 
C 202.12606 186.604233 205.425045 181.666953 207.675647 176.23352 
C 209.926249 170.800087 211.084698 164.976168 211.084698 159.095062 
" clip-path="url(#p0f76229f3e)" style="fill: none; stroke: #b0b0b0; stroke-width: 0.8; stroke-linecap: square"/>
     </g>
     <g id="text_10">
      <!-- 100 -->
      <g transform="translate(134.632009 125.347634) scale(0.1 -0.1)">
       <use xlink:href="#DejaVuSerif-31"/>
       <use xlink:href="#DejaVuSerif-30" x="63.623047"/>
       <use xlink:href="#DejaVuSerif-30" x="127.246094"/>
      </g>
     </g>
    </g>
    <g id="ytick_3">
     <g id="line2d_11">
      <path d="M 233.477172 159.095062 
C 233.477172 150.273404 231.739498 141.537525 228.363596 133.387376 
C 224.987693 125.237226 220.039215 117.831306 213.801361 111.593452 
C 207.563506 105.355597 200.157586 100.407119 192.007437 97.031217 
C 183.857287 93.655315 175.121408 91.91764 166.29975 91.91764 
C 157.478092 91.91764 148.742213 93.655315 140.592063 97.031217 
C 132.441914 100.407119 125.035994 105.355597 118.798139 111.593452 
C 112.560285 117.831306 107.611807 125.237226 104.235904 133.387376 
C 100.860002 141.537525 99.122328 150.273404 99.122328 159.095062 
C 99.122328 167.916721 100.860002 176.6526 104.235904 184.802749 
C 107.611807 192.952899 112.560285 200.358819 118.798139 206.596673 
C 125.035994 212.834528 132.441914 217.783006 140.592063 221.158908 
C 148.742213 224.53481 157.478092 226.272485 166.29975 226.272485 
C 175.121408 226.272485 183.857287 224.53481 192.007437 221.158908 
C 200.157586 217.783006 207.563506 212.834528 213.801361 206.596673 
C 220.039215 200.358819 224.987693 192.952899 228.363596 184.802749 
C 231.739498 176.6526 233.477172 167.916721 233.477172 159.095062 
" clip-path="url(#p0f76229f3e)" style="fill: none; stroke: #b0b0b0; stroke-width: 0.8; stroke-linecap: square"/>
     </g>
     <g id="text_11">
      <!-- 150 -->
      <g transform="translate(118.798139 109.513764) scale(0.1 -0.1)">
       <use xlink:href="#DejaVuSerif-31"/>
       <use xlink:href="#DejaVuSerif-35" x="63.623047"/>
       <use xlink:href="#DejaVuSerif-30" x="127.246094"/>
      </g>
     </g>
    </g>
    <g id="ytick_4">
     <g id="line2d_12">
      <path d="M 255.869646 159.095062 
C 255.869646 147.332851 253.552747 135.685013 249.051544 124.818147 
C 244.550341 113.951281 237.95237 104.076721 229.635231 95.759581 
C 221.318092 87.442442 211.443531 80.844472 200.576665 76.343268 
C 189.709799 71.842065 178.061961 69.525166 166.29975 69.525166 
C 154.537539 69.525166 142.889701 71.842065 132.022835 76.343268 
C 121.155969 80.844472 111.281408 87.442442 102.964269 95.759581 
C 94.64713 104.076721 88.049159 113.951281 83.547956 124.818147 
C 79.046753 135.685013 76.729854 147.332851 76.729854 159.095062 
C 76.729854 170.857274 79.046753 182.505112 83.547956 193.371978 
C 88.049159 204.238844 94.64713 214.113404 102.964269 222.430544 
C 111.281408 230.747683 121.155969 237.345653 132.022835 241.846857 
C 142.889701 246.34806 154.537539 248.664959 166.29975 248.664959 
C 178.061961 248.664959 189.709799 246.34806 200.576665 241.846857 
C 211.443531 237.345653 221.318092 230.747683 229.635231 222.430544 
C 237.95237 214.113404 244.550341 204.238844 249.051544 193.371978 
C 253.552747 182.505112 255.869646 170.857274 255.869646 159.095062 
" clip-path="url(#p0f76229f3e)" style="fill: none; stroke: #b0b0b0; stroke-width: 0.8; stroke-linecap: square"/>
     </g>
     <g id="text_12">
      <!-- 200 -->
      <g transform="translate(102.964269 93.679894) scale(0.1 -0.1)">
       <use xlink:href="#DejaVuSerif-32"/>
       <use xlink:href="#DejaVuSerif-30" x="63.623047"/>
       <use xlink:href="#DejaVuSerif-30" x="127.246094"/>
      </g>
     </g>
    </g>
    <g id="ytick_5">
     <g id="line2d_13">
      <path d="M 278.26212 159.095062 
C 278.26212 144.392299 275.365997 129.832501 269.739493 116.248918 
C 264.112988 102.665336 255.865525 90.322135 245.469101 79.925711 
C 235.072677 69.529287 222.729477 61.281824 209.145894 55.65532 
C 195.562312 50.028816 181.002514 47.132692 166.29975 47.132692 
C 151.596986 47.132692 137.037188 50.028816 123.453606 55.65532 
C 109.870023 61.281824 97.526823 69.529287 87.130399 79.925711 
C 76.733975 90.322135 68.486512 102.665336 62.860007 116.248918 
C 57.233503 129.832501 54.33738 144.392299 54.33738 159.095062 
C 54.33738 173.797826 57.233503 188.357624 62.860007 201.941207 
C 68.486512 215.524789 76.733975 227.86799 87.130399 238.264414 
C 97.526823 248.660838 109.870023 256.908301 123.453606 262.534805 
C 137.037188 268.161309 151.596986 271.057433 166.29975 271.057433 
C 181.002514 271.057433 195.562312 268.161309 209.145894 262.534805 
C 222.729477 256.908301 235.072677 248.660838 245.469101 238.264414 
C 255.865525 227.86799 264.112988 215.524789 269.739493 201.941207 
C 275.365997 188.357624 278.26212 173.797826 278.26212 159.095062 
" clip-path="url(#p0f76229f3e)" style="fill: none; stroke: #b0b0b0; stroke-width: 0.8; stroke-linecap: square"/>
     </g>
     <g id="text_13">
      <!-- 250 -->
      <g transform="translate(87.130399 77.846024) scale(0.1 -0.1)">
       <use xlink:href="#DejaVuSerif-32"/>
       <use xlink:href="#DejaVuSerif-35" x="63.623047"/>
       <use xlink:href="#DejaVuSerif-30" x="127.246094"/>
      </g>
     </g>
    </g>
   </g>
   <g id="patch_3">
    <path d="M 299.35575 159.095062 
C 299.35575 141.622309 295.913998 124.319455 289.227465 108.176736 
C 282.540932 92.034016 272.739653 77.365365 260.38455 65.010263 
C 248.029447 52.65516 233.360796 42.853881 217.218077 36.167347 
C 201.075357 29.480814 183.772504 26.039062 166.29975 26.039062 
C 148.826996 26.039062 131.524143 29.480814 115.381423 36.167347 
C 99.238704 42.853881 84.570053 52.65516 72.21495 65.010263 
C 59.859847 77.365365 50.058568 92.034016 43.372035 108.176736 
C 36.685502 124.319455 33.24375 141.622309 33.24375 159.095062 
C 33.24375 176.567816 36.685502 193.87067 43.372035 210.013389 
C 50.058568 226.156109 59.859847 240.82476 72.21495 253.179862 
C 84.570053 265.534965 99.238704 275.336244 115.381423 282.022778 
C 131.524143 288.709311 148.826996 292.151062 166.29975 292.151062 
C 183.772504 292.151062 201.075357 288.709311 217.218077 282.022778 
C 233.360796 275.336244 248.029447 265.534965 260.38455 253.179862 
C 272.739653 240.82476 282.540932 226.156109 289.227465 210.013389 
C 295.913998 193.87067 299.35575 176.567816 299.35575 159.095062 
" style="fill: none; stroke: #000000; stroke-width: 0.8; stroke-linejoin: miter; stroke-linecap: square"/>
   </g>
   <g id="line2d_14">
    <path d="M 160.960912 153.355883 
L 147.828989 173.264699 
L 142.733543 190.428071 
L 137.162021 204.304433 
L 133.989782 211.536356 
L 136.643927 229.814597 
L 141.961866 241.469629 
L 150.695056 253.374472 
L 160.345102 266.194777 
L 168.154705 268.982786 
L 177.703566 275.048567 
L 194.384603 273.662792 
L 212.787519 263.208664 
L 228.672689 255.424208 
L 246.030638 242.469776 
L 258.72589 231.421854 
L 270.825205 224.496024 
L 278.275063 202.951087 
L 283.978543 185.6977 
L 286.240629 164.623318 
L 288.578629 135.805951 
L 283.524932 117.741832 
L 278.51396 103.807279 
L 271.260695 92.527509 
L 257.04605 84.930835 
L 240.736433 79.749112 
L 226.754241 79.278046 
L 210.826264 84.024181 
L 204.656381 83.539472 
L 193.885099 94.352653 
L 181.364625 112.841129 
L 170.846287 132.186015 
L 160.960912 153.355883 
" clip-path="url(#p0f76229f3e)" style="fill: none; stroke: #000000; stroke-width: 1.1; stroke-linecap: square"/>
   </g>
   <g id="PathCollection_1">
    <defs>
     <path id="m8f4372064c" d="M 0 3.872983 
C 1.027127 3.872983 2.012324 3.464901 2.738613 2.738613 
C 3.464901 2.012324 3.872983 1.027127 3.872983 0 
C 3.872983 -1.027127 3.464901 -2.012324 2.738613 -2.738613 
C 2.012324 -3.464901 1.027127 -3.872983 0 -3.872983 
C -1.027127 -3.872983 -2.012324 -3.464901 -2.738613 -2.738613 
C -3.464901 -2.012324 -3.872983 -1.027127 -3.872983 0 
C -3.872983 1.027127 -3.464901 2.012324 -2.738613 2.738613 
C -2.012324 3.464901 -1.027127 3.872983 0 3.872983 
z
" style="stroke: #ffffff"/>
    </defs>
    <g clip-path="url(#p0f76229f3e)">
     <use xlink:href="#m8f4372064c" x="160.960912" y="153.355883" style="fill: #ffffff; stroke: #ffffff"/>
     <use xlink:href="#m8f4372064c" x="147.828989" y="173.264699" style="fill: #ffffff; stroke: #ffffff"/>
     <use xlink:href="#m8f4372064c" x="142.733543" y="190.428071" style="fill: #ffffff; stroke: #ffffff"/>
     <use xlink:href="#m8f4372064c" x="137.162021" y="204.304433" style="fill: #ffffff; stroke: #ffffff"/>
     <use xlink:href="#m8f4372064c" x="133.989782" y="211.536356" style="fill: #ffffff; stroke: #ffffff"/>
     <use xlink:href="#m8f4372064c" x="136.643927" y="229.814597" style="fill: #ffffff; stroke: #ffffff"/>
     <use xlink:href="#m8f4372064c" x="141.961866" y="241.469629" style="fill: #ffffff; stroke: #ffffff"/>
     <use xlink:href="#m8f4372064c" x="150.695056" y="253.374472" style="fill: #ffffff; stroke: #ffffff"/>
     <use xlink:href="#m8f4372064c" x="160.345102" y="266.194777" style="fill: #ffffff; stroke: #ffffff"/>
     <use xlink:href="#m8f4372064c" x="168.154705" y="268.982786" style="fill: #ffffff; stroke: #ffffff"/>
     <use xlink:href="#m8f4372064c" x="177.703566" y="275.048567" style="fill: #ffffff; stroke: #ffffff"/>
     <use xlink:href="#m8f4372064c" x="194.384603" y="273.662792" style="fill: #ffffff; stroke: #ffffff"/>
     <use xlink:href="#m8f4372064c" x="212.787519" y="263.208664" style="fill: #ffffff; stroke: #ffffff"/>
     <use xlink:href="#m8f4372064c" x="228.672689" y="255.424208" style="fill: #ffffff; stroke: #ffffff"/>
     <use xlink:href="#m8f4372064c" x="246.030638" y="242.469776" style="fill: #ffffff; stroke: #ffffff"/>
     <use xlink:href="#m8f4372064c" x="258.72589" y="231.421854" style="fill: #ffffff; stroke: #ffffff"/>
     <use xlink:href="#m8f4372064c" x="270.825205" y="224.496024" style="fill: #ffffff; stroke: #ffffff"/>
     <use xlink:href="#m8f4372064c" x="278.275063" y="202.951087" style="fill: #ffffff; stroke: #ffffff"/>
     <use xlink:href="#m8f4372064c" x="283.978543" y="185.6977" style="fill: #ffffff; stroke: #ffffff"/>
     <use xlink:href="#m8f4372064c" x="286.240629" y="164.623318" style="fill: #ffffff; stroke: #ffffff"/>
     <use xlink:href="#m8f4372064c" x="288.578629" y="135.805951" style="fill: #ffffff; stroke: #ffffff"/>
     <use xlink:href="#m8f4372064c" x="283.524932" y="117.741832" style="fill: #ffffff; stroke: #ffffff"/>
     <use xlink:href="#m8f4372064c" x="278.51396" y="103.807279" style="fill: #ffffff; stroke: #ffffff"/>
     <use xlink:href="#m8f4372064c" x="271.260695" y="92.527509" style="fill: #ffffff; stroke: #ffffff"/>
     <use xlink:href="#m8f4372064c" x="257.04605" y="84.930835" style="fill: #ffffff; stroke: #ffffff"/>
     <use xlink:href="#m8f4372064c" x="240.736433" y="79.749112" style="fill: #ffffff; stroke: #ffffff"/>
     <use xlink:href="#m8f4372064c" x="226.754241" y="79.278046" style="fill: #ffffff; stroke: #ffffff"/>
     <use xlink:href="#m8f4372064c" x="210.826264" y="84.024181" style="fill: #ffffff; stroke: #ffffff"/>
     <use xlink:href="#m8f4372064c" x="204.656381" y="83.539472" style="fill: #ffffff; stroke: #ffffff"/>
     <use xlink:href="#m8f4372064c" x="193.885099" y="94.352653" style="fill: #ffffff; stroke: #ffffff"/>
     <use xlink:href="#m8f4372064c" x="181.364625" y="112.841129" style="fill: #ffffff; stroke: #ffffff"/>
     <use xlink:href="#m8f4372064c" x="170.846287" y="132.186015" style="fill: #ffffff; stroke: #ffffff"/>
    </g>
   </g>
   <g id="PathCollection_2">
    <defs>
     <path id="me58c6d74be" d="M 0 2.5 
C 0.663008 2.5 1.29895 2.236584 1.767767 1.767767 
C 2.236584 1.29895 2.5 0.663008 2.5 0 
C 2.5 -0.663008 2.236584 -1.29895 1.767767 -1.767767 
C 1.29895 -2.236584 0.663008 -2.5 0 -2.5 
C -0.663008 -2.5 -1.29895 -2.236584 -1.767767 -1.767767 
C -2.236584 -1.29895 -2.5 -0.663008 -2.5 0 
C -2.5 0.663008 -2.236584 1.29895 -1.767767 1.767767 
C -1.29895 2.236584 -0.663008 2.5 0 2.5 
z
" style="stroke: #000000"/>
    </defs>
    <g clip-path="url(#p0f76229f3e)">
     <use xlink:href="#me58c6d74be" x="160.960912" y="153.355883" style="stroke: #000000"/>
     <use xlink:href="#me58c6d74be" x="147.828989" y="173.264699" style="stroke: #000000"/>
     <use xlink:href="#me58c6d74be" x="142.733543" y="190.428071" style="stroke: #000000"/>
     <use xlink:href="#me58c6d74be" x="137.162021" y="204.304433" style="stroke: #000000"/>
     <use xlink:href="#me58c6d74be" x="133.989782" y="211.536356" style="stroke: #000000"/>
     <use xlink:href="#me58c6d74be" x="136.643927" y="229.814597" style="stroke: #000000"/>
     <use xlink:href="#me58c6d74be" x="141.961866" y="241.469629" style="stroke: #000000"/>
     <use xlink:href="#me58c6d74be" x="150.695056" y="253.374472" style="stroke: #000000"/>
     <use xlink:href="#me58c6d74be" x="160.345102" y="266.194777" style="stroke: #000000"/>
     <use xlink:href="#me58c6d74be" x="168.154705" y="268.982786" style="stroke: #000000"/>
     <use xlink:href="#me58c6d74be" x="177.703566" y="275.048567" style="stroke: #000000"/>
     <use xlink:href="#me58c6d74be" x="194.384603" y="273.662792" style="stroke: #000000"/>
     <use xlink:href="#me58c6d74be" x="212.787519" y="263.208664" style="stroke: #000000"/>
     <use xlink:href="#me58c6d74be" x="228.672689" y="255.424208" style="stroke: #000000"/>
     <use xlink:href="#me58c6d74be" x="246.030638" y="242.469776" style="stroke: #000000"/>
     <use xlink:href="#me58c6d74be" x="258.72589" y="231.421854" style="stroke: #000000"/>
     <use xlink:href="#me58c6d74be" x="270.825205" y="224.496024" style="stroke: #000000"/>
     <use xlink:href="#me58c6d74be" x="278.275063" y="202.951087" style="stroke: #000000"/>
     <use xlink:href="#me58c6d74be" x="283.978543" y="185.6977" style="stroke: #000000"/>
     <use xlink:href="#me58c6d74be" x="286.240629" y="164.623318" style="stroke: #000000"/>
     <use xlink:href="#me58c6d74be" x="288.578629" y="135.805951" style="stroke: #000000"/>
     <use xlink:href="#me58c6d74be" x="283.524932" y="117.741832" style="stroke: #000000"/>
     <use xlink:href="#me58c6d74be" x="278.51396" y="103.807279" style="stroke: #000000"/>
     <use xlink:href="#me58c6d74be" x="271.260695" y="92.527509" style="stroke: #000000"/>
     <use xlink:href="#me58c6d74be" x="257.04605" y="84.930835" style="stroke: #000000"/>
     <use xlink:href="#me58c6d74be" x="240.736433" y="79.749112" style="stroke: #000000"/>
     <use xlink:href="#me58c6d74be" x="226.754241" y="79.278046" style="stroke: #000000"/>
     <use xlink:href="#me58c6d74be" x="210.826264" y="84.024181" style="stroke: #000000"/>
     <use xlink:href="#me58c6d74be" x="204.656381" y="83.539472" style="stroke: #000000"/>
     <use xlink:href="#me58c6d74be" x="193.885099" y="94.352653" style="stroke: #000000"/>
     <use xlink:href="#me58c6d74be" x="181.364625" y="112.841129" style="stroke: #000000"/>
     <use xlink:href="#me58c6d74be" x="170.846287" y="132.186015" style="stroke: #000000"/>
    </g>
   </g>
   <g id="LineCollection_1">
    <path d="M 163.290891 151.857098 
L 159.297853 155.571598 
" clip-path="url(#p0f76229f3e)" style="fill: none; stroke: #ff0000"/>
    <path d="M 146.324759 171.051123 
L 149.577336 175.291004 
" clip-path="url(#p0f76229f3e)" style="fill: none; stroke: #ff0000"/>
    <path d="M 142.018749 189.877469 
L 143.460818 190.962078 
" clip-path="url(#p0f76229f3e)" style="fill: none; stroke: #ff0000"/>
    <path d="M 135.798561 203.395988 
L 138.552517 205.170929 
" clip-path="url(#p0f76229f3e)" style="fill: none; stroke: #ff0000"/>
    <path d="M 132.148102 210.356044 
L 135.872211 212.650531 
" clip-path="url(#p0f76229f3e)" style="fill: none; stroke: #ff0000"/>
    <path d="M 134.952114 229.081105 
L 138.352887 230.507199 
" clip-path="url(#p0f76229f3e)" style="fill: none; stroke: #ff0000"/>
    <path d="M 140.616932 241.060266 
L 143.31332 241.856925 
" clip-path="url(#p0f76229f3e)" style="fill: none; stroke: #ff0000"/>
    <path d="M 148.223751 252.932005 
L 153.177132 253.751866 
" clip-path="url(#p0f76229f3e)" style="fill: none; stroke: #ff0000"/>
    <path d="M 158.437337 266.071645 
L 162.254758 266.28389 
" clip-path="url(#p0f76229f3e)" style="fill: none; stroke: #ff0000"/>
    <path d="M 167.00029 268.996208 
L 169.308916 268.957237 
" clip-path="url(#p0f76229f3e)" style="fill: none; stroke: #ff0000"/>
    <path d="M 175.778929 275.221749 
L 179.625066 274.843489 
" clip-path="url(#p0f76229f3e)" style="fill: none; stroke: #ff0000"/>
    <path d="M 191.786273 274.268674 
L 196.968565 272.9983 
" clip-path="url(#p0f76229f3e)" style="fill: none; stroke: #ff0000"/>
    <path d="M 209.618202 264.5667 
L 215.914324 261.755419 
" clip-path="url(#p0f76229f3e)" style="fill: none; stroke: #ff0000"/>
    <path d="M 226.342589 256.893555 
L 230.966849 253.899355 
" clip-path="url(#p0f76229f3e)" style="fill: none; stroke: #ff0000"/>
    <path d="M 244.106321 244.268385 
L 247.913389 240.627701 
" clip-path="url(#p0f76229f3e)" style="fill: none; stroke: #ff0000"/>
    <path d="M 257.198167 233.332747 
L 260.213448 229.47953 
" clip-path="url(#p0f76229f3e)" style="fill: none; stroke: #ff0000"/>
    <path d="M 269.31357 226.852051 
L 272.282966 222.106287 
" clip-path="url(#p0f76229f3e)" style="fill: none; stroke: #ff0000"/>
    <path d="M 276.794094 206.558961 
L 279.638264 199.297089 
" clip-path="url(#p0f76229f3e)" style="fill: none; stroke: #ff0000"/>
    <path d="M 283.15299 189.11704 
L 284.704063 182.255746 
" clip-path="url(#p0f76229f3e)" style="fill: none; stroke: #ff0000"/>
    <path d="M 286.087366 167.298909 
L 286.334137 161.944972 
" clip-path="url(#p0f76229f3e)" style="fill: none; stroke: #ff0000"/>
    <path d="M 289.257123 139.704559 
L 287.776555 131.930879 
" clip-path="url(#p0f76229f3e)" style="fill: none; stroke: #ff0000"/>
    <path d="M 284.338006 120.123238 
L 282.663819 115.377373 
" clip-path="url(#p0f76229f3e)" style="fill: none; stroke: #ff0000"/>
    <path d="M 279.578633 106.022823 
L 277.40596 101.613082 
" clip-path="url(#p0f76229f3e)" style="fill: none; stroke: #ff0000"/>
    <path d="M 272.319028 94.226336 
L 270.175142 90.845945 
" clip-path="url(#p0f76229f3e)" style="fill: none; stroke: #ff0000"/>
    <path d="M 258.38405 86.59882 
L 255.67784 83.287539 
" clip-path="url(#p0f76229f3e)" style="fill: none; stroke: #ff0000"/>
    <path d="M 242.155102 81.10426 
L 239.293559 78.419766 
" clip-path="url(#p0f76229f3e)" style="fill: none; stroke: #ff0000"/>
    <path d="M 228.655164 80.754115 
L 224.81839 77.848091 
" clip-path="url(#p0f76229f3e)" style="fill: none; stroke: #ff0000"/>
    <path d="M 212.59912 85.104414 
L 209.028218 82.986418 
" clip-path="url(#p0f76229f3e)" style="fill: none; stroke: #ff0000"/>
    <path d="M 205.705175 84.081125 
L 203.600143 83.012483 
" clip-path="url(#p0f76229f3e)" style="fill: none; stroke: #ff0000"/>
    <path d="M 194.819404 94.758756 
L 192.945013 93.960118 
" clip-path="url(#p0f76229f3e)" style="fill: none; stroke: #ff0000"/>
    <path d="M 182.619883 113.268978 
L 180.098171 112.447658 
" clip-path="url(#p0f76229f3e)" style="fill: none; stroke: #ff0000"/>
    <path d="M 172.197702 132.449575 
L 169.483298 131.990951 
" clip-path="url(#p0f76229f3e)" style="fill: none; stroke: #ff0000"/>
   </g>
   <g id="LineCollection_2">
    <path d="M 163.224272 155.788964 
L 158.697553 150.922802 
" clip-path="url(#p0f76229f3e)" style="fill: none; stroke: #ff0000"/>
    <path d="M 154.199487 168.377643 
L 141.45849 178.151756 
" clip-path="url(#p0f76229f3e)" style="fill: none; stroke: #ff0000"/>
    <path d="M 146.053536 186.013895 
L 139.41355 194.842246 
" clip-path="url(#p0f76229f3e)" style="fill: none; stroke: #ff0000"/>
    <path d="M 138.164332 202.749272 
L 136.15971 205.859594 
" clip-path="url(#p0f76229f3e)" style="fill: none; stroke: #ff0000"/>
    <path d="M 135.992928 208.285113 
L 131.986636 214.787599 
" clip-path="url(#p0f76229f3e)" style="fill: none; stroke: #ff0000"/>
    <path d="M 138.359689 225.723059 
L 134.928164 233.906135 
" clip-path="url(#p0f76229f3e)" style="fill: none; stroke: #ff0000"/>
    <path d="M 142.790725 238.664256 
L 141.133008 244.275002 
" clip-path="url(#p0f76229f3e)" style="fill: none; stroke: #ff0000"/>
    <path d="M 151.315665 249.624922 
L 150.074448 257.124023 
" clip-path="url(#p0f76229f3e)" style="fill: none; stroke: #ff0000"/>
    <path d="M 160.482419 263.725013 
L 160.207785 268.664541 
" clip-path="url(#p0f76229f3e)" style="fill: none; stroke: #ff0000"/>
    <path d="M 168.119036 266.869736 
L 168.190375 271.095835 
" clip-path="url(#p0f76229f3e)" style="fill: none; stroke: #ff0000"/>
    <path d="M 177.446687 272.436629 
L 177.960445 277.660505 
" clip-path="url(#p0f76229f3e)" style="fill: none; stroke: #ff0000"/>
    <path d="M 193.559354 270.296321 
L 195.209852 277.029264 
" clip-path="url(#p0f76229f3e)" style="fill: none; stroke: #ff0000"/>
    <path d="M 211.639995 260.63868 
L 213.935042 265.778648 
" clip-path="url(#p0f76229f3e)" style="fill: none; stroke: #ff0000"/>
    <path d="M 227.361028 253.39847 
L 229.98435 257.449945 
" clip-path="url(#p0f76229f3e)" style="fill: none; stroke: #ff0000"/>
    <path d="M 244.664402 241.041101 
L 247.396874 243.898451 
" clip-path="url(#p0f76229f3e)" style="fill: none; stroke: #ff0000"/>
    <path d="M 256.478221 229.662972 
L 260.973558 233.180735 
" clip-path="url(#p0f76229f3e)" style="fill: none; stroke: #ff0000"/>
    <path d="M 269.065687 223.395103 
L 272.584724 225.596944 
" clip-path="url(#p0f76229f3e)" style="fill: none; stroke: #ff0000"/>
    <path d="M 275.546554 201.882445 
L 281.003572 204.01973 
" clip-path="url(#p0f76229f3e)" style="fill: none; stroke: #ff0000"/>
    <path d="M 281.768723 185.198145 
L 286.188364 186.197255 
" clip-path="url(#p0f76229f3e)" style="fill: none; stroke: #ff0000"/>
    <path d="M 284.025542 164.521221 
L 288.455716 164.725415 
" clip-path="url(#p0f76229f3e)" style="fill: none; stroke: #ff0000"/>
    <path d="M 286.692956 136.165094 
L 290.464303 135.446807 
" clip-path="url(#p0f76229f3e)" style="fill: none; stroke: #ff0000"/>
    <path d="M 281.124451 118.588644 
L 285.925413 116.89502 
" clip-path="url(#p0f76229f3e)" style="fill: none; stroke: #ff0000"/>
    <path d="M 276.863436 104.62049 
L 280.164484 102.994069 
" clip-path="url(#p0f76229f3e)" style="fill: none; stroke: #ff0000"/>
    <path d="M 269.435898 93.684818 
L 273.085491 91.3702 
" clip-path="url(#p0f76229f3e)" style="fill: none; stroke: #ff0000"/>
    <path d="M 254.720873 86.831132 
L 259.371227 83.030538 
" clip-path="url(#p0f76229f3e)" style="fill: none; stroke: #ff0000"/>
    <path d="M 238.942389 81.661478 
L 242.530478 77.836747 
" clip-path="url(#p0f76229f3e)" style="fill: none; stroke: #ff0000"/>
    <path d="M 223.642073 83.386988 
L 229.866409 75.169104 
" clip-path="url(#p0f76229f3e)" style="fill: none; stroke: #ff0000"/>
    <path d="M 208.982829 87.132179 
L 212.669699 80.916183 
" clip-path="url(#p0f76229f3e)" style="fill: none; stroke: #ff0000"/>
    <path d="M 203.16362 86.479939 
L 206.149141 80.599006 
" clip-path="url(#p0f76229f3e)" style="fill: none; stroke: #ff0000"/>
    <path d="M 191.323188 100.36542 
L 196.44701 88.339887 
" clip-path="url(#p0f76229f3e)" style="fill: none; stroke: #ff0000"/>
    <path d="M 179.388159 118.909507 
L 183.341092 106.772751 
" clip-path="url(#p0f76229f3e)" style="fill: none; stroke: #ff0000"/>
    <path d="M 169.838216 138.152364 
L 171.854357 126.219665 
" clip-path="url(#p0f76229f3e)" style="fill: none; stroke: #ff0000"/>
   </g>
   <g id="line2d_15">
    <path d="M 160.960912 153.355883 
L 147.828989 173.264699 
L 142.733543 190.428071 
L 137.162021 204.304433 
L 133.989782 211.536356 
L 136.643927 229.814597 
L 141.961866 241.469629 
L 150.695056 253.374472 
L 160.345102 266.194777 
L 168.154705 268.982786 
L 177.703566 275.048567 
L 194.384603 273.662792 
L 212.787519 263.208664 
L 228.672689 255.424208 
L 246.030638 242.469776 
L 258.72589 231.421854 
L 270.825205 224.496024 
L 278.275063 202.951087 
L 283.978543 185.6977 
L 286.240629 164.623318 
L 288.578629 135.805951 
L 283.524932 117.741832 
L 278.51396 103.807279 
L 271.260695 92.527509 
L 257.04605 84.930835 
L 240.736433 79.749112 
L 226.754241 79.278046 
L 210.826264 84.024181 
L 204.656381 83.539472 
L 193.885099 94.352653 
L 181.364625 112.841129 
L 170.846287 132.186015 
" clip-path="url(#p0f76229f3e)" style="fill: none; stroke: #000000; stroke-opacity: 0; stroke-linecap: square"/>
   </g>
   <g id="text_14">
    <!-- $r$ ($\mu m$) -->
    <g transform="translate(81.478548 118.997737) scale(0.1 -0.1)">
     <defs>
      <path id="DejaVuSans-Oblique-72" d="M 2853 2969 
Q 2766 3016 2653 3041 
Q 2541 3066 2413 3066 
Q 1953 3066 1609 2717 
Q 1266 2369 1153 1784 
L 800 0 
L 225 0 
L 909 3500 
L 1484 3500 
L 1375 2956 
Q 1603 3259 1920 3421 
Q 2238 3584 2597 3584 
Q 2691 3584 2781 3573 
Q 2872 3563 2963 3538 
L 2853 2969 
z
" transform="scale(0.015625)"/>
      <path id="DejaVuSerif-Bold-20" transform="scale(0.015625)"/>
      <path id="DejaVuSerif-Bold-28" d="M 2694 -997 
Q 1641 -606 1122 122 
Q 603 850 603 1931 
Q 603 3013 1115 3731 
Q 1628 4450 2694 4863 
L 2694 4488 
Q 2200 4188 1983 3598 
Q 1766 3009 1766 1931 
Q 1766 856 1983 267 
Q 2200 -322 2694 -622 
L 2694 -997 
z
" transform="scale(0.015625)"/>
      <path id="DejaVuSans-Oblique-3bc" d="M -84 -1331 
L 856 3500 
L 1434 3500 
L 1009 1322 
Q 997 1256 987 1175 
Q 978 1094 978 1013 
Q 978 722 1161 565 
Q 1344 409 1684 409 
Q 2147 409 2431 671 
Q 2716 934 2816 1459 
L 3213 3500 
L 3788 3500 
L 3266 809 
Q 3253 750 3248 706 
Q 3244 663 3244 628 
Q 3244 531 3283 486 
Q 3322 441 3406 441 
Q 3438 441 3492 456 
Q 3547 472 3647 513 
L 3559 50 
Q 3422 -19 3297 -55 
Q 3172 -91 3053 -91 
Q 2847 -91 2730 40 
Q 2613 172 2613 403 
Q 2438 153 2195 31 
Q 1953 -91 1625 -91 
Q 1334 -91 1117 43 
Q 900 178 831 397 
L 494 -1331 
L -84 -1331 
z
" transform="scale(0.015625)"/>
      <path id="DejaVuSans-Oblique-6d" d="M 5747 2113 
L 5338 0 
L 4763 0 
L 5166 2094 
Q 5191 2228 5203 2325 
Q 5216 2422 5216 2491 
Q 5216 2772 5059 2928 
Q 4903 3084 4622 3084 
Q 4203 3084 3875 2770 
Q 3547 2456 3450 1953 
L 3066 0 
L 2491 0 
L 2900 2094 
Q 2925 2209 2937 2307 
Q 2950 2406 2950 2484 
Q 2950 2769 2794 2926 
Q 2638 3084 2363 3084 
Q 1938 3084 1609 2770 
Q 1281 2456 1184 1953 
L 800 0 
L 225 0 
L 909 3500 
L 1484 3500 
L 1375 2956 
Q 1609 3263 1923 3423 
Q 2238 3584 2597 3584 
Q 2978 3584 3223 3384 
Q 3469 3184 3519 2828 
Q 3781 3197 4126 3390 
Q 4472 3584 4856 3584 
Q 5306 3584 5551 3325 
Q 5797 3066 5797 2591 
Q 5797 2488 5784 2364 
Q 5772 2241 5747 2113 
z
" transform="scale(0.015625)"/>
      <path id="DejaVuSerif-Bold-29" d="M 325 -997 
L 325 -622 
Q 819 -322 1036 267 
Q 1253 856 1253 1931 
Q 1253 3009 1036 3598 
Q 819 4188 325 4488 
L 325 4863 
Q 1391 4450 1905 3731 
Q 2419 3013 2419 1931 
Q 2419 850 1898 122 
Q 1378 -606 325 -997 
z
" transform="scale(0.015625)"/>
     </defs>
     <use xlink:href="#DejaVuSans-Oblique-72" transform="translate(0 0.015625)"/>
     <use xlink:href="#DejaVuSerif-Bold-20" transform="translate(41.113281 0.015625)"/>
     <use xlink:href="#DejaVuSerif-Bold-28" transform="translate(75.927734 0.015625)"/>
     <use xlink:href="#DejaVuSans-Oblique-3bc" transform="translate(123.242188 0.015625)"/>
     <use xlink:href="#DejaVuSans-Oblique-6d" transform="translate(186.865234 0.015625)"/>
     <use xlink:href="#DejaVuSerif-Bold-29" transform="translate(284.277344 0.015625)"/>
    </g>
   </g>
   <g id="text_15">
    <!-- $\theta$ (°) -->
    <g transform="translate(303.216839 172.832594) scale(0.1 -0.1)">
     <defs>
      <path id="DejaVuSans-Oblique-3b8" d="M 2913 2219 
L 925 2219 
Q 791 1284 928 888 
Q 1100 400 1566 400 
Q 2034 400 2391 891 
Q 2703 1322 2913 2219 
z
M 3009 2750 
Q 3094 3638 2984 3950 
Q 2813 4444 2353 4444 
Q 1875 4444 1525 3956 
Q 1250 3563 1034 2750 
L 3009 2750 
z
M 2444 4913 
Q 3194 4913 3494 4250 
Q 3794 3591 3566 2422 
Q 3341 1256 2781 594 
Q 2225 -72 1475 -72 
Q 722 -72 425 594 
Q 128 1256 353 2422 
Q 581 3591 1134 4250 
Q 1691 4913 2444 4913 
z
" transform="scale(0.015625)"/>
      <path id="DejaVuSerif-Bold-b0" d="M 1600 4794 
Q 1806 4794 1997 4714 
Q 2188 4634 2338 4488 
Q 2484 4338 2561 4150 
Q 2638 3963 2638 3750 
Q 2638 3541 2561 3352 
Q 2484 3163 2344 3022 
Q 2194 2872 2000 2792 
Q 1806 2713 1594 2713 
Q 1153 2713 854 3011 
Q 556 3309 556 3750 
Q 556 4191 857 4492 
Q 1159 4794 1600 4794 
z
M 1600 4288 
Q 1375 4288 1219 4131 
Q 1063 3975 1063 3750 
Q 1063 3525 1217 3372 
Q 1372 3219 1600 3219 
Q 1825 3219 1981 3373 
Q 2138 3528 2138 3750 
Q 2138 3975 1980 4131 
Q 1822 4288 1600 4288 
z
" transform="scale(0.015625)"/>
     </defs>
     <use xlink:href="#DejaVuSans-Oblique-3b8" transform="translate(0 0.234375)"/>
     <use xlink:href="#DejaVuSerif-Bold-20" transform="translate(61.181641 0.234375)"/>
     <use xlink:href="#DejaVuSerif-Bold-28" transform="translate(95.996094 0.234375)"/>
     <use xlink:href="#DejaVuSerif-Bold-b0" transform="translate(143.310547 0.234375)"/>
     <use xlink:href="#DejaVuSerif-Bold-29" transform="translate(193.310547 0.234375)"/>
    </g>
   </g>
  </g>
 </g>
 <defs>
  <clipPath id="p0f76229f3e">
   <path d="M 299.35575 159.095062 
C 299.35575 141.622309 295.913998 124.319455 289.227465 108.176736 
C 282.540932 92.034016 272.739653 77.365365 260.38455 65.010263 
C 248.029447 52.65516 233.360796 42.853881 217.218077 36.167347 
C 201.075357 29.480814 183.772504 26.039062 166.29975 26.039062 
C 148.826996 26.039062 131.524143 29.480814 115.381423 36.167347 
C 99.238704 42.853881 84.570053 52.65516 72.21495 65.010263 
C 59.859847 77.365365 50.058568 92.034016 43.372035 108.176736 
C 36.685502 124.319455 33.24375 141.622309 33.24375 159.095062 
C 33.24375 176.567816 36.685502 193.87067 43.372035 210.013389 
C 50.058568 226.156109 59.859847 240.82476 72.21495 253.179862 
C 84.570053 265.534965 99.238704 275.336244 115.381423 282.022778 
C 131.524143 288.709311 148.826996 292.151062 166.29975 292.151062 
C 183.772504 292.151062 201.075357 288.709311 217.218077 282.022778 
C 233.360796 275.336244 248.029447 265.534965 260.38455 253.179862 
C 272.739653 240.82476 282.540932 226.156109 289.227465 210.013389 
C 295.913998 193.87067 299.35575 176.567816 299.35575 159.095062 
M 166.29975 159.095062 
C 166.29975 159.095062 166.29975 159.095062 166.29975 159.095062 
C 166.29975 159.095062 166.29975 159.095062 166.29975 159.095062 
C 166.29975 159.095062 166.29975 159.095062 166.29975 159.095062 
C 166.29975 159.095062 166.29975 159.095062 166.29975 159.095062 
C 166.29975 159.095062 166.29975 159.095062 166.29975 159.095062 
C 166.29975 159.095062 166.29975 159.095062 166.29975 159.095062 
C 166.29975 159.095062 166.29975 159.095062 166.29975 159.095062 
C 166.29975 159.095062 166.29975 159.095062 166.29975 159.095062 
C 166.29975 159.095062 166.29975 159.095062 166.29975 159.095062 
C 166.29975 159.095062 166.29975 159.095062 166.29975 159.095062 
C 166.29975 159.095062 166.29975 159.095062 166.29975 159.095062 
C 166.29975 159.095062 166.29975 159.095062 166.29975 159.095062 
C 166.29975 159.095062 166.29975 159.095062 166.29975 159.095062 
C 166.29975 159.095062 166.29975 159.095062 166.29975 159.095062 
C 166.29975 159.095062 166.29975 159.095062 166.29975 159.095062 
C 166.29975 159.095062 166.29975 159.095062 166.29975 159.095062 
M 299.35575 159.095062 
z
"/>
  </clipPath>
 </defs>
</svg>
